<ttFont>
    <TTGlyph name="A" xMin="32" yMin="0" xMax="717" yMax="716">
      <contour>
        <pt x="350" y="714" on="1"/>
        <pt x="353" y="716" on="0"/>
        <pt x="374" y="716" on="1"/>
        <pt x="396" y="716" on="0"/>
        <pt x="399" y="714" on="1"/>
        <pt x="402" y="713" on="0"/>
        <pt x="405" y="710" on="1"/>
        <pt x="407" y="707" on="0"/>
        <pt x="512" y="387" on="1"/>
        <pt x="618" y="65" on="0"/>
        <pt x="619" y="64" on="1"/>
        <pt x="623" y="58" on="0"/>
        <pt x="648" y="57" on="1"/>
        <pt x="658" y="56" on="0"/>
        <pt x="691" y="56" on="1"/>
        <pt x="717" y="56" on="1"/>
        <pt x="717" y="28" on="1"/>
        <pt x="717" y="0" on="1"/>
        <pt x="708" y="0" on="1"/>
        <pt x="709" y="0" on="0"/>
        <pt x="637" y="2" on="1"/>
        <pt x="576" y="3" on="0"/>
        <pt x="507" y="2" on="1"/>
        <pt x="427" y="0" on="1"/>
        <pt x="416" y="0" on="1"/>
        <pt x="416" y="28" on="1"/>
        <pt x="416" y="56" on="1"/>
        <pt x="432" y="56" on="1"/>
        <pt x="486" y="56" on="0"/>
        <pt x="498" y="62" on="1"/>
        <pt x="500" y="64" on="0"/>
        <pt x="500" y="66" on="1"/>
        <pt x="500" y="64" on="0"/>
        <pt x="481" y="125" on="1"/>
        <pt x="464" y="176" on="0"/>
        <pt x="460" y="190" on="1"/>
        <pt x="458" y="196" on="1"/>
        <pt x="345" y="196" on="1"/>
        <pt x="233" y="196" on="1"/>
        <pt x="216" y="145" on="1"/>
        <pt x="199" y="91" on="1"/>
        <pt x="198" y="83" on="0"/>
        <pt x="206" y="75" on="1"/>
        <pt x="223" y="59" on="0"/>
        <pt x="263" y="56" on="1"/>
        <pt x="274" y="56" on="1"/>
        <pt x="274" y="28" on="1"/>
        <pt x="274" y="0" on="1"/>
        <pt x="265" y="0" on="1"/>
        <pt x="200" y="2" on="1"/>
        <pt x="142" y="3" on="0"/>
        <pt x="95" y="2" on="1"/>
        <pt x="40" y="0" on="0"/>
        <pt x="39" y="0" on="1"/>
        <pt x="32" y="0" on="1"/>
        <pt x="32" y="28" on="1"/>
        <pt x="32" y="56" on="1"/>
        <pt x="42" y="56" on="1"/>
        <pt x="74" y="56" on="0"/>
        <pt x="100" y="63" on="1"/>
        <pt x="131" y="73" on="0"/>
        <pt x="138" y="89" on="1"/>
        <pt x="139" y="91" on="0"/>
        <pt x="242" y="401" on="1"/>
        <pt x="342" y="705" on="0"/>
        <pt x="344" y="710" on="1"/>
        <pt x="347" y="713" on="0"/>
      </contour>
      <contour>
        <pt x="392" y="395" on="1"/>
        <pt x="346" y="537" on="1"/>
        <pt x="346" y="536" on="0"/>
        <pt x="252" y="254" on="1"/>
        <pt x="252" y="252" on="0"/>
        <pt x="345" y="252" on="1"/>
        <pt x="439" y="252" on="0"/>
        <pt x="439" y="253" on="1"/>
      </contour>
    </TTGlyph>
    <TTGlyph name="B" xMin="23" yMin="0" xMax="654" yMax="683">
      <contour>
        <pt x="23" y="655" on="1"/>
        <pt x="23" y="683" on="1"/>
        <pt x="226" y="683" on="1"/>
        <pt x="430" y="682" on="0"/>
        <pt x="443" y="680" on="1"/>
        <pt x="497" y="671" on="0"/>
        <pt x="540" y="645" on="1"/>
        <pt x="600" y="608" on="0"/>
        <pt x="617" y="552" on="1"/>
        <pt x="623" y="533" on="0"/>
        <pt x="623" y="510" on="1"/>
        <pt x="623" y="492" on="0"/>
        <pt x="621" y="483" on="1"/>
        <pt x="614" y="457" on="0"/>
        <pt x="597" y="433" on="1"/>
        <pt x="559" y="383" on="0"/>
        <pt x="482" y="360" on="1"/>
        <pt x="473" y="359" on="0"/>
        <pt x="473" y="357" on="1"/>
        <pt x="482" y="357" on="0"/>
        <pt x="515" y="347" on="1"/>
        <pt x="571" y="328" on="0"/>
        <pt x="605" y="293" on="1"/>
        <pt x="640" y="258" on="0"/>
        <pt x="650" y="212" on="1"/>
        <pt x="654" y="184" on="0"/>
        <pt x="649" y="157" on="1"/>
        <pt x="634" y="81" on="0"/>
        <pt x="560" y="36" on="1"/>
        <pt x="524" y="12" on="0"/>
        <pt x="469" y="3" on="1"/>
        <pt x="456" y="1" on="1"/>
        <pt x="239" y="0" on="1"/>
        <pt x="23" y="0" on="1"/>
        <pt x="23" y="28" on="1"/>
        <pt x="23" y="56" on="1"/>
        <pt x="51" y="56" on="1"/>
        <pt x="121" y="56" on="0"/>
        <pt x="125" y="63" on="1"/>
        <pt x="125" y="620" on="1"/>
        <pt x="121" y="627" on="0"/>
        <pt x="51" y="627" on="1"/>
        <pt x="23" y="627" on="1"/>
      </contour>
      <contour>
        <pt x="424" y="624" on="1"/>
        <pt x="417" y="626" on="1"/>
        <pt x="336" y="627" on="1"/>
        <pt x="245" y="627" on="0"/>
        <pt x="239" y="624" on="1"/>
        <pt x="235" y="621" on="0"/>
        <pt x="234" y="600" on="1"/>
        <pt x="234" y="583" on="0"/>
        <pt x="234" y="499" on="1"/>
        <pt x="234" y="379" on="1"/>
        <pt x="310" y="379" on="1"/>
        <pt x="388" y="379" on="0"/>
        <pt x="395" y="381" on="1"/>
        <pt x="457" y="392" on="0"/>
        <pt x="486" y="449" on="1"/>
        <pt x="491" y="458" on="0"/>
        <pt x="494" y="467" on="1"/>
        <pt x="501" y="488" on="0"/>
        <pt x="501" y="510" on="1"/>
        <pt x="501" y="555" on="0"/>
        <pt x="476" y="587" on="1"/>
        <pt x="457" y="615" on="0"/>
      </contour>
      <contour>
        <pt x="437" y="329" on="1"/>
        <pt x="429" y="331" on="0"/>
        <pt x="331" y="332" on="1"/>
        <pt x="234" y="332" on="1"/>
        <pt x="234" y="198" on="1"/>
        <pt x="234" y="64" on="0"/>
        <pt x="236" y="62" on="1"/>
        <pt x="239" y="57" on="0"/>
        <pt x="268" y="57" on="1"/>
        <pt x="259" y="57" on="0"/>
        <pt x="332" y="57" on="1"/>
        <pt x="424" y="57" on="0"/>
        <pt x="435" y="60" on="1"/>
        <pt x="436" y="61" on="0"/>
        <pt x="440" y="62" on="1"/>
        <pt x="497" y="82" on="0"/>
        <pt x="518" y="139" on="1"/>
        <pt x="522" y="150" on="0"/>
        <pt x="524" y="162" on="1"/>
        <pt x="535" y="216" on="0"/>
        <pt x="509" y="266" on="1"/>
        <pt x="507" y="270" on="0"/>
        <pt x="504" y="274" on="1"/>
        <pt x="478" y="318" on="0"/>
      </contour>
    </TTGlyph>
    <TTGlyph name="C" xMin="26" yMin="-29" xMax="666" yMax="706">
      <contour>
        <pt x="376" y="704" on="1"/>
        <pt x="402" y="706" on="0"/>
        <pt x="427" y="704" on="1"/>
        <pt x="510" y="696" on="0"/>
        <pt x="568" y="636" on="1"/>
        <pt x="576" y="629" on="0"/>
        <pt x="577" y="628" on="1"/>
        <pt x="608" y="666" on="1"/>
        <pt x="636" y="699" on="0"/>
        <pt x="641" y="704" on="1"/>
        <pt x="642" y="705" on="0"/>
        <pt x="652" y="705" on="1"/>
        <pt x="660" y="705" on="0"/>
        <pt x="663" y="702" on="1"/>
        <pt x="666" y="699" on="1"/>
        <pt x="666" y="557" on="1"/>
        <pt x="666" y="416" on="1"/>
        <pt x="663" y="413" on="1"/>
        <pt x="660" y="410" on="1"/>
        <pt x="638" y="410" on="1"/>
        <pt x="614" y="410" on="0"/>
        <pt x="612" y="414" on="1"/>
        <pt x="611" y="416" on="0"/>
        <pt x="608" y="432" on="1"/>
        <pt x="591" y="565" on="0"/>
        <pt x="516" y="621" on="1"/>
        <pt x="489" y="640" on="0"/>
        <pt x="459" y="646" on="1"/>
        <pt x="443" y="650" on="0"/>
        <pt x="411" y="648" on="1"/>
        <pt x="290" y="637" on="0"/>
        <pt x="230" y="546" on="1"/>
        <pt x="194" y="493" on="0"/>
        <pt x="185" y="396" on="1"/>
        <pt x="181" y="364" on="0"/>
        <pt x="184" y="299" on="1"/>
        <pt x="185" y="291" on="0"/>
        <pt x="185" y="287" on="1"/>
        <pt x="192" y="206" on="0"/>
        <pt x="218" y="157" on="1"/>
        <pt x="264" y="67" on="0"/>
        <pt x="369" y="42" on="1"/>
        <pt x="376" y="40" on="0"/>
        <pt x="383" y="39" on="1"/>
        <pt x="476" y="22" on="0"/>
        <pt x="540" y="74" on="1"/>
        <pt x="608" y="132" on="0"/>
        <pt x="616" y="233" on="1"/>
        <pt x="616" y="236" on="0"/>
        <pt x="616" y="240" on="1"/>
        <pt x="616" y="255" on="0"/>
        <pt x="619" y="257" on="1"/>
        <pt x="622" y="260" on="1"/>
        <pt x="641" y="260" on="1"/>
        <pt x="660" y="260" on="1"/>
        <pt x="663" y="257" on="1"/>
        <pt x="666" y="254" on="0"/>
        <pt x="666" y="246" on="1"/>
        <pt x="666" y="199" on="0"/>
        <pt x="648" y="152" on="1"/>
        <pt x="639" y="126" on="0"/>
        <pt x="620" y="96" on="1"/>
        <pt x="585" y="43" on="0"/>
        <pt x="536" y="15" on="1"/>
        <pt x="464" y="-29" on="0"/>
        <pt x="378" y="-21" on="1"/>
        <pt x="252" y="-10" on="0"/>
        <pt x="163" y="79" on="1"/>
        <pt x="122" y="120" on="0"/>
        <pt x="96" y="171" on="1"/>
        <pt x="26" y="309" on="0"/>
        <pt x="72" y="455" on="1"/>
        <pt x="82" y="484" on="0"/>
        <pt x="96" y="512" on="1"/>
        <pt x="155" y="629" on="0"/>
        <pt x="274" y="679" on="1"/>
        <pt x="297" y="689" on="0"/>
        <pt x="322" y="695" on="1"/>
        <pt x="351" y="702" on="0"/>
      </contour>
    </TTGlyph>
    <TTGlyph name="D" xMin="22" yMin="0" xMax="710" yMax="683">
      <contour>
        <pt x="22" y="655" on="1"/>
        <pt x="22" y="683" on="1"/>
        <pt x="225" y="683" on="1"/>
        <pt x="434" y="682" on="0"/>
        <pt x="449" y="679" on="1"/>
        <pt x="461" y="676" on="1"/>
        <pt x="554" y="656" on="0"/>
        <pt x="621" y="578" on="1"/>
        <pt x="691" y="496" on="0"/>
        <pt x="706" y="379" on="1"/>
        <pt x="710" y="346" on="0"/>
        <pt x="707" y="304" on="1"/>
        <pt x="706" y="300" on="0"/>
        <pt x="706" y="298" on="1"/>
        <pt x="692" y="174" on="0"/>
        <pt x="612" y="92" on="1"/>
        <pt x="542" y="19" on="0"/>
        <pt x="442" y="3" on="1"/>
        <pt x="429" y="1" on="0"/>
        <pt x="225" y="0" on="1"/>
        <pt x="22" y="0" on="1"/>
        <pt x="22" y="28" on="1"/>
        <pt x="22" y="56" on="1"/>
        <pt x="50" y="56" on="1"/>
        <pt x="120" y="56" on="0"/>
        <pt x="124" y="63" on="1"/>
        <pt x="124" y="620" on="1"/>
        <pt x="120" y="627" on="0"/>
        <pt x="50" y="627" on="1"/>
        <pt x="22" y="627" on="1"/>
      </contour>
      <contour>
        <pt x="405" y="625" on="1"/>
        <pt x="398" y="626" on="0"/>
        <pt x="326" y="627" on="1"/>
        <pt x="250" y="626" on="1"/>
        <pt x="240" y="625" on="0"/>
        <pt x="238" y="621" on="1"/>
        <pt x="236" y="619" on="0"/>
        <pt x="236" y="341" on="1"/>
        <pt x="236" y="64" on="1"/>
        <pt x="238" y="62" on="1"/>
        <pt x="242" y="57" on="0"/>
        <pt x="282" y="57" on="1"/>
        <pt x="292" y="57" on="0"/>
        <pt x="321" y="57" on="1"/>
        <pt x="402" y="57" on="0"/>
        <pt x="425" y="62" on="1"/>
        <pt x="427" y="63" on="0"/>
        <pt x="431" y="64" on="1"/>
        <pt x="486" y="77" on="0"/>
        <pt x="523" y="116" on="1"/>
        <pt x="572" y="167" on="0"/>
        <pt x="581" y="269" on="1"/>
        <pt x="584" y="308" on="0"/>
        <pt x="582" y="381" on="1"/>
        <pt x="581" y="431" on="0"/>
        <pt x="572" y="467" on="1"/>
        <pt x="546" y="584" on="0"/>
        <pt x="436" y="618" on="1"/>
        <pt x="421" y="622" on="0"/>
      </contour>
    </TTGlyph>
    <TTGlyph name="E" xMin="22" yMin="0" xMax="652" yMax="680">
      <contour>
        <pt x="22" y="652" on="1"/>
        <pt x="22" y="680" on="1"/>
        <pt x="309" y="680" on="1"/>
        <pt x="597" y="680" on="1"/>
        <pt x="597" y="676" on="1"/>
        <pt x="598" y="673" on="0"/>
        <pt x="624" y="437" on="0"/>
        <pt x="625" y="434" on="1"/>
        <pt x="625" y="430" on="1"/>
        <pt x="600" y="430" on="1"/>
        <pt x="575" y="430" on="1"/>
        <pt x="575" y="434" on="1"/>
        <pt x="574" y="437" on="0"/>
        <pt x="572" y="456" on="1"/>
        <pt x="562" y="536" on="0"/>
        <pt x="539" y="569" on="1"/>
        <pt x="528" y="587" on="0"/>
        <pt x="507" y="600" on="1"/>
        <pt x="482" y="615" on="0"/>
        <pt x="452" y="619" on="1"/>
        <pt x="423" y="624" on="0"/>
        <pt x="336" y="624" on="1"/>
        <pt x="246" y="624" on="0"/>
        <pt x="241" y="618" on="1"/>
        <pt x="239" y="616" on="0"/>
        <pt x="239" y="498" on="1"/>
        <pt x="239" y="381" on="1"/>
        <pt x="288" y="381" on="1"/>
        <pt x="343" y="383" on="0"/>
        <pt x="344" y="383" on="1"/>
        <pt x="386" y="390" on="0"/>
        <pt x="399" y="416" on="1"/>
        <pt x="410" y="435" on="0"/>
        <pt x="411" y="477" on="1"/>
        <pt x="411" y="498" on="1"/>
        <pt x="436" y="498" on="1"/>
        <pt x="461" y="498" on="1"/>
        <pt x="461" y="353" on="1"/>
        <pt x="461" y="208" on="1"/>
        <pt x="436" y="208" on="1"/>
        <pt x="411" y="208" on="1"/>
        <pt x="411" y="229" on="1"/>
        <pt x="410" y="271" on="0"/>
        <pt x="399" y="290" on="1"/>
        <pt x="386" y="316" on="0"/>
        <pt x="344" y="323" on="1"/>
        <pt x="343" y="323" on="0"/>
        <pt x="288" y="325" on="1"/>
        <pt x="239" y="325" on="1"/>
        <pt x="239" y="195" on="1"/>
        <pt x="239" y="64" on="0"/>
        <pt x="241" y="62" on="1"/>
        <pt x="245" y="57" on="0"/>
        <pt x="275" y="57" on="1"/>
        <pt x="288" y="56" on="0"/>
        <pt x="337" y="57" on="1"/>
        <pt x="423" y="57" on="0"/>
        <pt x="437" y="58" on="1"/>
        <pt x="506" y="67" on="0"/>
        <pt x="540" y="99" on="1"/>
        <pt x="579" y="135" on="0"/>
        <pt x="598" y="257" on="1"/>
        <pt x="602" y="280" on="1"/>
        <pt x="602" y="283" on="1"/>
        <pt x="627" y="283" on="1"/>
        <pt x="652" y="283" on="1"/>
        <pt x="652" y="280" on="1"/>
        <pt x="651" y="279" on="0"/>
        <pt x="611" y="5" on="0"/>
        <pt x="610" y="3" on="1"/>
        <pt x="610" y="0" on="1"/>
        <pt x="316" y="0" on="1"/>
        <pt x="22" y="0" on="1"/>
        <pt x="22" y="28" on="1"/>
        <pt x="22" y="56" on="1"/>
        <pt x="50" y="56" on="1"/>
        <pt x="120" y="56" on="0"/>
        <pt x="124" y="63" on="1"/>
        <pt x="124" y="617" on="1"/>
        <pt x="120" y="624" on="0"/>
        <pt x="50" y="624" on="1"/>
        <pt x="22" y="624" on="1"/>
      </contour>
    </TTGlyph>
    <TTGlyph name="F" xMin="22" yMin="0" xMax="610" yMax="680">
      <contour>
        <pt x="22" y="652" on="1"/>
        <pt x="22" y="680" on="1"/>
        <pt x="302" y="680" on="1"/>
        <pt x="582" y="680" on="1"/>
        <pt x="582" y="676" on="1"/>
        <pt x="583" y="673" on="0"/>
        <pt x="609" y="437" on="0"/>
        <pt x="610" y="434" on="1"/>
        <pt x="610" y="430" on="1"/>
        <pt x="585" y="430" on="1"/>
        <pt x="560" y="430" on="1"/>
        <pt x="560" y="434" on="1"/>
        <pt x="559" y="437" on="0"/>
        <pt x="557" y="456" on="1"/>
        <pt x="544" y="561" on="0"/>
        <pt x="504" y="593" on="1"/>
        <pt x="489" y="606" on="0"/>
        <pt x="466" y="613" on="1"/>
        <pt x="435" y="624" on="0"/>
        <pt x="349" y="624" on="1"/>
        <pt x="337" y="624" on="0"/>
        <pt x="320" y="624" on="1"/>
        <pt x="246" y="623" on="0"/>
        <pt x="241" y="618" on="1"/>
        <pt x="239" y="616" on="0"/>
        <pt x="239" y="492" on="1"/>
        <pt x="239" y="368" on="1"/>
        <pt x="286" y="368" on="1"/>
        <pt x="337" y="369" on="0"/>
        <pt x="342" y="370" on="1"/>
        <pt x="381" y="377" on="0"/>
        <pt x="394" y="403" on="1"/>
        <pt x="404" y="424" on="0"/>
        <pt x="405" y="464" on="1"/>
        <pt x="405" y="485" on="1"/>
        <pt x="430" y="485" on="1"/>
        <pt x="455" y="485" on="1"/>
        <pt x="455" y="340" on="1"/>
        <pt x="455" y="195" on="1"/>
        <pt x="430" y="195" on="1"/>
        <pt x="405" y="195" on="1"/>
        <pt x="405" y="216" on="1"/>
        <pt x="404" y="256" on="0"/>
        <pt x="394" y="277" on="1"/>
        <pt x="381" y="303" on="0"/>
        <pt x="342" y="310" on="1"/>
        <pt x="337" y="311" on="0"/>
        <pt x="286" y="312" on="1"/>
        <pt x="239" y="312" on="1"/>
        <pt x="239" y="188" on="1"/>
        <pt x="239" y="64" on="0"/>
        <pt x="241" y="63" on="1"/>
        <pt x="247" y="57" on="0"/>
        <pt x="317" y="56" on="1"/>
        <pt x="367" y="56" on="1"/>
        <pt x="367" y="28" on="1"/>
        <pt x="367" y="0" on="1"/>
        <pt x="355" y="0" on="1"/>
        <pt x="356" y="0" on="0"/>
        <pt x="263" y="2" on="1"/>
        <pt x="183" y="3" on="0"/>
        <pt x="113" y="2" on="1"/>
        <pt x="33" y="0" on="1"/>
        <pt x="22" y="0" on="1"/>
        <pt x="22" y="28" on="1"/>
        <pt x="22" y="56" on="1"/>
        <pt x="50" y="56" on="1"/>
        <pt x="120" y="56" on="0"/>
        <pt x="124" y="63" on="1"/>
        <pt x="124" y="617" on="1"/>
        <pt x="120" y="624" on="0"/>
        <pt x="50" y="624" on="1"/>
        <pt x="22" y="624" on="1"/>
      </contour>
    </TTGlyph>
    <TTGlyph name="G" xMin="26" yMin="-38" xMax="735" yMax="706">
      <contour>
        <pt x="376" y="704" on="1"/>
        <pt x="402" y="706" on="0"/>
        <pt x="427" y="704" on="1"/>
        <pt x="510" y="696" on="0"/>
        <pt x="568" y="636" on="1"/>
        <pt x="576" y="629" on="0"/>
        <pt x="577" y="628" on="1"/>
        <pt x="608" y="666" on="1"/>
        <pt x="636" y="699" on="0"/>
        <pt x="641" y="704" on="1"/>
        <pt x="642" y="705" on="0"/>
        <pt x="652" y="705" on="1"/>
        <pt x="660" y="705" on="0"/>
        <pt x="663" y="702" on="1"/>
        <pt x="666" y="699" on="1"/>
        <pt x="666" y="557" on="1"/>
        <pt x="666" y="416" on="1"/>
        <pt x="663" y="413" on="1"/>
        <pt x="660" y="410" on="1"/>
        <pt x="638" y="410" on="1"/>
        <pt x="614" y="410" on="0"/>
        <pt x="612" y="414" on="1"/>
        <pt x="611" y="416" on="0"/>
        <pt x="608" y="432" on="1"/>
        <pt x="591" y="568" on="0"/>
        <pt x="512" y="624" on="1"/>
        <pt x="487" y="641" on="0"/>
        <pt x="458" y="647" on="1"/>
        <pt x="437" y="651" on="0"/>
        <pt x="400" y="647" on="1"/>
        <pt x="312" y="635" on="0"/>
        <pt x="257" y="580" on="1"/>
        <pt x="208" y="531" on="0"/>
        <pt x="192" y="452" on="1"/>
        <pt x="184" y="411" on="0"/>
        <pt x="184" y="342" on="1"/>
        <pt x="184" y="272" on="0"/>
        <pt x="192" y="232" on="1"/>
        <pt x="214" y="126" on="0"/>
        <pt x="292" y="75" on="1"/>
        <pt x="348" y="37" on="0"/>
        <pt x="424" y="34" on="1"/>
        <pt x="501" y="31" on="0"/>
        <pt x="536" y="77" on="1"/>
        <pt x="545" y="88" on="0"/>
        <pt x="549" y="100" on="1"/>
        <pt x="551" y="108" on="1"/>
        <pt x="552" y="158" on="1"/>
        <pt x="552" y="209" on="1"/>
        <pt x="550" y="211" on="1"/>
        <pt x="548" y="212" on="0"/>
        <pt x="542" y="214" on="1"/>
        <pt x="530" y="217" on="0"/>
        <pt x="460" y="217" on="1"/>
        <pt x="427" y="217" on="1"/>
        <pt x="427" y="245" on="1"/>
        <pt x="427" y="273" on="1"/>
        <pt x="439" y="273" on="1"/>
        <pt x="530" y="271" on="1"/>
        <pt x="609" y="270" on="0"/>
        <pt x="664" y="271" on="1"/>
        <pt x="727" y="273" on="1"/>
        <pt x="735" y="273" on="1"/>
        <pt x="735" y="245" on="1"/>
        <pt x="735" y="217" on="1"/>
        <pt x="708" y="217" on="1"/>
        <pt x="674" y="216" on="0"/>
        <pt x="669" y="211" on="1"/>
        <pt x="666" y="209" on="1"/>
        <pt x="666" y="107" on="1"/>
        <pt x="666" y="6" on="1"/>
        <pt x="663" y="3" on="1"/>
        <pt x="658" y="-2" on="0"/>
        <pt x="645" y="5" on="1"/>
        <pt x="609" y="27" on="0"/>
        <pt x="591" y="43" on="1"/>
        <pt x="584" y="50" on="1"/>
        <pt x="579" y="44" on="1"/>
        <pt x="563" y="23" on="0"/>
        <pt x="533" y="8" on="1"/>
        <pt x="446" y="-38" on="0"/>
        <pt x="333" y="-14" on="1"/>
        <pt x="327" y="-13" on="0"/>
        <pt x="322" y="-12" on="1"/>
        <pt x="231" y="12" on="0"/>
        <pt x="163" y="79" on="1"/>
        <pt x="122" y="120" on="0"/>
        <pt x="96" y="171" on="1"/>
        <pt x="26" y="309" on="0"/>
        <pt x="72" y="455" on="1"/>
        <pt x="82" y="484" on="0"/>
        <pt x="96" y="512" on="1"/>
        <pt x="155" y="629" on="0"/>
        <pt x="274" y="679" on="1"/>
        <pt x="297" y="689" on="0"/>
        <pt x="322" y="695" on="1"/>
        <pt x="351" y="702" on="0"/>
      </contour>
    </TTGlyph>
    <TTGlyph name="H" xMin="22" yMin="0" xMax="727" yMax="683">
      <contour>
        <pt x="22" y="655" on="1"/>
        <pt x="22" y="683" on="1"/>
        <pt x="33" y="683" on="1"/>
        <pt x="113" y="681" on="1"/>
        <pt x="182" y="680" on="0"/>
        <pt x="251" y="681" on="1"/>
        <pt x="331" y="683" on="1"/>
        <pt x="342" y="683" on="1"/>
        <pt x="342" y="655" on="1"/>
        <pt x="342" y="627" on="1"/>
        <pt x="314" y="627" on="1"/>
        <pt x="244" y="627" on="0"/>
        <pt x="240" y="620" on="1"/>
        <pt x="239" y="619" on="0"/>
        <pt x="239" y="501" on="1"/>
        <pt x="239" y="383" on="1"/>
        <pt x="375" y="383" on="1"/>
        <pt x="510" y="383" on="1"/>
        <pt x="510" y="501" on="1"/>
        <pt x="510" y="619" on="0"/>
        <pt x="509" y="620" on="1"/>
        <pt x="505" y="627" on="0"/>
        <pt x="435" y="627" on="1"/>
        <pt x="407" y="627" on="1"/>
        <pt x="407" y="655" on="1"/>
        <pt x="407" y="683" on="1"/>
        <pt x="418" y="683" on="1"/>
        <pt x="498" y="681" on="1"/>
        <pt x="567" y="680" on="0"/>
        <pt x="636" y="681" on="1"/>
        <pt x="716" y="683" on="1"/>
        <pt x="727" y="683" on="1"/>
        <pt x="727" y="655" on="1"/>
        <pt x="727" y="627" on="1"/>
        <pt x="699" y="627" on="1"/>
        <pt x="629" y="627" on="0"/>
        <pt x="625" y="620" on="1"/>
        <pt x="625" y="63" on="1"/>
        <pt x="629" y="56" on="0"/>
        <pt x="699" y="56" on="1"/>
        <pt x="727" y="56" on="1"/>
        <pt x="727" y="28" on="1"/>
        <pt x="727" y="0" on="1"/>
        <pt x="716" y="0" on="1"/>
        <pt x="636" y="2" on="1"/>
        <pt x="567" y="3" on="0"/>
        <pt x="498" y="2" on="1"/>
        <pt x="418" y="0" on="1"/>
        <pt x="407" y="0" on="1"/>
        <pt x="407" y="28" on="1"/>
        <pt x="407" y="56" on="1"/>
        <pt x="435" y="56" on="1"/>
        <pt x="505" y="56" on="0"/>
        <pt x="509" y="63" on="1"/>
        <pt x="510" y="64" on="0"/>
        <pt x="510" y="196" on="1"/>
        <pt x="510" y="327" on="1"/>
        <pt x="375" y="327" on="1"/>
        <pt x="239" y="327" on="1"/>
        <pt x="239" y="196" on="1"/>
        <pt x="239" y="64" on="0"/>
        <pt x="240" y="63" on="1"/>
        <pt x="244" y="56" on="0"/>
        <pt x="314" y="56" on="1"/>
        <pt x="342" y="56" on="1"/>
        <pt x="342" y="28" on="1"/>
        <pt x="342" y="0" on="1"/>
        <pt x="331" y="0" on="1"/>
        <pt x="251" y="2" on="1"/>
        <pt x="182" y="3" on="0"/>
        <pt x="113" y="2" on="1"/>
        <pt x="33" y="0" on="1"/>
        <pt x="22" y="0" on="1"/>
        <pt x="22" y="28" on="1"/>
        <pt x="22" y="56" on="1"/>
        <pt x="50" y="56" on="1"/>
        <pt x="120" y="56" on="0"/>
        <pt x="124" y="63" on="1"/>
        <pt x="124" y="620" on="1"/>
        <pt x="120" y="627" on="0"/>
        <pt x="50" y="627" on="1"/>
        <pt x="22" y="627" on="1"/>
      </contour>
    </TTGlyph>
    <TTGlyph name="I" xMin="16" yMin="0" xMax="344" yMax="683">
      <contour>
        <pt x="16" y="655" on="1"/>
        <pt x="16" y="683" on="1"/>
        <pt x="27" y="683" on="1"/>
        <pt x="109" y="681" on="1"/>
        <pt x="180" y="680" on="0"/>
        <pt x="251" y="681" on="1"/>
        <pt x="333" y="683" on="1"/>
        <pt x="344" y="683" on="1"/>
        <pt x="344" y="655" on="1"/>
        <pt x="344" y="627" on="1"/>
        <pt x="315" y="627" on="1"/>
        <pt x="258" y="627" on="0"/>
        <pt x="246" y="624" on="1"/>
        <pt x="239" y="621" on="1"/>
        <pt x="237" y="619" on="1"/>
        <pt x="237" y="342" on="1"/>
        <pt x="237" y="64" on="1"/>
        <pt x="239" y="62" on="1"/>
        <pt x="246" y="59" on="1"/>
        <pt x="258" y="56" on="0"/>
        <pt x="315" y="56" on="1"/>
        <pt x="344" y="56" on="1"/>
        <pt x="344" y="28" on="1"/>
        <pt x="344" y="0" on="1"/>
        <pt x="333" y="0" on="1"/>
        <pt x="251" y="2" on="1"/>
        <pt x="180" y="3" on="0"/>
        <pt x="109" y="2" on="1"/>
        <pt x="27" y="0" on="1"/>
        <pt x="16" y="0" on="1"/>
        <pt x="16" y="28" on="1"/>
        <pt x="16" y="56" on="1"/>
        <pt x="45" y="56" on="1"/>
        <pt x="102" y="56" on="0"/>
        <pt x="114" y="59" on="1"/>
        <pt x="121" y="62" on="1"/>
        <pt x="123" y="64" on="1"/>
        <pt x="123" y="342" on="1"/>
        <pt x="123" y="619" on="1"/>
        <pt x="121" y="621" on="1"/>
        <pt x="114" y="624" on="1"/>
        <pt x="102" y="627" on="0"/>
        <pt x="45" y="627" on="1"/>
        <pt x="16" y="627" on="1"/>
      </contour>
    </TTGlyph>
    <TTGlyph name="J" xMin="16" yMin="-37" xMax="465" yMax="683">
      <contour>
        <pt x="144" y="655" on="1"/>
        <pt x="144" y="683" on="1"/>
        <pt x="156" y="683" on="1"/>
        <pt x="155" y="683" on="0"/>
        <pt x="251" y="681" on="1"/>
        <pt x="333" y="680" on="0"/>
        <pt x="390" y="681" on="1"/>
        <pt x="456" y="683" on="1"/>
        <pt x="465" y="683" on="1"/>
        <pt x="465" y="655" on="1"/>
        <pt x="465" y="627" on="1"/>
        <pt x="444" y="627" on="1"/>
        <pt x="390" y="627" on="0"/>
        <pt x="389" y="619" on="1"/>
        <pt x="388" y="618" on="0"/>
        <pt x="388" y="370" on="1"/>
        <pt x="387" y="124" on="1"/>
        <pt x="385" y="115" on="1"/>
        <pt x="365" y="37" on="0"/>
        <pt x="286" y="-1" on="1"/>
        <pt x="209" y="-37" on="0"/>
        <pt x="127" y="-13" on="1"/>
        <pt x="110" y="-8" on="0"/>
        <pt x="95" y="-1" on="1"/>
        <pt x="69" y="12" on="0"/>
        <pt x="52" y="29" on="1"/>
        <pt x="26" y="55" on="0"/>
        <pt x="18" y="86" on="1"/>
        <pt x="16" y="94" on="0"/>
        <pt x="16" y="112" on="1"/>
        <pt x="16" y="129" on="0"/>
        <pt x="18" y="137" on="1"/>
        <pt x="23" y="147" on="0"/>
        <pt x="24" y="150" on="1"/>
        <pt x="35" y="169" on="0"/>
        <pt x="61" y="179" on="1"/>
        <pt x="68" y="181" on="0"/>
        <pt x="84" y="181" on="1"/>
        <pt x="99" y="181" on="0"/>
        <pt x="107" y="179" on="1"/>
        <pt x="125" y="172" on="0"/>
        <pt x="134" y="161" on="1"/>
        <pt x="150" y="145" on="0"/>
        <pt x="152" y="117" on="1"/>
        <pt x="152" y="96" on="0"/>
        <pt x="145" y="82" on="1"/>
        <pt x="135" y="63" on="0"/>
        <pt x="116" y="53" on="1"/>
        <pt x="108" y="49" on="1"/>
        <pt x="111" y="43" on="0"/>
        <pt x="130" y="37" on="1"/>
        <pt x="166" y="21" on="0"/>
        <pt x="196" y="26" on="1"/>
        <pt x="239" y="31" on="0"/>
        <pt x="262" y="79" on="1"/>
        <pt x="271" y="97" on="0"/>
        <pt x="275" y="117" on="1"/>
        <pt x="276" y="123" on="0"/>
        <pt x="277" y="372" on="1"/>
        <pt x="277" y="619" on="0"/>
        <pt x="275" y="620" on="1"/>
        <pt x="273" y="622" on="0"/>
        <pt x="267" y="624" on="1"/>
        <pt x="243" y="627" on="0"/>
        <pt x="179" y="627" on="1"/>
        <pt x="144" y="627" on="1"/>
      </contour>
    </TTGlyph>
    <TTGlyph name="K" xMin="22" yMin="0" xMax="736" yMax="683">
      <contour>
        <pt x="22" y="655" on="1"/>
        <pt x="22" y="683" on="1"/>
        <pt x="33" y="683" on="1"/>
        <pt x="113" y="681" on="1"/>
        <pt x="182" y="680" on="0"/>
        <pt x="251" y="681" on="1"/>
        <pt x="331" y="683" on="1"/>
        <pt x="342" y="683" on="1"/>
        <pt x="342" y="655" on="1"/>
        <pt x="342" y="627" on="1"/>
        <pt x="314" y="627" on="1"/>
        <pt x="244" y="627" on="0"/>
        <pt x="240" y="620" on="1"/>
        <pt x="239" y="619" on="0"/>
        <pt x="239" y="469" on="1"/>
        <pt x="240" y="320" on="1"/>
        <pt x="375" y="455" on="1"/>
        <pt x="511" y="589" on="0"/>
        <pt x="513" y="593" on="1"/>
        <pt x="518" y="603" on="0"/>
        <pt x="513" y="611" on="1"/>
        <pt x="507" y="623" on="0"/>
        <pt x="482" y="627" on="1"/>
        <pt x="475" y="627" on="1"/>
        <pt x="475" y="655" on="1"/>
        <pt x="475" y="683" on="1"/>
        <pt x="486" y="683" on="1"/>
        <pt x="562" y="681" on="1"/>
        <pt x="628" y="680" on="0"/>
        <pt x="669" y="681" on="1"/>
        <pt x="716" y="683" on="1"/>
        <pt x="722" y="683" on="1"/>
        <pt x="722" y="655" on="1"/>
        <pt x="722" y="627" on="1"/>
        <pt x="704" y="627" on="1"/>
        <pt x="619" y="624" on="0"/>
        <pt x="583" y="591" on="1"/>
        <pt x="492" y="501" on="1"/>
        <pt x="410" y="419" on="1"/>
        <pt x="519" y="252" on="1"/>
        <pt x="627" y="86" on="0"/>
        <pt x="636" y="77" on="1"/>
        <pt x="649" y="64" on="0"/>
        <pt x="667" y="60" on="1"/>
        <pt x="691" y="56" on="0"/>
        <pt x="721" y="56" on="1"/>
        <pt x="736" y="56" on="1"/>
        <pt x="736" y="28" on="1"/>
        <pt x="736" y="0" on="1"/>
        <pt x="727" y="0" on="1"/>
        <pt x="666" y="2" on="1"/>
        <pt x="614" y="3" on="0"/>
        <pt x="542" y="2" on="1"/>
        <pt x="460" y="0" on="1"/>
        <pt x="449" y="0" on="1"/>
        <pt x="449" y="28" on="1"/>
        <pt x="449" y="56" on="1"/>
        <pt x="462" y="56" on="1"/>
        <pt x="478" y="58" on="0"/>
        <pt x="482" y="58" on="1"/>
        <pt x="496" y="63" on="0"/>
        <pt x="499" y="69" on="1"/>
        <pt x="504" y="77" on="0"/>
        <pt x="499" y="87" on="1"/>
        <pt x="498" y="92" on="0"/>
        <pt x="415" y="218" on="1"/>
        <pt x="334" y="343" on="1"/>
        <pt x="286" y="296" on="1"/>
        <pt x="239" y="250" on="1"/>
        <pt x="239" y="157" on="1"/>
        <pt x="239" y="64" on="0"/>
        <pt x="240" y="63" on="1"/>
        <pt x="244" y="56" on="0"/>
        <pt x="314" y="56" on="1"/>
        <pt x="342" y="56" on="1"/>
        <pt x="342" y="28" on="1"/>
        <pt x="342" y="0" on="1"/>
        <pt x="331" y="0" on="1"/>
        <pt x="251" y="2" on="1"/>
        <pt x="182" y="3" on="0"/>
        <pt x="113" y="2" on="1"/>
        <pt x="33" y="0" on="1"/>
        <pt x="22" y="0" on="1"/>
        <pt x="22" y="28" on="1"/>
        <pt x="22" y="56" on="1"/>
        <pt x="50" y="56" on="1"/>
        <pt x="120" y="56" on="0"/>
        <pt x="124" y="63" on="1"/>
        <pt x="124" y="620" on="1"/>
        <pt x="120" y="627" on="0"/>
        <pt x="50" y="627" on="1"/>
        <pt x="22" y="627" on="1"/>
      </contour>
    </TTGlyph>
    <TTGlyph name="L" xMin="22" yMin="0" xMax="582" yMax="683">
      <contour>
        <pt x="22" y="655" on="1"/>
        <pt x="22" y="683" on="1"/>
        <pt x="33" y="683" on="1"/>
        <pt x="113" y="681" on="1"/>
        <pt x="183" y="680" on="0"/>
        <pt x="263" y="681" on="1"/>
        <pt x="356" y="683" on="0"/>
        <pt x="355" y="683" on="1"/>
        <pt x="367" y="683" on="1"/>
        <pt x="367" y="655" on="1"/>
        <pt x="367" y="627" on="1"/>
        <pt x="317" y="627" on="1"/>
        <pt x="247" y="626" on="0"/>
        <pt x="241" y="620" on="1"/>
        <pt x="239" y="619" on="0"/>
        <pt x="239" y="341" on="1"/>
        <pt x="239" y="64" on="1"/>
        <pt x="241" y="62" on="1"/>
        <pt x="242" y="61" on="0"/>
        <pt x="247" y="58" on="1"/>
        <pt x="258" y="54" on="0"/>
        <pt x="353" y="56" on="1"/>
        <pt x="363" y="57" on="0"/>
        <pt x="367" y="57" on="1"/>
        <pt x="464" y="66" on="0"/>
        <pt x="499" y="136" on="1"/>
        <pt x="520" y="175" on="0"/>
        <pt x="529" y="254" on="1"/>
        <pt x="531" y="275" on="0"/>
        <pt x="532" y="278" on="1"/>
        <pt x="532" y="283" on="1"/>
        <pt x="557" y="283" on="1"/>
        <pt x="582" y="283" on="1"/>
        <pt x="582" y="278" on="1"/>
        <pt x="581" y="276" on="0"/>
        <pt x="568" y="142" on="1"/>
        <pt x="555" y="7" on="0"/>
        <pt x="554" y="5" on="1"/>
        <pt x="554" y="0" on="1"/>
        <pt x="288" y="0" on="1"/>
        <pt x="22" y="0" on="1"/>
        <pt x="22" y="28" on="1"/>
        <pt x="22" y="56" on="1"/>
        <pt x="50" y="56" on="1"/>
        <pt x="120" y="56" on="0"/>
        <pt x="124" y="63" on="1"/>
        <pt x="124" y="620" on="1"/>
        <pt x="120" y="627" on="0"/>
        <pt x="50" y="627" on="1"/>
        <pt x="22" y="627" on="1"/>
      </contour>
    </TTGlyph>
    <TTGlyph name="M" xMin="24" yMin="0" xMax="892" yMax="683">
      <contour>
        <pt x="24" y="655" on="1"/>
        <pt x="24" y="683" on="1"/>
        <pt x="137" y="683" on="1"/>
        <pt x="250" y="683" on="0"/>
        <pt x="254" y="680" on="1"/>
        <pt x="259" y="675" on="1"/>
        <pt x="261" y="673" on="0"/>
        <pt x="359" y="406" on="1"/>
        <pt x="458" y="140" on="1"/>
        <pt x="557" y="406" on="1"/>
        <pt x="655" y="674" on="0"/>
        <pt x="658" y="675" on="1"/>
        <pt x="659" y="677" on="0"/>
        <pt x="662" y="680" on="1"/>
        <pt x="666" y="683" on="0"/>
        <pt x="779" y="683" on="1"/>
        <pt x="892" y="683" on="1"/>
        <pt x="892" y="655" on="1"/>
        <pt x="892" y="627" on="1"/>
        <pt x="864" y="627" on="1"/>
        <pt x="794" y="627" on="0"/>
        <pt x="790" y="620" on="1"/>
        <pt x="790" y="63" on="1"/>
        <pt x="794" y="56" on="0"/>
        <pt x="864" y="56" on="1"/>
        <pt x="892" y="56" on="1"/>
        <pt x="892" y="28" on="1"/>
        <pt x="892" y="0" on="1"/>
        <pt x="881" y="0" on="1"/>
        <pt x="803" y="2" on="1"/>
        <pt x="736" y="3" on="0"/>
        <pt x="669" y="2" on="1"/>
        <pt x="591" y="0" on="1"/>
        <pt x="580" y="0" on="1"/>
        <pt x="580" y="28" on="1"/>
        <pt x="580" y="56" on="1"/>
        <pt x="608" y="56" on="1"/>
        <pt x="678" y="56" on="0"/>
        <pt x="682" y="63" on="1"/>
        <pt x="683" y="64" on="0"/>
        <pt x="683" y="342" on="1"/>
        <pt x="683" y="618" on="1"/>
        <pt x="570" y="314" on="1"/>
        <pt x="457" y="9" on="0"/>
        <pt x="456" y="8" on="1"/>
        <pt x="443" y="1" on="0"/>
        <pt x="430" y="1" on="1"/>
        <pt x="409" y="1" on="0"/>
        <pt x="405" y="7" on="1"/>
        <pt x="401" y="11" on="0"/>
        <pt x="293" y="307" on="1"/>
        <pt x="182" y="604" on="0"/>
        <pt x="182" y="607" on="1"/>
        <pt x="181" y="608" on="0"/>
        <pt x="181" y="603" on="1"/>
        <pt x="180" y="589" on="0"/>
        <pt x="180" y="349" on="1"/>
        <pt x="181" y="88" on="1"/>
        <pt x="183" y="83" on="1"/>
        <pt x="197" y="59" on="0"/>
        <pt x="264" y="56" on="1"/>
        <pt x="283" y="56" on="1"/>
        <pt x="283" y="28" on="1"/>
        <pt x="283" y="0" on="1"/>
        <pt x="274" y="0" on="1"/>
        <pt x="209" y="2" on="1"/>
        <pt x="154" y="3" on="0"/>
        <pt x="98" y="2" on="1"/>
        <pt x="33" y="0" on="1"/>
        <pt x="24" y="0" on="1"/>
        <pt x="24" y="28" on="1"/>
        <pt x="24" y="56" on="1"/>
        <pt x="43" y="56" on="1"/>
        <pt x="110" y="59" on="0"/>
        <pt x="124" y="83" on="1"/>
        <pt x="127" y="88" on="1"/>
        <pt x="127" y="353" on="1"/>
        <pt x="127" y="619" on="0"/>
        <pt x="126" y="620" on="1"/>
        <pt x="122" y="627" on="0"/>
        <pt x="52" y="627" on="1"/>
        <pt x="24" y="627" on="1"/>
      </contour>
    </TTGlyph>
    <TTGlyph name="N" xMin="22" yMin="0" xMax="727" yMax="683">
      <contour>
        <pt x="22" y="655" on="1"/>
        <pt x="22" y="683" on="1"/>
        <pt x="131" y="683" on="1"/>
        <pt x="240" y="683" on="0"/>
        <pt x="242" y="682" on="1"/>
        <pt x="243" y="681" on="0"/>
        <pt x="400" y="450" on="1"/>
        <pt x="563" y="208" on="1"/>
        <pt x="571" y="197" on="1"/>
        <pt x="571" y="396" on="1"/>
        <pt x="571" y="596" on="1"/>
        <pt x="568" y="600" on="1"/>
        <pt x="554" y="624" on="0"/>
        <pt x="487" y="627" on="1"/>
        <pt x="468" y="627" on="1"/>
        <pt x="468" y="655" on="1"/>
        <pt x="468" y="683" on="1"/>
        <pt x="477" y="683" on="1"/>
        <pt x="542" y="681" on="1"/>
        <pt x="598" y="680" on="0"/>
        <pt x="653" y="681" on="1"/>
        <pt x="718" y="683" on="1"/>
        <pt x="727" y="683" on="1"/>
        <pt x="727" y="655" on="1"/>
        <pt x="727" y="627" on="1"/>
        <pt x="708" y="627" on="1"/>
        <pt x="641" y="624" on="0"/>
        <pt x="627" y="600" on="1"/>
        <pt x="625" y="596" on="1"/>
        <pt x="624" y="301" on="1"/>
        <pt x="624" y="6" on="1"/>
        <pt x="620" y="3" on="1"/>
        <pt x="617" y="0" on="1"/>
        <pt x="598" y="0" on="1"/>
        <pt x="578" y="0" on="0"/>
        <pt x="576" y="1" on="1"/>
        <pt x="575" y="2" on="0"/>
        <pt x="376" y="296" on="1"/>
        <pt x="179" y="589" on="1"/>
        <pt x="178" y="341" on="1"/>
        <pt x="178" y="90" on="0"/>
        <pt x="179" y="88" on="1"/>
        <pt x="192" y="57" on="0"/>
        <pt x="270" y="56" on="1"/>
        <pt x="281" y="56" on="1"/>
        <pt x="281" y="28" on="1"/>
        <pt x="281" y="0" on="1"/>
        <pt x="272" y="0" on="1"/>
        <pt x="207" y="2" on="1"/>
        <pt x="152" y="3" on="0"/>
        <pt x="96" y="2" on="1"/>
        <pt x="31" y="0" on="1"/>
        <pt x="22" y="0" on="1"/>
        <pt x="22" y="28" on="1"/>
        <pt x="22" y="56" on="1"/>
        <pt x="41" y="56" on="1"/>
        <pt x="108" y="59" on="0"/>
        <pt x="122" y="83" on="1"/>
        <pt x="125" y="88" on="1"/>
        <pt x="125" y="357" on="1"/>
        <pt x="125" y="626" on="1"/>
        <pt x="107" y="626" on="1"/>
        <pt x="97" y="627" on="0"/>
        <pt x="55" y="627" on="1"/>
        <pt x="22" y="627" on="1"/>
      </contour>
    </TTGlyph>
    <TTGlyph name="O" xMin="56" yMin="-24" xMax="724" yMax="715">
      <contour>
        <pt x="362" y="704" on="1"/>
        <pt x="485" y="715" on="0"/>
        <pt x="587" y="633" on="1"/>
        <pt x="609" y="616" on="0"/>
        <pt x="639" y="581" on="1"/>
        <pt x="705" y="499" on="0"/>
        <pt x="720" y="383" on="1"/>
        <pt x="724" y="350" on="0"/>
        <pt x="721" y="305" on="1"/>
        <pt x="720" y="302" on="0"/>
        <pt x="720" y="299" on="1"/>
        <pt x="706" y="181" on="0"/>
        <pt x="636" y="97" on="1"/>
        <pt x="547" y="-8" on="0"/>
        <pt x="418" y="-21" on="1"/>
        <pt x="378" y="-24" on="0"/>
        <pt x="339" y="-18" on="1"/>
        <pt x="212" y="3" on="0"/>
        <pt x="130" y="110" on="1"/>
        <pt x="76" y="182" on="0"/>
        <pt x="61" y="273" on="1"/>
        <pt x="56" y="298" on="0"/>
        <pt x="56" y="340" on="1"/>
        <pt x="56" y="380" on="0"/>
        <pt x="62" y="411" on="1"/>
        <pt x="73" y="477" on="0"/>
        <pt x="105" y="532" on="1"/>
        <pt x="119" y="556" on="0"/>
        <pt x="138" y="581" on="1"/>
        <pt x="169" y="617" on="0"/>
        <pt x="191" y="633" on="1"/>
        <pt x="266" y="695" on="0"/>
      </contour>
      <contour>
        <pt x="417" y="653" on="1"/>
        <pt x="388" y="656" on="0"/>
        <pt x="370" y="654" on="1"/>
        <pt x="279" y="643" on="0"/>
        <pt x="228" y="558" on="1"/>
        <pt x="222" y="548" on="0"/>
        <pt x="217" y="537" on="1"/>
        <pt x="192" y="485" on="0"/>
        <pt x="185" y="408" on="1"/>
        <pt x="181" y="374" on="0"/>
        <pt x="184" y="309" on="1"/>
        <pt x="185" y="301" on="0"/>
        <pt x="185" y="297" on="1"/>
        <pt x="192" y="213" on="0"/>
        <pt x="217" y="156" on="1"/>
        <pt x="261" y="57" on="0"/>
        <pt x="350" y="34" on="1"/>
        <pt x="354" y="33" on="0"/>
        <pt x="359" y="32" on="1"/>
        <pt x="388" y="26" on="0"/>
        <pt x="418" y="32" on="1"/>
        <pt x="509" y="50" on="0"/>
        <pt x="556" y="148" on="1"/>
        <pt x="558" y="152" on="0"/>
        <pt x="560" y="156" on="1"/>
        <pt x="585" y="213" on="0"/>
        <pt x="592" y="297" on="1"/>
        <pt x="596" y="333" on="0"/>
        <pt x="593" y="397" on="1"/>
        <pt x="592" y="404" on="0"/>
        <pt x="592" y="408" on="1"/>
        <pt x="585" y="500" on="0"/>
        <pt x="549" y="558" on="1"/>
        <pt x="501" y="638" on="0"/>
      </contour>
    </TTGlyph>
    <TTGlyph name="P" xMin="22" yMin="0" xMax="626" yMax="683">
      <contour>
        <pt x="22" y="655" on="1"/>
        <pt x="22" y="683" on="1"/>
        <pt x="219" y="683" on="1"/>
        <pt x="416" y="682" on="0"/>
        <pt x="429" y="680" on="1"/>
        <pt x="447" y="677" on="0"/>
        <pt x="468" y="672" on="1"/>
        <pt x="563" y="644" on="0"/>
        <pt x="604" y="566" on="1"/>
        <pt x="623" y="530" on="0"/>
        <pt x="625" y="491" on="1"/>
        <pt x="626" y="450" on="0"/>
        <pt x="608" y="413" on="1"/>
        <pt x="571" y="336" on="0"/>
        <pt x="478" y="305" on="1"/>
        <pt x="466" y="301" on="0"/>
        <pt x="455" y="298" on="1"/>
        <pt x="430" y="292" on="0"/>
        <pt x="372" y="291" on="1"/>
        <pt x="337" y="291" on="0"/>
        <pt x="330" y="291" on="1"/>
        <pt x="239" y="291" on="1"/>
        <pt x="239" y="178" on="1"/>
        <pt x="239" y="64" on="0"/>
        <pt x="240" y="63" on="1"/>
        <pt x="244" y="56" on="0"/>
        <pt x="314" y="56" on="1"/>
        <pt x="342" y="56" on="1"/>
        <pt x="342" y="28" on="1"/>
        <pt x="342" y="0" on="1"/>
        <pt x="331" y="0" on="1"/>
        <pt x="251" y="2" on="1"/>
        <pt x="182" y="3" on="0"/>
        <pt x="113" y="2" on="1"/>
        <pt x="33" y="0" on="1"/>
        <pt x="22" y="0" on="1"/>
        <pt x="22" y="28" on="1"/>
        <pt x="22" y="56" on="1"/>
        <pt x="50" y="56" on="1"/>
        <pt x="120" y="56" on="0"/>
        <pt x="124" y="63" on="1"/>
        <pt x="124" y="620" on="1"/>
        <pt x="120" y="627" on="0"/>
        <pt x="50" y="627" on="1"/>
        <pt x="22" y="627" on="1"/>
      </contour>
      <contour>
        <pt x="399" y="625" on="1"/>
        <pt x="392" y="626" on="0"/>
        <pt x="323" y="627" on="1"/>
        <pt x="247" y="627" on="0"/>
        <pt x="241" y="624" on="1"/>
        <pt x="237" y="622" on="0"/>
        <pt x="236" y="599" on="1"/>
        <pt x="236" y="580" on="0"/>
        <pt x="236" y="480" on="1"/>
        <pt x="236" y="342" on="1"/>
        <pt x="312" y="342" on="1"/>
        <pt x="395" y="343" on="0"/>
        <pt x="416" y="348" on="1"/>
        <pt x="476" y="361" on="0"/>
        <pt x="490" y="410" on="1"/>
        <pt x="496" y="428" on="0"/>
        <pt x="496" y="484" on="1"/>
        <pt x="497" y="533" on="0"/>
        <pt x="492" y="555" on="1"/>
        <pt x="485" y="582" on="0"/>
        <pt x="466" y="598" on="1"/>
        <pt x="442" y="618" on="0"/>
      </contour>
    </TTGlyph>
    <TTGlyph name="Q" xMin="56" yMin="-193" xMax="728" yMax="715">
      <contour>
        <pt x="362" y="704" on="1"/>
        <pt x="485" y="715" on="0"/>
        <pt x="587" y="633" on="1"/>
        <pt x="609" y="616" on="0"/>
        <pt x="639" y="581" on="1"/>
        <pt x="705" y="499" on="0"/>
        <pt x="720" y="383" on="1"/>
        <pt x="724" y="350" on="0"/>
        <pt x="721" y="305" on="1"/>
        <pt x="720" y="302" on="0"/>
        <pt x="720" y="299" on="1"/>
        <pt x="706" y="181" on="0"/>
        <pt x="636" y="97" on="1"/>
        <pt x="595" y="48" on="0"/>
        <pt x="538" y="16" on="1"/>
        <pt x="528" y="10" on="0"/>
        <pt x="527" y="10" on="1"/>
        <pt x="541" y="-16" on="1"/>
        <pt x="567" y="-58" on="0"/>
        <pt x="602" y="-65" on="1"/>
        <pt x="622" y="-69" on="0"/>
        <pt x="645" y="-63" on="1"/>
        <pt x="670" y="-57" on="0"/>
        <pt x="687" y="-42" on="1"/>
        <pt x="703" y="-27" on="0"/>
        <pt x="706" y="-3" on="1"/>
        <pt x="707" y="6" on="0"/>
        <pt x="710" y="8" on="1"/>
        <pt x="717" y="15" on="0"/>
        <pt x="724" y="8" on="1"/>
        <pt x="728" y="5" on="1"/>
        <pt x="727" y="-13" on="1"/>
        <pt x="727" y="-37" on="0"/>
        <pt x="726" y="-44" on="1"/>
        <pt x="711" y="-165" on="0"/>
        <pt x="637" y="-189" on="1"/>
        <pt x="634" y="-190" on="0"/>
        <pt x="631" y="-191" on="1"/>
        <pt x="624" y="-193" on="0"/>
        <pt x="588" y="-193" on="0"/>
        <pt x="580" y="-191" on="1"/>
        <pt x="537" y="-179" on="0"/>
        <pt x="516" y="-134" on="1"/>
        <pt x="503" y="-107" on="0"/>
        <pt x="489" y="-42" on="1"/>
        <pt x="482" y="-10" on="0"/>
        <pt x="482" y="-8" on="0"/>
        <pt x="466" y="-12" on="1"/>
        <pt x="401" y="-28" on="0"/>
        <pt x="339" y="-18" on="1"/>
        <pt x="212" y="3" on="0"/>
        <pt x="130" y="110" on="1"/>
        <pt x="76" y="182" on="0"/>
        <pt x="61" y="273" on="1"/>
        <pt x="56" y="298" on="0"/>
        <pt x="56" y="340" on="1"/>
        <pt x="56" y="380" on="0"/>
        <pt x="62" y="411" on="1"/>
        <pt x="73" y="477" on="0"/>
        <pt x="105" y="532" on="1"/>
        <pt x="119" y="556" on="0"/>
        <pt x="138" y="581" on="1"/>
        <pt x="169" y="617" on="0"/>
        <pt x="191" y="633" on="1"/>
        <pt x="266" y="695" on="0"/>
      </contour>
      <contour>
        <pt x="419" y="652" on="1"/>
        <pt x="396" y="657" on="0"/>
        <pt x="373" y="654" on="1"/>
        <pt x="341" y="651" on="0"/>
        <pt x="315" y="637" on="1"/>
        <pt x="287" y="624" on="0"/>
        <pt x="259" y="597" on="1"/>
        <pt x="201" y="538" on="0"/>
        <pt x="186" y="428" on="1"/>
        <pt x="174" y="347" on="0"/>
        <pt x="184" y="267" on="1"/>
        <pt x="199" y="125" on="0"/>
        <pt x="286" y="62" on="1"/>
        <pt x="295" y="56" on="0"/>
        <pt x="296" y="55" on="1"/>
        <pt x="296" y="66" on="1"/>
        <pt x="295" y="104" on="0"/>
        <pt x="322" y="133" on="1"/>
        <pt x="358" y="167" on="0"/>
        <pt x="406" y="158" on="1"/>
        <pt x="420" y="157" on="0"/>
        <pt x="432" y="150" on="1"/>
        <pt x="466" y="132" on="0"/>
        <pt x="492" y="83" on="1"/>
        <pt x="500" y="70" on="0"/>
        <pt x="500" y="69" on="1"/>
        <pt x="500" y="67" on="0"/>
        <pt x="517" y="84" on="1"/>
        <pt x="581" y="148" on="0"/>
        <pt x="593" y="267" on="1"/>
        <pt x="603" y="347" on="0"/>
        <pt x="591" y="428" on="1"/>
        <pt x="583" y="491" on="0"/>
        <pt x="559" y="538" on="1"/>
        <pt x="512" y="630" on="0"/>
        <pt x="427" y="650" on="1"/>
        <pt x="423" y="651" on="0"/>
      </contour>
      <contour>
        <pt x="412" y="110" on="1"/>
        <pt x="392" y="116" on="0"/>
        <pt x="377" y="112" on="1"/>
        <pt x="348" y="104" on="0"/>
        <pt x="344" y="76" on="1"/>
        <pt x="341" y="55" on="0"/>
        <pt x="356" y="40" on="1"/>
        <pt x="362" y="34" on="0"/>
        <pt x="368" y="31" on="1"/>
        <pt x="376" y="28" on="0"/>
        <pt x="384" y="28" on="1"/>
        <pt x="416" y="28" on="0"/>
        <pt x="440" y="36" on="1"/>
        <pt x="461" y="43" on="0"/>
        <pt x="467" y="47" on="1"/>
        <pt x="468" y="48" on="0"/>
        <pt x="461" y="65" on="1"/>
        <pt x="443" y="101" on="0"/>
      </contour>
    </TTGlyph>
    <TTGlyph name="R" xMin="22" yMin="-28" xMax="732" yMax="683">
      <contour>
        <pt x="22" y="655" on="1"/>
        <pt x="22" y="683" on="1"/>
        <pt x="200" y="683" on="1"/>
        <pt x="387" y="682" on="0"/>
        <pt x="404" y="679" on="1"/>
        <pt x="406" y="678" on="0"/>
        <pt x="414" y="677" on="1"/>
        <pt x="505" y="660" on="0"/>
        <pt x="560" y="605" on="1"/>
        <pt x="598" y="567" on="0"/>
        <pt x="608" y="521" on="1"/>
        <pt x="612" y="498" on="0"/>
        <pt x="608" y="472" on="1"/>
        <pt x="597" y="422" on="0"/>
        <pt x="552" y="385" on="1"/>
        <pt x="519" y="357" on="0"/>
        <pt x="476" y="341" on="1"/>
        <pt x="465" y="336" on="1"/>
        <pt x="473" y="332" on="1"/>
        <pt x="543" y="289" on="0"/>
        <pt x="557" y="219" on="1"/>
        <pt x="567" y="164" on="1"/>
        <pt x="575" y="110" on="0"/>
        <pt x="577" y="104" on="1"/>
        <pt x="591" y="34" on="0"/>
        <pt x="629" y="27" on="1"/>
        <pt x="634" y="26" on="0"/>
        <pt x="640" y="26" on="1"/>
        <pt x="650" y="26" on="0"/>
        <pt x="654" y="28" on="1"/>
        <pt x="679" y="39" on="0"/>
        <pt x="682" y="87" on="1"/>
        <pt x="683" y="102" on="0"/>
        <pt x="690" y="104" on="1"/>
        <pt x="694" y="105" on="0"/>
        <pt x="707" y="105" on="1"/>
        <pt x="730" y="105" on="0"/>
        <pt x="732" y="97" on="1"/>
        <pt x="732" y="93" on="0"/>
        <pt x="732" y="85" on="1"/>
        <pt x="728" y="21" on="0"/>
        <pt x="684" y="-9" on="1"/>
        <pt x="671" y="-17" on="0"/>
        <pt x="657" y="-20" on="1"/>
        <pt x="620" y="-28" on="0"/>
        <pt x="555" y="-11" on="1"/>
        <pt x="550" y="-10" on="0"/>
        <pt x="546" y="-9" on="1"/>
        <pt x="465" y="17" on="0"/>
        <pt x="448" y="91" on="1"/>
        <pt x="446" y="99" on="0"/>
        <pt x="445" y="163" on="1"/>
        <pt x="444" y="228" on="0"/>
        <pt x="443" y="233" on="1"/>
        <pt x="434" y="268" on="0"/>
        <pt x="414" y="288" on="1"/>
        <pt x="396" y="308" on="0"/>
        <pt x="369" y="315" on="1"/>
        <pt x="362" y="317" on="0"/>
        <pt x="299" y="318" on="1"/>
        <pt x="236" y="318" on="1"/>
        <pt x="236" y="191" on="1"/>
        <pt x="236" y="64" on="0"/>
        <pt x="237" y="63" on="1"/>
        <pt x="241" y="56" on="0"/>
        <pt x="311" y="56" on="1"/>
        <pt x="339" y="56" on="1"/>
        <pt x="339" y="28" on="1"/>
        <pt x="339" y="0" on="1"/>
        <pt x="328" y="0" on="1"/>
        <pt x="329" y="0" on="0"/>
        <pt x="249" y="2" on="1"/>
        <pt x="180" y="3" on="0"/>
        <pt x="112" y="2" on="1"/>
        <pt x="32" y="0" on="0"/>
        <pt x="33" y="0" on="1"/>
        <pt x="22" y="0" on="1"/>
        <pt x="22" y="28" on="1"/>
        <pt x="22" y="56" on="1"/>
        <pt x="50" y="56" on="1"/>
        <pt x="120" y="56" on="0"/>
        <pt x="124" y="63" on="1"/>
        <pt x="124" y="620" on="1"/>
        <pt x="120" y="627" on="0"/>
        <pt x="50" y="627" on="1"/>
        <pt x="22" y="627" on="1"/>
      </contour>
      <contour>
        <pt x="365" y="626" on="1"/>
        <pt x="250" y="626" on="1"/>
        <pt x="240" y="625" on="0"/>
        <pt x="238" y="621" on="1"/>
        <pt x="236" y="619" on="0"/>
        <pt x="236" y="492" on="1"/>
        <pt x="236" y="365" on="1"/>
        <pt x="301" y="365" on="1"/>
        <pt x="371" y="366" on="0"/>
        <pt x="378" y="367" on="1"/>
        <pt x="431" y="376" on="0"/>
        <pt x="456" y="401" on="1"/>
        <pt x="468" y="413" on="0"/>
        <pt x="475" y="432" on="1"/>
        <pt x="482" y="452" on="0"/>
        <pt x="481" y="498" on="1"/>
        <pt x="481" y="534" on="0"/>
        <pt x="479" y="544" on="1"/>
        <pt x="474" y="574" on="0"/>
        <pt x="457" y="592" on="1"/>
        <pt x="427" y="622" on="0"/>
      </contour>
    </TTGlyph>
    <TTGlyph name="S" xMin="35" yMin="-22" xMax="502" yMax="705">
      <contour>
        <pt x="226" y="704" on="1"/>
        <pt x="285" y="703" on="1"/>
        <pt x="286" y="703" on="0"/>
        <pt x="287" y="703" on="1"/>
        <pt x="349" y="692" on="0"/>
        <pt x="391" y="655" on="1"/>
        <pt x="400" y="647" on="0"/>
        <pt x="401" y="646" on="1"/>
        <pt x="423" y="674" on="1"/>
        <pt x="441" y="698" on="0"/>
        <pt x="447" y="704" on="1"/>
        <pt x="448" y="705" on="0"/>
        <pt x="458" y="705" on="1"/>
        <pt x="466" y="705" on="0"/>
        <pt x="469" y="702" on="1"/>
        <pt x="472" y="699" on="1"/>
        <pt x="472" y="581" on="1"/>
        <pt x="472" y="462" on="1"/>
        <pt x="469" y="459" on="1"/>
        <pt x="466" y="456" on="1"/>
        <pt x="447" y="456" on="1"/>
        <pt x="426" y="456" on="0"/>
        <pt x="424" y="461" on="1"/>
        <pt x="423" y="463" on="0"/>
        <pt x="420" y="478" on="1"/>
        <pt x="411" y="542" on="0"/>
        <pt x="385" y="583" on="1"/>
        <pt x="345" y="644" on="0"/>
        <pt x="269" y="651" on="1"/>
        <pt x="226" y="655" on="0"/>
        <pt x="196" y="636" on="1"/>
        <pt x="145" y="603" on="0"/>
        <pt x="145" y="540" on="1"/>
        <pt x="145" y="478" on="0"/>
        <pt x="196" y="445" on="1"/>
        <pt x="205" y="440" on="0"/>
        <pt x="214" y="436" on="1"/>
        <pt x="217" y="435" on="0"/>
        <pt x="288" y="417" on="1"/>
        <pt x="361" y="398" on="0"/>
        <pt x="362" y="398" on="1"/>
        <pt x="411" y="382" on="0"/>
        <pt x="445" y="343" on="1"/>
        <pt x="471" y="314" on="0"/>
        <pt x="486" y="273" on="1"/>
        <pt x="492" y="255" on="0"/>
        <pt x="498" y="227" on="1"/>
        <pt x="502" y="196" on="0"/>
        <pt x="498" y="159" on="1"/>
        <pt x="491" y="116" on="0"/>
        <pt x="471" y="81" on="1"/>
        <pt x="426" y="-2" on="0"/>
        <pt x="337" y="-19" on="1"/>
        <pt x="327" y="-21" on="0"/>
        <pt x="301" y="-21" on="1"/>
        <pt x="257" y="-21" on="0"/>
        <pt x="217" y="-10" on="1"/>
        <pt x="172" y="2" on="0"/>
        <pt x="135" y="32" on="1"/>
        <pt x="126" y="39" on="1"/>
        <pt x="80" y="-21" on="1"/>
        <pt x="79" y="-22" on="0"/>
        <pt x="69" y="-22" on="1"/>
        <pt x="61" y="-22" on="0"/>
        <pt x="58" y="-19" on="1"/>
        <pt x="55" y="-16" on="1"/>
        <pt x="55" y="101" on="1"/>
        <pt x="55" y="220" on="0"/>
        <pt x="56" y="222" on="1"/>
        <pt x="58" y="227" on="0"/>
        <pt x="81" y="227" on="1"/>
        <pt x="99" y="227" on="1"/>
        <pt x="102" y="224" on="1"/>
        <pt x="105" y="221" on="0"/>
        <pt x="105" y="214" on="1"/>
        <pt x="105" y="155" on="0"/>
        <pt x="134" y="113" on="1"/>
        <pt x="183" y="39" on="0"/>
        <pt x="294" y="34" on="1"/>
        <pt x="323" y="33" on="0"/>
        <pt x="346" y="44" on="1"/>
        <pt x="395" y="68" on="0"/>
        <pt x="408" y="132" on="1"/>
        <pt x="412" y="160" on="0"/>
        <pt x="407" y="187" on="1"/>
        <pt x="393" y="252" on="0"/>
        <pt x="341" y="274" on="1"/>
        <pt x="337" y="276" on="0"/>
        <pt x="267" y="294" on="1"/>
        <pt x="187" y="313" on="0"/>
        <pt x="168" y="322" on="1"/>
        <pt x="137" y="337" on="0"/>
        <pt x="112" y="362" on="1"/>
        <pt x="92" y="384" on="0"/>
        <pt x="77" y="413" on="1"/>
        <pt x="35" y="496" on="0"/>
        <pt x="71" y="584" on="1"/>
        <pt x="79" y="602" on="0"/>
        <pt x="90" y="619" on="1"/>
        <pt x="138" y="690" on="0"/>
      </contour>
    </TTGlyph>
    <TTGlyph name="T" xMin="36" yMin="0" xMax="685" yMax="677">
      <contour>
        <pt x="55" y="671" on="1"/>
        <pt x="55" y="677" on="1"/>
        <pt x="360" y="677" on="1"/>
        <pt x="666" y="677" on="1"/>
        <pt x="666" y="671" on="1"/>
        <pt x="667" y="669" on="0"/>
        <pt x="676" y="552" on="1"/>
        <pt x="683" y="440" on="0"/>
        <pt x="685" y="433" on="1"/>
        <pt x="685" y="427" on="1"/>
        <pt x="660" y="427" on="1"/>
        <pt x="635" y="427" on="0"/>
        <pt x="635" y="428" on="1"/>
        <pt x="633" y="452" on="1"/>
        <pt x="626" y="538" on="0"/>
        <pt x="609" y="571" on="1"/>
        <pt x="591" y="606" on="0"/>
        <pt x="537" y="617" on="1"/>
        <pt x="513" y="621" on="0"/>
        <pt x="465" y="621" on="1"/>
        <pt x="424" y="620" on="0"/>
        <pt x="420" y="615" on="1"/>
        <pt x="418" y="613" on="1"/>
        <pt x="418" y="338" on="1"/>
        <pt x="419" y="64" on="1"/>
        <pt x="423" y="61" on="1"/>
        <pt x="432" y="57" on="0"/>
        <pt x="507" y="56" on="1"/>
        <pt x="563" y="56" on="1"/>
        <pt x="563" y="28" on="1"/>
        <pt x="563" y="0" on="1"/>
        <pt x="550" y="0" on="1"/>
        <pt x="449" y="2" on="1"/>
        <pt x="361" y="3" on="0"/>
        <pt x="273" y="2" on="1"/>
        <pt x="172" y="0" on="1"/>
        <pt x="159" y="0" on="1"/>
        <pt x="159" y="28" on="1"/>
        <pt x="159" y="56" on="1"/>
        <pt x="215" y="56" on="1"/>
        <pt x="290" y="57" on="0"/>
        <pt x="299" y="61" on="1"/>
        <pt x="304" y="64" on="1"/>
        <pt x="304" y="338" on="1"/>
        <pt x="304" y="613" on="1"/>
        <pt x="302" y="615" on="1"/>
        <pt x="298" y="620" on="0"/>
        <pt x="264" y="621" on="1"/>
        <pt x="257" y="621" on="1"/>
        <pt x="208" y="621" on="0"/>
        <pt x="185" y="617" on="1"/>
        <pt x="142" y="608" on="0"/>
        <pt x="121" y="584" on="1"/>
        <pt x="101" y="561" on="0"/>
        <pt x="92" y="491" on="1"/>
        <pt x="86" y="455" on="0"/>
        <pt x="86" y="428" on="1"/>
        <pt x="86" y="427" on="0"/>
        <pt x="61" y="427" on="1"/>
        <pt x="36" y="427" on="1"/>
        <pt x="36" y="433" on="1"/>
        <pt x="37" y="435" on="0"/>
        <pt x="46" y="552" on="1"/>
        <pt x="53" y="664" on="0"/>
      </contour>
    </TTGlyph>
    <TTGlyph name="U" xMin="22" yMin="-24" xMax="727" yMax="683">
      <contour>
        <pt x="22" y="655" on="1"/>
        <pt x="22" y="683" on="1"/>
        <pt x="33" y="683" on="1"/>
        <pt x="113" y="681" on="1"/>
        <pt x="182" y="680" on="0"/>
        <pt x="251" y="681" on="1"/>
        <pt x="331" y="683" on="1"/>
        <pt x="342" y="683" on="1"/>
        <pt x="342" y="655" on="1"/>
        <pt x="342" y="627" on="1"/>
        <pt x="314" y="627" on="1"/>
        <pt x="244" y="627" on="0"/>
        <pt x="240" y="620" on="1"/>
        <pt x="236" y="614" on="0"/>
        <pt x="240" y="232" on="1"/>
        <pt x="240" y="182" on="0"/>
        <pt x="241" y="178" on="1"/>
        <pt x="247" y="131" on="0"/>
        <pt x="260" y="106" on="1"/>
        <pt x="294" y="42" on="0"/>
        <pt x="375" y="35" on="1"/>
        <pt x="386" y="34" on="0"/>
        <pt x="397" y="34" on="1"/>
        <pt x="464" y="37" on="0"/>
        <pt x="509" y="76" on="1"/>
        <pt x="540" y="103" on="0"/>
        <pt x="554" y="145" on="1"/>
        <pt x="562" y="168" on="0"/>
        <pt x="565" y="190" on="1"/>
        <pt x="568" y="204" on="1"/>
        <pt x="568" y="400" on="1"/>
        <pt x="568" y="596" on="1"/>
        <pt x="565" y="600" on="1"/>
        <pt x="551" y="624" on="0"/>
        <pt x="484" y="627" on="1"/>
        <pt x="465" y="627" on="1"/>
        <pt x="465" y="655" on="1"/>
        <pt x="465" y="683" on="1"/>
        <pt x="474" y="683" on="1"/>
        <pt x="540" y="681" on="1"/>
        <pt x="596" y="680" on="0"/>
        <pt x="652" y="681" on="1"/>
        <pt x="718" y="683" on="1"/>
        <pt x="727" y="683" on="1"/>
        <pt x="727" y="655" on="1"/>
        <pt x="727" y="627" on="1"/>
        <pt x="708" y="627" on="1"/>
        <pt x="641" y="624" on="0"/>
        <pt x="627" y="600" on="1"/>
        <pt x="625" y="596" on="1"/>
        <pt x="624" y="398" on="1"/>
        <pt x="623" y="198" on="0"/>
        <pt x="622" y="191" on="1"/>
        <pt x="607" y="105" on="0"/>
        <pt x="551" y="46" on="1"/>
        <pt x="521" y="17" on="0"/>
        <pt x="487" y="1" on="1"/>
        <pt x="455" y="-15" on="0"/>
        <pt x="419" y="-20" on="1"/>
        <pt x="399" y="-24" on="0"/>
        <pt x="362" y="-21" on="1"/>
        <pt x="358" y="-20" on="0"/>
        <pt x="356" y="-20" on="1"/>
        <pt x="264" y="-8" on="0"/>
        <pt x="200" y="53" on="1"/>
        <pt x="134" y="118" on="0"/>
        <pt x="126" y="204" on="1"/>
        <pt x="125" y="212" on="0"/>
        <pt x="125" y="417" on="1"/>
        <pt x="125" y="619" on="0"/>
        <pt x="124" y="620" on="1"/>
        <pt x="120" y="627" on="0"/>
        <pt x="50" y="627" on="1"/>
        <pt x="22" y="627" on="1"/>
      </contour>
    </TTGlyph>
    <TTGlyph name="V" xMin="19" yMin="-22" xMax="730" yMax="683">
      <contour>
        <pt x="19" y="655" on="1"/>
        <pt x="19" y="683" on="1"/>
        <pt x="28" y="683" on="1"/>
        <pt x="27" y="683" on="0"/>
        <pt x="95" y="681" on="1"/>
        <pt x="154" y="680" on="0"/>
        <pt x="224" y="681" on="1"/>
        <pt x="304" y="683" on="1"/>
        <pt x="315" y="683" on="1"/>
        <pt x="315" y="655" on="1"/>
        <pt x="315" y="627" on="1"/>
        <pt x="290" y="627" on="1"/>
        <pt x="236" y="625" on="0"/>
        <pt x="233" y="619" on="1"/>
        <pt x="404" y="144" on="1"/>
        <pt x="485" y="368" on="1"/>
        <pt x="565" y="589" on="0"/>
        <pt x="565" y="601" on="0"/>
        <pt x="559" y="608" on="1"/>
        <pt x="543" y="624" on="0"/>
        <pt x="503" y="627" on="1"/>
        <pt x="493" y="627" on="1"/>
        <pt x="493" y="655" on="1"/>
        <pt x="493" y="683" on="1"/>
        <pt x="502" y="683" on="1"/>
        <pt x="568" y="681" on="1"/>
        <pt x="674" y="679" on="0"/>
        <pt x="723" y="683" on="1"/>
        <pt x="730" y="683" on="1"/>
        <pt x="730" y="655" on="1"/>
        <pt x="730" y="627" on="1"/>
        <pt x="721" y="627" on="1"/>
        <pt x="703" y="627" on="0"/>
        <pt x="679" y="623" on="1"/>
        <pt x="640" y="615" on="0"/>
        <pt x="628" y="596" on="1"/>
        <pt x="627" y="595" on="0"/>
        <pt x="516" y="290" on="1"/>
        <pt x="409" y="-12" on="0"/>
        <pt x="406" y="-15" on="1"/>
        <pt x="405" y="-18" on="0"/>
        <pt x="400" y="-20" on="1"/>
        <pt x="396" y="-22" on="0"/>
        <pt x="375" y="-22" on="1"/>
        <pt x="353" y="-22" on="0"/>
        <pt x="349" y="-20" on="1"/>
        <pt x="344" y="-18" on="0"/>
        <pt x="343" y="-15" on="1"/>
        <pt x="341" y="-13" on="0"/>
        <pt x="115" y="617" on="0"/>
        <pt x="113" y="619" on="1"/>
        <pt x="109" y="625" on="0"/>
        <pt x="84" y="626" on="1"/>
        <pt x="75" y="627" on="0"/>
        <pt x="43" y="627" on="1"/>
        <pt x="19" y="627" on="1"/>
      </contour>
    </TTGlyph>
    <TTGlyph name="W" xMin="18" yMin="-22" xMax="1009" yMax="683">
      <contour>
        <pt x="18" y="655" on="1"/>
        <pt x="18" y="683" on="1"/>
        <pt x="27" y="683" on="1"/>
        <pt x="92" y="681" on="1"/>
        <pt x="148" y="680" on="0"/>
        <pt x="217" y="681" on="1"/>
        <pt x="297" y="683" on="1"/>
        <pt x="308" y="683" on="1"/>
        <pt x="308" y="655" on="1"/>
        <pt x="308" y="627" on="1"/>
        <pt x="292" y="627" on="1"/>
        <pt x="226" y="627" on="0"/>
        <pt x="224" y="619" on="1"/>
        <pt x="223" y="618" on="0"/>
        <pt x="256" y="514" on="1"/>
        <pt x="328" y="287" on="1"/>
        <pt x="367" y="164" on="1"/>
        <pt x="487" y="543" on="1"/>
        <pt x="475" y="581" on="1"/>
        <pt x="462" y="621" on="0"/>
        <pt x="454" y="624" on="1"/>
        <pt x="445" y="627" on="0"/>
        <pt x="398" y="627" on="1"/>
        <pt x="375" y="627" on="1"/>
        <pt x="375" y="655" on="1"/>
        <pt x="375" y="683" on="1"/>
        <pt x="384" y="683" on="1"/>
        <pt x="449" y="681" on="1"/>
        <pt x="505" y="680" on="0"/>
        <pt x="574" y="681" on="1"/>
        <pt x="654" y="683" on="1"/>
        <pt x="665" y="683" on="1"/>
        <pt x="665" y="655" on="1"/>
        <pt x="665" y="627" on="1"/>
        <pt x="649" y="627" on="1"/>
        <pt x="583" y="627" on="0"/>
        <pt x="581" y="619" on="1"/>
        <pt x="724" y="164" on="1"/>
        <pt x="859" y="593" on="1"/>
        <pt x="859" y="613" on="0"/>
        <pt x="815" y="623" on="1"/>
        <pt x="805" y="625" on="0"/>
        <pt x="795" y="626" on="1"/>
        <pt x="789" y="627" on="0"/>
        <pt x="779" y="627" on="1"/>
        <pt x="773" y="627" on="1"/>
        <pt x="773" y="655" on="1"/>
        <pt x="773" y="683" on="1"/>
        <pt x="782" y="683" on="1"/>
        <pt x="781" y="683" on="0"/>
        <pt x="851" y="681" on="1"/>
        <pt x="911" y="680" on="0"/>
        <pt x="954" y="681" on="1"/>
        <pt x="1003" y="683" on="1"/>
        <pt x="1009" y="683" on="1"/>
        <pt x="1009" y="655" on="1"/>
        <pt x="1009" y="627" on="1"/>
        <pt x="994" y="627" on="1"/>
        <pt x="924" y="624" on="0"/>
        <pt x="912" y="589" on="1"/>
        <pt x="816" y="286" on="1"/>
        <pt x="721" y="-13" on="0"/>
        <pt x="719" y="-15" on="1"/>
        <pt x="716" y="-22" on="0"/>
        <pt x="692" y="-22" on="1"/>
        <pt x="669" y="-22" on="0"/>
        <pt x="664" y="-15" on="1"/>
        <pt x="662" y="-12" on="0"/>
        <pt x="588" y="224" on="1"/>
        <pt x="514" y="460" on="1"/>
        <pt x="439" y="223" on="1"/>
        <pt x="366" y="-7" on="0"/>
        <pt x="362" y="-16" on="1"/>
        <pt x="359" y="-19" on="0"/>
        <pt x="357" y="-20" on="1"/>
        <pt x="354" y="-22" on="0"/>
        <pt x="335" y="-22" on="1"/>
        <pt x="312" y="-22" on="0"/>
        <pt x="308" y="-15" on="1"/>
        <pt x="306" y="-13" on="0"/>
        <pt x="206" y="303" on="1"/>
        <pt x="107" y="616" on="0"/>
        <pt x="102" y="622" on="1"/>
        <pt x="101" y="623" on="0"/>
        <pt x="97" y="624" on="1"/>
        <pt x="88" y="627" on="0"/>
        <pt x="41" y="627" on="1"/>
        <pt x="18" y="627" on="1"/>
      </contour>
    </TTGlyph>
    <TTGlyph name="X" xMin="23" yMin="0" xMax="726" yMax="683">
      <contour>
        <pt x="37" y="655" on="1"/>
        <pt x="37" y="683" on="1"/>
        <pt x="46" y="683" on="1"/>
        <pt x="116" y="681" on="1"/>
        <pt x="176" y="680" on="0"/>
        <pt x="247" y="681" on="1"/>
        <pt x="329" y="683" on="1"/>
        <pt x="340" y="683" on="1"/>
        <pt x="340" y="655" on="1"/>
        <pt x="340" y="627" on="1"/>
        <pt x="326" y="627" on="1"/>
        <pt x="294" y="625" on="0"/>
        <pt x="279" y="620" on="1"/>
        <pt x="274" y="619" on="0"/>
        <pt x="274" y="617" on="1"/>
        <pt x="272" y="619" on="0"/>
        <pt x="329" y="528" on="1"/>
        <pt x="382" y="443" on="0"/>
        <pt x="385" y="443" on="1"/>
        <pt x="432" y="518" on="1"/>
        <pt x="479" y="590" on="0"/>
        <pt x="479" y="595" on="1"/>
        <pt x="479" y="612" on="0"/>
        <pt x="446" y="622" on="1"/>
        <pt x="436" y="626" on="0"/>
        <pt x="425" y="627" on="1"/>
        <pt x="416" y="627" on="1"/>
        <pt x="416" y="655" on="1"/>
        <pt x="416" y="683" on="1"/>
        <pt x="426" y="683" on="1"/>
        <pt x="500" y="681" on="1"/>
        <pt x="564" y="680" on="0"/>
        <pt x="616" y="681" on="1"/>
        <pt x="677" y="683" on="1"/>
        <pt x="685" y="683" on="1"/>
        <pt x="685" y="655" on="1"/>
        <pt x="685" y="627" on="1"/>
        <pt x="665" y="627" on="1"/>
        <pt x="599" y="624" on="0"/>
        <pt x="568" y="609" on="1"/>
        <pt x="554" y="602" on="0"/>
        <pt x="542" y="585" on="1"/>
        <pt x="533" y="572" on="0"/>
        <pt x="481" y="490" on="1"/>
        <pt x="417" y="389" on="0"/>
        <pt x="417" y="388" on="1"/>
        <pt x="518" y="226" on="1"/>
        <pt x="617" y="66" on="0"/>
        <pt x="621" y="62" on="1"/>
        <pt x="630" y="59" on="1"/>
        <pt x="642" y="56" on="0"/>
        <pt x="698" y="56" on="1"/>
        <pt x="726" y="56" on="1"/>
        <pt x="726" y="28" on="1"/>
        <pt x="726" y="0" on="1"/>
        <pt x="717" y="0" on="1"/>
        <pt x="647" y="2" on="1"/>
        <pt x="587" y="3" on="0"/>
        <pt x="516" y="2" on="1"/>
        <pt x="434" y="0" on="1"/>
        <pt x="423" y="0" on="1"/>
        <pt x="423" y="28" on="1"/>
        <pt x="423" y="56" on="1"/>
        <pt x="437" y="56" on="1"/>
        <pt x="469" y="58" on="0"/>
        <pt x="484" y="63" on="1"/>
        <pt x="489" y="64" on="0"/>
        <pt x="489" y="66" on="1"/>
        <pt x="353" y="285" on="1"/>
        <pt x="352" y="286" on="0"/>
        <pt x="341" y="269" on="1"/>
        <pt x="329" y="250" on="0"/>
        <pt x="291" y="190" on="1"/>
        <pt x="229" y="93" on="0"/>
        <pt x="229" y="91" on="1"/>
        <pt x="226" y="84" on="0"/>
        <pt x="235" y="74" on="1"/>
        <pt x="251" y="59" on="0"/>
        <pt x="283" y="56" on="1"/>
        <pt x="291" y="56" on="1"/>
        <pt x="291" y="28" on="1"/>
        <pt x="291" y="0" on="1"/>
        <pt x="281" y="0" on="1"/>
        <pt x="282" y="0" on="0"/>
        <pt x="208" y="2" on="1"/>
        <pt x="144" y="3" on="0"/>
        <pt x="92" y="2" on="1"/>
        <pt x="31" y="0" on="1"/>
        <pt x="23" y="0" on="1"/>
        <pt x="23" y="28" on="1"/>
        <pt x="23" y="56" on="1"/>
        <pt x="34" y="56" on="1"/>
        <pt x="76" y="56" on="0"/>
        <pt x="110" y="64" on="1"/>
        <pt x="144" y="73" on="0"/>
        <pt x="157" y="86" on="1"/>
        <pt x="165" y="97" on="0"/>
        <pt x="241" y="215" on="1"/>
        <pt x="319" y="339" on="1"/>
        <pt x="232" y="479" on="1"/>
        <pt x="146" y="617" on="0"/>
        <pt x="142" y="621" on="1"/>
        <pt x="133" y="627" on="0"/>
        <pt x="64" y="627" on="1"/>
        <pt x="37" y="627" on="1"/>
      </contour>
    </TTGlyph>
    <TTGlyph name="Y" xMin="11" yMin="0" xMax="738" yMax="683">
      <contour>
        <pt x="11" y="655" on="1"/>
        <pt x="11" y="683" on="1"/>
        <pt x="20" y="683" on="1"/>
        <pt x="90" y="681" on="1"/>
        <pt x="151" y="680" on="0"/>
        <pt x="222" y="681" on="1"/>
        <pt x="305" y="683" on="1"/>
        <pt x="316" y="683" on="1"/>
        <pt x="316" y="655" on="1"/>
        <pt x="316" y="627" on="1"/>
        <pt x="294" y="627" on="1"/>
        <pt x="249" y="625" on="0"/>
        <pt x="247" y="619" on="1"/>
        <pt x="405" y="347" on="1"/>
        <pt x="407" y="344" on="1"/>
        <pt x="478" y="467" on="1"/>
        <pt x="555" y="596" on="0"/>
        <pt x="551" y="592" on="1"/>
        <pt x="552" y="597" on="0"/>
        <pt x="551" y="604" on="1"/>
        <pt x="544" y="624" on="0"/>
        <pt x="507" y="627" on="1"/>
        <pt x="497" y="627" on="1"/>
        <pt x="497" y="655" on="1"/>
        <pt x="497" y="683" on="1"/>
        <pt x="506" y="683" on="1"/>
        <pt x="505" y="683" on="0"/>
        <pt x="573" y="681" on="1"/>
        <pt x="629" y="680" on="0"/>
        <pt x="677" y="681" on="1"/>
        <pt x="731" y="683" on="1"/>
        <pt x="738" y="683" on="1"/>
        <pt x="738" y="655" on="1"/>
        <pt x="738" y="627" on="1"/>
        <pt x="720" y="627" on="1"/>
        <pt x="650" y="624" on="0"/>
        <pt x="623" y="600" on="1"/>
        <pt x="617" y="594" on="0"/>
        <pt x="523" y="433" on="1"/>
        <pt x="430" y="273" on="1"/>
        <pt x="430" y="169" on="1"/>
        <pt x="430" y="65" on="0"/>
        <pt x="432" y="63" on="1"/>
        <pt x="433" y="61" on="0"/>
        <pt x="439" y="59" on="1"/>
        <pt x="448" y="56" on="0"/>
        <pt x="506" y="56" on="1"/>
        <pt x="533" y="56" on="1"/>
        <pt x="533" y="28" on="1"/>
        <pt x="533" y="0" on="1"/>
        <pt x="522" y="0" on="1"/>
        <pt x="523" y="0" on="0"/>
        <pt x="443" y="2" on="1"/>
        <pt x="375" y="3" on="0"/>
        <pt x="306" y="2" on="1"/>
        <pt x="226" y="0" on="0"/>
        <pt x="227" y="0" on="1"/>
        <pt x="216" y="0" on="1"/>
        <pt x="216" y="28" on="1"/>
        <pt x="216" y="56" on="1"/>
        <pt x="244" y="56" on="1"/>
        <pt x="314" y="56" on="0"/>
        <pt x="318" y="63" on="1"/>
        <pt x="319" y="64" on="0"/>
        <pt x="319" y="169" on="1"/>
        <pt x="319" y="273" on="1"/>
        <pt x="219" y="445" on="1"/>
        <pt x="119" y="616" on="0"/>
        <pt x="117" y="618" on="1"/>
        <pt x="112" y="626" on="0"/>
        <pt x="62" y="627" on="1"/>
        <pt x="57" y="627" on="0"/>
        <pt x="51" y="627" on="1"/>
        <pt x="11" y="627" on="1"/>
      </contour>
    </TTGlyph>
    <TTGlyph name="Z" xMin="55" yMin="0" xMax="560" yMax="683">
      <contour>
        <pt x="80" y="672" on="1"/>
        <pt x="80" y="683" on="1"/>
        <pt x="315" y="683" on="1"/>
        <pt x="549" y="683" on="1"/>
        <pt x="552" y="680" on="1"/>
        <pt x="555" y="677" on="1"/>
        <pt x="555" y="660" on="1"/>
        <pt x="555" y="643" on="1"/>
        <pt x="374" y="351" on="1"/>
        <pt x="192" y="60" on="1"/>
        <pt x="256" y="59" on="1"/>
        <pt x="353" y="59" on="0"/>
        <pt x="387" y="67" on="1"/>
        <pt x="431" y="77" on="0"/>
        <pt x="459" y="105" on="1"/>
        <pt x="482" y="128" on="0"/>
        <pt x="496" y="175" on="1"/>
        <pt x="505" y="214" on="0"/>
        <pt x="510" y="282" on="1"/>
        <pt x="510" y="292" on="1"/>
        <pt x="535" y="292" on="1"/>
        <pt x="560" y="292" on="1"/>
        <pt x="560" y="284" on="1"/>
        <pt x="560" y="282" on="0"/>
        <pt x="552" y="146" on="1"/>
        <pt x="543" y="8" on="1"/>
        <pt x="543" y="0" on="1"/>
        <pt x="302" y="0" on="1"/>
        <pt x="61" y="1" on="1"/>
        <pt x="58" y="3" on="1"/>
        <pt x="56" y="6" on="1"/>
        <pt x="55" y="24" on="1"/>
        <pt x="55" y="43" on="1"/>
        <pt x="237" y="335" on="1"/>
        <pt x="419" y="627" on="1"/>
        <pt x="358" y="627" on="1"/>
        <pt x="291" y="627" on="0"/>
        <pt x="281" y="626" on="1"/>
        <pt x="220" y="622" on="0"/>
        <pt x="185" y="598" on="1"/>
        <pt x="166" y="587" on="0"/>
        <pt x="151" y="565" on="1"/>
        <pt x="126" y="527" on="0"/>
        <pt x="120" y="452" on="1"/>
        <pt x="119" y="444" on="0"/>
        <pt x="119" y="435" on="1"/>
        <pt x="119" y="433" on="0"/>
        <pt x="94" y="433" on="1"/>
        <pt x="69" y="433" on="1"/>
        <pt x="69" y="444" on="1"/>
        <pt x="69" y="443" on="0"/>
        <pt x="75" y="558" on="1"/>
        <pt x="79" y="665" on="0"/>
      </contour>
    </TTGlyph>
    <TTGlyph name="a" xMin="21" yMin="-13" xMax="493" yMax="449">
      <contour>
        <pt x="197" y="447" on="1"/>
        <pt x="201" y="449" on="0"/>
        <pt x="225" y="447" on="1"/>
        <pt x="264" y="447" on="0"/>
        <pt x="294" y="437" on="1"/>
        <pt x="341" y="421" on="0"/>
        <pt x="370" y="390" on="1"/>
        <pt x="396" y="363" on="0"/>
        <pt x="404" y="330" on="1"/>
        <pt x="406" y="322" on="0"/>
        <pt x="407" y="195" on="1"/>
        <pt x="407" y="72" on="0"/>
        <pt x="409" y="64" on="1"/>
        <pt x="416" y="45" on="0"/>
        <pt x="430" y="51" on="1"/>
        <pt x="432" y="52" on="0"/>
        <pt x="435" y="55" on="1"/>
        <pt x="442" y="62" on="0"/>
        <pt x="442" y="86" on="1"/>
        <pt x="443" y="92" on="0"/>
        <pt x="443" y="107" on="1"/>
        <pt x="443" y="145" on="1"/>
        <pt x="468" y="145" on="1"/>
        <pt x="493" y="145" on="1"/>
        <pt x="493" y="110" on="1"/>
        <pt x="493" y="72" on="0"/>
        <pt x="492" y="68" on="1"/>
        <pt x="486" y="29" on="0"/>
        <pt x="446" y="7" on="1"/>
        <pt x="407" y="-12" on="0"/>
        <pt x="377" y="-4" on="1"/>
        <pt x="348" y="4" on="0"/>
        <pt x="333" y="33" on="1"/>
        <pt x="329" y="39" on="0"/>
        <pt x="327" y="46" on="1"/>
        <pt x="326" y="50" on="1"/>
        <pt x="317" y="41" on="1"/>
        <pt x="300" y="24" on="0"/>
        <pt x="275" y="12" on="1"/>
        <pt x="227" y="-13" on="0"/>
        <pt x="171" y="-11" on="1"/>
        <pt x="103" y="-8" on="0"/>
        <pt x="63" y="35" on="1"/>
        <pt x="48" y="50" on="0"/>
        <pt x="40" y="67" on="1"/>
        <pt x="21" y="107" on="0"/>
        <pt x="34" y="147" on="1"/>
        <pt x="52" y="201" on="0"/>
        <pt x="116" y="232" on="1"/>
        <pt x="162" y="255" on="0"/>
        <pt x="222" y="264" on="1"/>
        <pt x="260" y="271" on="0"/>
        <pt x="302" y="273" on="1"/>
        <pt x="313" y="273" on="1"/>
        <pt x="313" y="297" on="1"/>
        <pt x="312" y="322" on="0"/>
        <pt x="310" y="330" on="1"/>
        <pt x="307" y="343" on="0"/>
        <pt x="297" y="359" on="1"/>
        <pt x="273" y="394" on="0"/>
        <pt x="235" y="400" on="1"/>
        <pt x="212" y="404" on="0"/>
        <pt x="169" y="398" on="1"/>
        <pt x="161" y="396" on="0"/>
        <pt x="160" y="396" on="1"/>
        <pt x="158" y="396" on="0"/>
        <pt x="163" y="391" on="1"/>
        <pt x="179" y="370" on="0"/>
        <pt x="174" y="340" on="1"/>
        <pt x="166" y="306" on="0"/>
        <pt x="131" y="297" on="1"/>
        <pt x="99" y="289" on="0"/>
        <pt x="75" y="312" on="1"/>
        <pt x="57" y="329" on="0"/>
        <pt x="58" y="358" on="1"/>
        <pt x="59" y="373" on="0"/>
        <pt x="66" y="388" on="1"/>
        <pt x="77" y="409" on="0"/>
        <pt x="106" y="426" on="1"/>
        <pt x="141" y="443" on="0"/>
      </contour>
      <contour>
        <pt x="313" y="177" on="1"/>
        <pt x="313" y="227" on="1"/>
        <pt x="307" y="227" on="1"/>
        <pt x="288" y="227" on="0"/>
        <pt x="265" y="222" on="1"/>
        <pt x="231" y="216" on="0"/>
        <pt x="197" y="202" on="1"/>
        <pt x="142" y="177" on="0"/>
        <pt x="132" y="129" on="1"/>
        <pt x="127" y="98" on="0"/>
        <pt x="144" y="72" on="1"/>
        <pt x="174" y="25" on="0"/>
        <pt x="234" y="39" on="1"/>
        <pt x="237" y="40" on="0"/>
        <pt x="240" y="41" on="1"/>
        <pt x="284" y="53" on="0"/>
        <pt x="303" y="92" on="1"/>
        <pt x="305" y="97" on="0"/>
        <pt x="307" y="101" on="1"/>
        <pt x="313" y="124" on="0"/>
      </contour>
    </TTGlyph>
    <TTGlyph name="ampersand" xMin="39" yMin="-29" xMax="727" yMax="718">
      <contour>
        <pt x="291" y="715" on="1"/>
        <pt x="318" y="718" on="0"/>
        <pt x="340" y="709" on="1"/>
        <pt x="393" y="687" on="0"/>
        <pt x="408" y="606" on="1"/>
        <pt x="409" y="598" on="0"/>
        <pt x="410" y="589" on="1"/>
        <pt x="413" y="561" on="0"/>
        <pt x="408" y="541" on="1"/>
        <pt x="392" y="477" on="0"/>
        <pt x="302" y="387" on="1"/>
        <pt x="281" y="365" on="1"/>
        <pt x="311" y="306" on="1"/>
        <pt x="333" y="266" on="0"/>
        <pt x="390" y="191" on="1"/>
        <pt x="425" y="145" on="0"/>
        <pt x="428" y="143" on="1"/>
        <pt x="432" y="143" on="0"/>
        <pt x="471" y="203" on="1"/>
        <pt x="519" y="277" on="0"/>
        <pt x="550" y="338" on="1"/>
        <pt x="552" y="341" on="0"/>
        <pt x="552" y="342" on="1"/>
        <pt x="552" y="353" on="0"/>
        <pt x="544" y="359" on="1"/>
        <pt x="526" y="375" on="0"/>
        <pt x="489" y="375" on="1"/>
        <pt x="483" y="375" on="1"/>
        <pt x="483" y="403" on="1"/>
        <pt x="483" y="431" on="1"/>
        <pt x="492" y="431" on="1"/>
        <pt x="491" y="431" on="0"/>
        <pt x="563" y="429" on="1"/>
        <pt x="625" y="428" on="0"/>
        <pt x="669" y="429" on="1"/>
        <pt x="720" y="431" on="1"/>
        <pt x="727" y="431" on="1"/>
        <pt x="727" y="403" on="1"/>
        <pt x="727" y="375" on="1"/>
        <pt x="718" y="375" on="1"/>
        <pt x="695" y="375" on="0"/>
        <pt x="669" y="371" on="1"/>
        <pt x="628" y="364" on="0"/>
        <pt x="612" y="347" on="1"/>
        <pt x="605" y="340" on="0"/>
        <pt x="583" y="302" on="1"/>
        <pt x="504" y="163" on="0"/>
        <pt x="462" y="114" on="1"/>
        <pt x="458" y="110" on="0"/>
        <pt x="458" y="108" on="1"/>
        <pt x="491" y="77" on="1"/>
        <pt x="493" y="76" on="0"/>
        <pt x="494" y="75" on="1"/>
        <pt x="527" y="46" on="0"/>
        <pt x="561" y="37" on="1"/>
        <pt x="583" y="31" on="0"/>
        <pt x="606" y="37" on="1"/>
        <pt x="625" y="43" on="0"/>
        <pt x="640" y="54" on="1"/>
        <pt x="667" y="77" on="0"/>
        <pt x="672" y="114" on="1"/>
        <pt x="672" y="121" on="1"/>
        <pt x="697" y="121" on="1"/>
        <pt x="722" y="121" on="1"/>
        <pt x="722" y="112" on="1"/>
        <pt x="716" y="39" on="0"/>
        <pt x="656" y="0" on="1"/>
        <pt x="650" y="-5" on="0"/>
        <pt x="643" y="-8" on="1"/>
        <pt x="617" y="-22" on="0"/>
        <pt x="581" y="-22" on="1"/>
        <pt x="495" y="-22" on="0"/>
        <pt x="414" y="39" on="1"/>
        <pt x="400" y="48" on="0"/>
        <pt x="401" y="48" on="1"/>
        <pt x="401" y="51" on="0"/>
        <pt x="391" y="41" on="1"/>
        <pt x="335" y="-5" on="0"/>
        <pt x="272" y="-17" on="1"/>
        <pt x="212" y="-29" on="0"/>
        <pt x="161" y="-12" on="1"/>
        <pt x="143" y="-8" on="0"/>
        <pt x="119" y="7" on="1"/>
        <pt x="59" y="44" on="0"/>
        <pt x="45" y="111" on="1"/>
        <pt x="39" y="135" on="0"/>
        <pt x="43" y="162" on="1"/>
        <pt x="49" y="206" on="0"/>
        <pt x="80" y="241" on="1"/>
        <pt x="87" y="250" on="0"/>
        <pt x="138" y="296" on="1"/>
        <pt x="189" y="344" on="1"/>
        <pt x="184" y="356" on="1"/>
        <pt x="148" y="452" on="0"/>
        <pt x="152" y="542" on="1"/>
        <pt x="152" y="548" on="0"/>
        <pt x="153" y="554" on="1"/>
        <pt x="157" y="604" on="0"/>
        <pt x="187" y="650" on="1"/>
        <pt x="211" y="685" on="0"/>
        <pt x="246" y="702" on="1"/>
        <pt x="267" y="713" on="0"/>
      </contour>
      <contour>
        <pt x="318" y="667" on="1"/>
        <pt x="294" y="675" on="0"/>
        <pt x="270" y="656" on="1"/>
        <pt x="246" y="635" on="0"/>
        <pt x="238" y="591" on="1"/>
        <pt x="232" y="555" on="0"/>
        <pt x="243" y="494" on="1"/>
        <pt x="251" y="440" on="0"/>
        <pt x="261" y="417" on="1"/>
        <pt x="263" y="414" on="1"/>
        <pt x="278" y="430" on="1"/>
        <pt x="330" y="483" on="0"/>
        <pt x="348" y="520" on="1"/>
        <pt x="364" y="554" on="0"/>
        <pt x="360" y="588" on="1"/>
        <pt x="354" y="656" on="0"/>
      </contour>
      <contour>
        <pt x="215" y="287" on="1"/>
        <pt x="209" y="297" on="0"/>
        <pt x="209" y="298" on="1"/>
        <pt x="205" y="298" on="0"/>
        <pt x="179" y="268" on="1"/>
        <pt x="140" y="215" on="0"/>
        <pt x="153" y="138" on="1"/>
        <pt x="155" y="126" on="0"/>
        <pt x="158" y="114" on="1"/>
        <pt x="168" y="78" on="0"/>
        <pt x="190" y="58" on="1"/>
        <pt x="204" y="42" on="0"/>
        <pt x="223" y="37" on="1"/>
        <pt x="230" y="35" on="0"/>
        <pt x="247" y="35" on="1"/>
        <pt x="269" y="35" on="0"/>
        <pt x="289" y="40" on="1"/>
        <pt x="324" y="49" on="0"/>
        <pt x="359" y="73" on="1"/>
        <pt x="367" y="79" on="1"/>
        <pt x="353" y="93" on="1"/>
        <pt x="276" y="174" on="0"/>
        <pt x="224" y="269" on="1"/>
        <pt x="219" y="278" on="0"/>
      </contour>
    </TTGlyph>
    <TTGlyph name="asciicircum" xMin="108" yMin="525" xMax="391" yMax="694">
      <contour>
        <pt x="179" y="628" on="1"/>
        <pt x="249" y="694" on="1"/>
        <pt x="255" y="689" on="1"/>
        <pt x="266" y="678" on="0"/>
        <pt x="326" y="623" on="1"/>
        <pt x="391" y="562" on="1"/>
        <pt x="374" y="543" on="1"/>
        <pt x="357" y="525" on="1"/>
        <pt x="356" y="525" on="0"/>
        <pt x="303" y="571" on="1"/>
        <pt x="250" y="616" on="1"/>
        <pt x="248" y="616" on="0"/>
        <pt x="196" y="571" on="1"/>
        <pt x="143" y="525" on="0"/>
        <pt x="142" y="525" on="1"/>
        <pt x="125" y="543" on="1"/>
        <pt x="108" y="562" on="1"/>
      </contour>
    </TTGlyph>
    <TTGlyph name="asciitilde" xMin="84" yMin="546" xMax="417" yMax="668">
      <contour>
        <pt x="178" y="666" on="1"/>
        <pt x="183" y="668" on="0"/>
        <pt x="195" y="668" on="1"/>
        <pt x="212" y="667" on="0"/>
        <pt x="252" y="648" on="1"/>
        <pt x="289" y="628" on="0"/>
        <pt x="311" y="628" on="1"/>
        <pt x="325" y="628" on="0"/>
        <pt x="332" y="630" on="1"/>
        <pt x="349" y="637" on="0"/>
        <pt x="367" y="655" on="1"/>
        <pt x="380" y="668" on="1"/>
        <pt x="397" y="654" on="1"/>
        <pt x="415" y="639" on="1"/>
        <pt x="417" y="635" on="0"/>
        <pt x="367" y="579" on="1"/>
        <pt x="363" y="574" on="0"/>
        <pt x="361" y="572" on="1"/>
        <pt x="346" y="557" on="0"/>
        <pt x="327" y="550" on="1"/>
        <pt x="319" y="547" on="0"/>
        <pt x="307" y="547" on="1"/>
        <pt x="287" y="547" on="0"/>
        <pt x="253" y="564" on="1"/>
        <pt x="251" y="565" on="0"/>
        <pt x="248" y="566" on="1"/>
        <pt x="210" y="586" on="0"/>
        <pt x="188" y="586" on="1"/>
        <pt x="174" y="586" on="0"/>
        <pt x="167" y="584" on="1"/>
        <pt x="150" y="577" on="0"/>
        <pt x="132" y="559" on="1"/>
        <pt x="119" y="546" on="1"/>
        <pt x="102" y="560" on="1"/>
        <pt x="84" y="575" on="1"/>
        <pt x="133" y="636" on="1"/>
        <pt x="136" y="640" on="0"/>
        <pt x="138" y="642" on="1"/>
        <pt x="153" y="657" on="0"/>
        <pt x="167" y="662" on="1"/>
        <pt x="172" y="664" on="0"/>
      </contour>
    </TTGlyph>
    <TTGlyph name="asterisk" xMin="56" yMin="319" xMax="443" yMax="751">
      <contour>
        <pt x="239" y="749" on="1"/>
        <pt x="249" y="751" on="0"/>
        <pt x="259" y="749" on="1"/>
        <pt x="283" y="743" on="0"/>
        <pt x="288" y="721" on="1"/>
        <pt x="289" y="717" on="0"/>
        <pt x="289" y="714" on="1"/>
        <pt x="283" y="646" on="1"/>
        <pt x="276" y="582" on="1"/>
        <pt x="327" y="620" on="1"/>
        <pt x="380" y="659" on="0"/>
        <pt x="383" y="660" on="1"/>
        <pt x="387" y="662" on="0"/>
        <pt x="397" y="662" on="1"/>
        <pt x="414" y="660" on="0"/>
        <pt x="424" y="649" on="1"/>
        <pt x="443" y="628" on="0"/>
        <pt x="431" y="603" on="1"/>
        <pt x="427" y="594" on="0"/>
        <pt x="407" y="584" on="1"/>
        <pt x="400" y="581" on="0"/>
        <pt x="370" y="567" on="1"/>
        <pt x="311" y="539" on="1"/>
        <pt x="301" y="534" on="1"/>
        <pt x="360" y="507" on="1"/>
        <pt x="424" y="478" on="0"/>
        <pt x="429" y="470" on="1"/>
        <pt x="430" y="469" on="0"/>
        <pt x="431" y="466" on="1"/>
        <pt x="443" y="441" on="0"/>
        <pt x="424" y="420" on="1"/>
        <pt x="414" y="409" on="0"/>
        <pt x="397" y="407" on="1"/>
        <pt x="387" y="407" on="0"/>
        <pt x="383" y="409" on="1"/>
        <pt x="380" y="410" on="0"/>
        <pt x="327" y="449" on="1"/>
        <pt x="277" y="486" on="0"/>
        <pt x="276" y="487" on="1"/>
        <pt x="283" y="424" on="1"/>
        <pt x="289" y="354" on="0"/>
        <pt x="289" y="355" on="1"/>
        <pt x="289" y="332" on="0"/>
        <pt x="265" y="322" on="1"/>
        <pt x="258" y="319" on="0"/>
        <pt x="250" y="319" on="1"/>
        <pt x="223" y="319" on="0"/>
        <pt x="213" y="343" on="1"/>
        <pt x="210" y="349" on="0"/>
        <pt x="210" y="355" on="1"/>
        <pt x="210" y="354" on="0"/>
        <pt x="216" y="424" on="1"/>
        <pt x="223" y="486" on="0"/>
        <pt x="223" y="487" on="1"/>
        <pt x="172" y="449" on="1"/>
        <pt x="119" y="410" on="0"/>
        <pt x="116" y="409" on="1"/>
        <pt x="112" y="407" on="0"/>
        <pt x="102" y="407" on="1"/>
        <pt x="85" y="409" on="0"/>
        <pt x="75" y="420" on="1"/>
        <pt x="56" y="441" on="0"/>
        <pt x="68" y="466" on="1"/>
        <pt x="72" y="475" on="0"/>
        <pt x="92" y="485" on="1"/>
        <pt x="99" y="488" on="0"/>
        <pt x="129" y="502" on="1"/>
        <pt x="188" y="530" on="1"/>
        <pt x="198" y="535" on="1"/>
        <pt x="139" y="562" on="1"/>
        <pt x="75" y="591" on="0"/>
        <pt x="70" y="599" on="1"/>
        <pt x="69" y="600" on="0"/>
        <pt x="68" y="603" on="1"/>
        <pt x="56" y="628" on="0"/>
        <pt x="75" y="649" on="1"/>
        <pt x="85" y="660" on="0"/>
        <pt x="102" y="662" on="1"/>
        <pt x="112" y="662" on="0"/>
        <pt x="116" y="660" on="1"/>
        <pt x="119" y="659" on="0"/>
        <pt x="172" y="620" on="1"/>
        <pt x="222" y="583" on="0"/>
        <pt x="223" y="582" on="1"/>
        <pt x="216" y="646" on="1"/>
        <pt x="210" y="713" on="0"/>
        <pt x="210" y="714" on="1"/>
        <pt x="210" y="726" on="0"/>
        <pt x="219" y="737" on="1"/>
        <pt x="228" y="746" on="0"/>
      </contour>
    </TTGlyph>
    <TTGlyph name="at" xMin="53" yMin="-12" xMax="725" yMax="712">
      <contour>
        <pt x="361" y="704" on="1"/>
        <pt x="448" y="712" on="0"/>
        <pt x="530" y="671" on="1"/>
        <pt x="629" y="622" on="0"/>
        <pt x="682" y="517" on="1"/>
        <pt x="711" y="460" on="0"/>
        <pt x="720" y="391" on="1"/>
        <pt x="724" y="358" on="0"/>
        <pt x="721" y="304" on="1"/>
        <pt x="720" y="299" on="0"/>
        <pt x="720" y="296" on="1"/>
        <pt x="708" y="162" on="0"/>
        <pt x="643" y="131" on="1"/>
        <pt x="627" y="124" on="0"/>
        <pt x="602" y="124" on="1"/>
        <pt x="578" y="124" on="0"/>
        <pt x="560" y="130" on="1"/>
        <pt x="522" y="143" on="0"/>
        <pt x="507" y="170" on="1"/>
        <pt x="504" y="176" on="1"/>
        <pt x="494" y="167" on="1"/>
        <pt x="478" y="150" on="0"/>
        <pt x="455" y="140" on="1"/>
        <pt x="424" y="124" on="0"/>
        <pt x="388" y="124" on="1"/>
        <pt x="361" y="124" on="0"/>
        <pt x="343" y="129" on="1"/>
        <pt x="306" y="138" on="0"/>
        <pt x="274" y="164" on="1"/>
        <pt x="254" y="178" on="0"/>
        <pt x="235" y="204" on="1"/>
        <pt x="202" y="249" on="0"/>
        <pt x="191" y="312" on="1"/>
        <pt x="187" y="343" on="0"/>
        <pt x="191" y="382" on="1"/>
        <pt x="202" y="445" on="0"/>
        <pt x="235" y="490" on="1"/>
        <pt x="254" y="516" on="0"/>
        <pt x="274" y="530" on="1"/>
        <pt x="315" y="562" on="0"/>
        <pt x="362" y="569" on="1"/>
        <pt x="382" y="573" on="0"/>
        <pt x="410" y="570" on="1"/>
        <pt x="412" y="569" on="0"/>
        <pt x="414" y="569" on="1"/>
        <pt x="447" y="563" on="0"/>
        <pt x="477" y="541" on="1"/>
        <pt x="508" y="518" on="0"/>
        <pt x="529" y="484" on="1"/>
        <pt x="533" y="477" on="1"/>
        <pt x="557" y="477" on="1"/>
        <pt x="581" y="477" on="0"/>
        <pt x="583" y="476" on="1"/>
        <pt x="587" y="473" on="0"/>
        <pt x="588" y="449" on="1"/>
        <pt x="588" y="430" on="0"/>
        <pt x="588" y="338" on="1"/>
        <pt x="588" y="198" on="0"/>
        <pt x="592" y="188" on="1"/>
        <pt x="593" y="187" on="0"/>
        <pt x="594" y="184" on="1"/>
        <pt x="601" y="172" on="0"/>
        <pt x="609" y="170" on="1"/>
        <pt x="626" y="168" on="0"/>
        <pt x="639" y="178" on="1"/>
        <pt x="660" y="194" on="0"/>
        <pt x="667" y="242" on="1"/>
        <pt x="671" y="266" on="0"/>
        <pt x="671" y="329" on="1"/>
        <pt x="671" y="385" on="0"/>
        <pt x="665" y="413" on="1"/>
        <pt x="646" y="510" on="0"/>
        <pt x="581" y="575" on="1"/>
        <pt x="494" y="663" on="0"/>
        <pt x="375" y="657" on="1"/>
        <pt x="361" y="656" on="0"/>
        <pt x="346" y="654" on="1"/>
        <pt x="236" y="636" on="0"/>
        <pt x="167" y="540" on="1"/>
        <pt x="125" y="483" on="0"/>
        <pt x="112" y="413" on="1"/>
        <pt x="106" y="383" on="0"/>
        <pt x="106" y="311" on="0"/>
        <pt x="112" y="281" on="1"/>
        <pt x="135" y="161" on="0"/>
        <pt x="229" y="90" on="1"/>
        <pt x="282" y="50" on="0"/>
        <pt x="346" y="40" on="1"/>
        <pt x="425" y="26" on="0"/>
        <pt x="543" y="55" on="1"/>
        <pt x="548" y="56" on="0"/>
        <pt x="553" y="57" on="1"/>
        <pt x="600" y="68" on="0"/>
        <pt x="642" y="86" on="1"/>
        <pt x="647" y="88" on="0"/>
        <pt x="682" y="88" on="1"/>
        <pt x="716" y="88" on="1"/>
        <pt x="719" y="85" on="1"/>
        <pt x="725" y="79" on="0"/>
        <pt x="720" y="73" on="1"/>
        <pt x="719" y="71" on="0"/>
        <pt x="680" y="52" on="1"/>
        <pt x="552" y="-6" on="0"/>
        <pt x="404" y="-11" on="1"/>
        <pt x="357" y="-12" on="0"/>
        <pt x="313" y="-2" on="1"/>
        <pt x="223" y="21" on="0"/>
        <pt x="158" y="89" on="1"/>
        <pt x="73" y="175" on="0"/>
        <pt x="57" y="304" on="1"/>
        <pt x="53" y="340" on="0"/>
        <pt x="57" y="386" on="1"/>
        <pt x="57" y="389" on="0"/>
        <pt x="57" y="391" on="1"/>
        <pt x="66" y="460" on="0"/>
        <pt x="95" y="517" on="1"/>
        <pt x="152" y="632" on="0"/>
        <pt x="267" y="680" on="1"/>
        <pt x="313" y="699" on="0"/>
      </contour>
      <contour>
        <pt x="410" y="521" on="1"/>
        <pt x="392" y="526" on="0"/>
        <pt x="377" y="523" on="1"/>
        <pt x="331" y="514" on="0"/>
        <pt x="304" y="451" on="1"/>
        <pt x="299" y="442" on="0"/>
        <pt x="296" y="431" on="1"/>
        <pt x="284" y="396" on="0"/>
        <pt x="284" y="347" on="1"/>
        <pt x="284" y="316" on="0"/>
        <pt x="289" y="290" on="1"/>
        <pt x="297" y="247" on="0"/>
        <pt x="320" y="213" on="1"/>
        <pt x="341" y="183" on="0"/>
        <pt x="368" y="173" on="1"/>
        <pt x="376" y="171" on="0"/>
        <pt x="390" y="171" on="1"/>
        <pt x="416" y="171" on="0"/>
        <pt x="437" y="184" on="1"/>
        <pt x="466" y="202" on="0"/>
        <pt x="489" y="238" on="1"/>
        <pt x="494" y="247" on="1"/>
        <pt x="494" y="347" on="1"/>
        <pt x="494" y="447" on="1"/>
        <pt x="489" y="456" on="1"/>
        <pt x="472" y="484" on="0"/>
        <pt x="454" y="498" on="1"/>
        <pt x="432" y="517" on="0"/>
      </contour>
    </TTGlyph>
    <TTGlyph name="b" xMin="15" yMin="-14" xMax="524" yMax="694">
      <contour>
        <pt x="98" y="688" on="1"/>
        <pt x="184" y="694" on="0"/>
        <pt x="180" y="694" on="1"/>
        <pt x="184" y="694" on="1"/>
        <pt x="184" y="545" on="1"/>
        <pt x="184" y="397" on="1"/>
        <pt x="187" y="399" on="1"/>
        <pt x="234" y="431" on="0"/>
        <pt x="302" y="440" on="1"/>
        <pt x="307" y="441" on="0"/>
        <pt x="334" y="441" on="1"/>
        <pt x="357" y="441" on="0"/>
        <pt x="365" y="439" on="1"/>
        <pt x="451" y="421" on="0"/>
        <pt x="496" y="332" on="1"/>
        <pt x="514" y="294" on="0"/>
        <pt x="519" y="256" on="1"/>
        <pt x="524" y="222" on="0"/>
        <pt x="520" y="180" on="1"/>
        <pt x="506" y="99" on="0"/>
        <pt x="455" y="48" on="1"/>
        <pt x="431" y="24" on="0"/>
        <pt x="403" y="10" on="1"/>
        <pt x="362" y="-10" on="0"/>
        <pt x="325" y="-11" on="1"/>
        <pt x="239" y="-14" on="0"/>
        <pt x="178" y="44" on="1"/>
        <pt x="170" y="51" on="0"/>
        <pt x="169" y="50" on="1"/>
        <pt x="169" y="49" on="0"/>
        <pt x="156" y="25" on="1"/>
        <pt x="143" y="1" on="1"/>
        <pt x="118" y="0" on="1"/>
        <pt x="93" y="0" on="1"/>
        <pt x="93" y="293" on="1"/>
        <pt x="93" y="589" on="0"/>
        <pt x="92" y="593" on="1"/>
        <pt x="88" y="617" on="0"/>
        <pt x="67" y="623" on="1"/>
        <pt x="56" y="626" on="0"/>
        <pt x="33" y="627" on="1"/>
        <pt x="15" y="627" on="1"/>
        <pt x="15" y="655" on="1"/>
        <pt x="15" y="683" on="1"/>
        <pt x="17" y="683" on="1"/>
      </contour>
      <contour>
        <pt x="332" y="392" on="1"/>
        <pt x="299" y="399" on="0"/>
        <pt x="266" y="390" on="1"/>
        <pt x="223" y="379" on="0"/>
        <pt x="193" y="346" on="1"/>
        <pt x="187" y="339" on="1"/>
        <pt x="187" y="220" on="1"/>
        <pt x="187" y="101" on="1"/>
        <pt x="192" y="94" on="1"/>
        <pt x="232" y="33" on="0"/>
        <pt x="300" y="37" on="1"/>
        <pt x="306" y="37" on="0"/>
        <pt x="313" y="38" on="1"/>
        <pt x="349" y="42" on="0"/>
        <pt x="376" y="68" on="1"/>
        <pt x="395" y="87" on="0"/>
        <pt x="403" y="113" on="1"/>
        <pt x="413" y="141" on="0"/>
        <pt x="414" y="204" on="1"/>
        <pt x="415" y="292" on="0"/>
        <pt x="401" y="331" on="1"/>
        <pt x="385" y="374" on="0"/>
        <pt x="337" y="390" on="1"/>
        <pt x="335" y="391" on="0"/>
      </contour>
    </TTGlyph>
    <TTGlyph name="backslash" xMin="105" yMin="368" xMax="466" yMax="697">
      <contour>
        <pt x="194" y="688" on="1"/>
        <pt x="204" y="697" on="0"/>
        <pt x="211" y="691" on="1"/>
        <pt x="215" y="688" on="0"/>
        <pt x="222" y="681" on="1"/>
        <pt x="235" y="666" on="0"/>
        <pt x="233" y="663" on="1"/>
        <pt x="233" y="662" on="0"/>
        <pt x="221" y="648" on="1"/>
        <pt x="161" y="587" on="0"/>
        <pt x="154" y="501" on="1"/>
        <pt x="154" y="493" on="0"/>
        <pt x="156" y="493" on="1"/>
        <pt x="170" y="499" on="0"/>
        <pt x="187" y="499" on="1"/>
        <pt x="201" y="499" on="0"/>
        <pt x="209" y="496" on="1"/>
        <pt x="225" y="492" on="0"/>
        <pt x="237" y="478" on="1"/>
        <pt x="252" y="460" on="0"/>
        <pt x="252" y="435" on="1"/>
        <pt x="252" y="409" on="0"/>
        <pt x="237" y="391" on="1"/>
        <pt x="220" y="371" on="0"/>
        <pt x="191" y="369" on="1"/>
        <pt x="160" y="368" on="0"/>
        <pt x="140" y="389" on="1"/>
        <pt x="116" y="413" on="0"/>
        <pt x="109" y="459" on="1"/>
        <pt x="105" y="477" on="0"/>
        <pt x="108" y="514" on="1"/>
        <pt x="109" y="518" on="0"/>
        <pt x="109" y="520" on="1"/>
        <pt x="120" y="596" on="0"/>
        <pt x="162" y="652" on="1"/>
        <pt x="179" y="675" on="0"/>
      </contour>
      <contour>
        <pt x="408" y="688" on="1"/>
        <pt x="418" y="697" on="0"/>
        <pt x="425" y="691" on="1"/>
        <pt x="429" y="688" on="0"/>
        <pt x="436" y="681" on="1"/>
        <pt x="449" y="666" on="0"/>
        <pt x="447" y="663" on="1"/>
        <pt x="447" y="662" on="0"/>
        <pt x="435" y="648" on="1"/>
        <pt x="375" y="587" on="0"/>
        <pt x="368" y="501" on="1"/>
        <pt x="368" y="493" on="0"/>
        <pt x="370" y="493" on="1"/>
        <pt x="384" y="499" on="0"/>
        <pt x="401" y="499" on="1"/>
        <pt x="415" y="499" on="0"/>
        <pt x="423" y="496" on="1"/>
        <pt x="439" y="492" on="0"/>
        <pt x="451" y="478" on="1"/>
        <pt x="466" y="460" on="0"/>
        <pt x="466" y="435" on="1"/>
        <pt x="466" y="409" on="0"/>
        <pt x="451" y="391" on="1"/>
        <pt x="434" y="371" on="0"/>
        <pt x="405" y="369" on="1"/>
        <pt x="374" y="368" on="0"/>
        <pt x="354" y="389" on="1"/>
        <pt x="330" y="413" on="0"/>
        <pt x="323" y="459" on="1"/>
        <pt x="319" y="477" on="0"/>
        <pt x="322" y="514" on="1"/>
        <pt x="323" y="518" on="0"/>
        <pt x="323" y="520" on="1"/>
        <pt x="334" y="596" on="0"/>
        <pt x="376" y="652" on="1"/>
        <pt x="393" y="675" on="0"/>
      </contour>
    </TTGlyph>
    <TTGlyph name="bar" xMin="0" yMin="243" xMax="999" yMax="290">
      <contour>
        <pt x="0" y="267" on="1"/>
        <pt x="0" y="290" on="1"/>
        <pt x="500" y="290" on="1"/>
        <pt x="999" y="290" on="1"/>
        <pt x="999" y="267" on="1"/>
        <pt x="999" y="243" on="1"/>
        <pt x="500" y="243" on="1"/>
        <pt x="0" y="243" on="1"/>
      </contour>
    </TTGlyph>
    <TTGlyph name="braceleft" xMin="0" yMin="243" xMax="499" yMax="290">
      <contour>
        <pt x="0" y="267" on="1"/>
        <pt x="0" y="290" on="1"/>
        <pt x="250" y="290" on="1"/>
        <pt x="499" y="290" on="1"/>
        <pt x="499" y="267" on="1"/>
        <pt x="499" y="243" on="1"/>
        <pt x="250" y="243" on="1"/>
        <pt x="0" y="243" on="1"/>
      </contour>
    </TTGlyph>
    <TTGlyph name="braceright" xMin="116" yMin="508" xMax="427" yMax="702">
      <contour>
        <pt x="194" y="701" on="1"/>
        <pt x="203" y="702" on="0"/>
        <pt x="214" y="701" on="1"/>
        <pt x="241" y="694" on="0"/>
        <pt x="251" y="673" on="1"/>
        <pt x="261" y="650" on="0"/>
        <pt x="247" y="629" on="1"/>
        <pt x="161" y="508" on="1"/>
        <pt x="116" y="531" on="1"/>
        <pt x="117" y="531" on="0"/>
        <pt x="139" y="602" on="1"/>
        <pt x="165" y="677" on="0"/>
        <pt x="165" y="678" on="1"/>
        <pt x="175" y="696" on="0"/>
      </contour>
      <contour>
        <pt x="360" y="701" on="1"/>
        <pt x="369" y="702" on="0"/>
        <pt x="380" y="701" on="1"/>
        <pt x="407" y="694" on="0"/>
        <pt x="417" y="673" on="1"/>
        <pt x="427" y="650" on="0"/>
        <pt x="413" y="629" on="1"/>
        <pt x="327" y="508" on="1"/>
        <pt x="282" y="531" on="1"/>
        <pt x="283" y="531" on="0"/>
        <pt x="305" y="602" on="1"/>
        <pt x="331" y="677" on="0"/>
        <pt x="331" y="678" on="1"/>
        <pt x="341" y="696" on="0"/>
      </contour>
    </TTGlyph>
    <TTGlyph name="bracketleft" xMin="118" yMin="-250" xMax="255" yMax="750">
      <contour>
        <pt x="118" y="250" on="1"/>
        <pt x="118" y="750" on="1"/>
        <pt x="187" y="750" on="1"/>
        <pt x="255" y="750" on="1"/>
        <pt x="255" y="730" on="1"/>
        <pt x="255" y="710" on="1"/>
        <pt x="207" y="710" on="1"/>
        <pt x="158" y="710" on="1"/>
        <pt x="158" y="250" on="1"/>
        <pt x="158" y="-210" on="1"/>
        <pt x="207" y="-210" on="1"/>
        <pt x="255" y="-210" on="1"/>
        <pt x="255" y="-230" on="1"/>
        <pt x="255" y="-250" on="1"/>
        <pt x="187" y="-250" on="1"/>
        <pt x="118" y="-250" on="1"/>
      </contour>
    </TTGlyph>
    <TTGlyph name="bracketright" xMin="22" yMin="-250" xMax="159" yMax="750">
      <contour>
        <pt x="22" y="730" on="1"/>
        <pt x="22" y="750" on="1"/>
        <pt x="91" y="750" on="1"/>
        <pt x="159" y="750" on="1"/>
        <pt x="159" y="250" on="1"/>
        <pt x="159" y="-250" on="1"/>
        <pt x="91" y="-250" on="1"/>
        <pt x="22" y="-250" on="1"/>
        <pt x="22" y="-230" on="1"/>
        <pt x="22" y="-210" on="1"/>
        <pt x="71" y="-210" on="1"/>
        <pt x="119" y="-210" on="1"/>
        <pt x="119" y="250" on="1"/>
        <pt x="119" y="710" on="1"/>
        <pt x="71" y="710" on="1"/>
        <pt x="22" y="710" on="1"/>
      </contour>
    </TTGlyph>
    <TTGlyph name="c" xMin="31" yMin="-14" xMax="417" yMax="449">
      <contour>
        <pt x="227" y="447" on="1"/>
        <pt x="249" y="449" on="0"/>
        <pt x="290" y="446" on="1"/>
        <pt x="357" y="437" on="0"/>
        <pt x="387" y="402" on="1"/>
        <pt x="397" y="390" on="0"/>
        <pt x="401" y="374" on="1"/>
        <pt x="405" y="360" on="0"/>
        <pt x="403" y="340" on="1"/>
        <pt x="395" y="305" on="0"/>
        <pt x="358" y="297" on="1"/>
        <pt x="320" y="289" on="0"/>
        <pt x="298" y="319" on="1"/>
        <pt x="291" y="328" on="0"/>
        <pt x="288" y="340" on="1"/>
        <pt x="283" y="370" on="0"/>
        <pt x="298" y="389" on="1"/>
        <pt x="301" y="392" on="0"/>
        <pt x="301" y="394" on="1"/>
        <pt x="301" y="397" on="0"/>
        <pt x="257" y="397" on="1"/>
        <pt x="234" y="397" on="0"/>
        <pt x="229" y="396" on="1"/>
        <pt x="203" y="389" on="0"/>
        <pt x="183" y="369" on="1"/>
        <pt x="150" y="336" on="0"/>
        <pt x="143" y="268" on="1"/>
        <pt x="139" y="233" on="0"/>
        <pt x="142" y="182" on="1"/>
        <pt x="143" y="177" on="0"/>
        <pt x="143" y="174" on="1"/>
        <pt x="150" y="126" on="0"/>
        <pt x="169" y="97" on="1"/>
        <pt x="204" y="44" on="0"/>
        <pt x="270" y="39" on="1"/>
        <pt x="313" y="38" on="0"/>
        <pt x="340" y="70" on="1"/>
        <pt x="357" y="92" on="0"/>
        <pt x="364" y="117" on="1"/>
        <pt x="367" y="127" on="0"/>
        <pt x="372" y="128" on="1"/>
        <pt x="376" y="129" on="0"/>
        <pt x="390" y="129" on="1"/>
        <pt x="409" y="129" on="1"/>
        <pt x="412" y="126" on="1"/>
        <pt x="417" y="121" on="0"/>
        <pt x="411" y="106" on="1"/>
        <pt x="406" y="88" on="0"/>
        <pt x="390" y="61" on="1"/>
        <pt x="338" y="-14" on="0"/>
        <pt x="242" y="-11" on="1"/>
        <pt x="194" y="-8" on="0"/>
        <pt x="154" y="12" on="1"/>
        <pt x="55" y="63" on="0"/>
        <pt x="35" y="182" on="1"/>
        <pt x="31" y="206" on="0"/>
        <pt x="34" y="242" on="1"/>
        <pt x="35" y="245" on="0"/>
        <pt x="35" y="247" on="1"/>
        <pt x="47" y="341" on="0"/>
        <pt x="117" y="400" on="1"/>
        <pt x="166" y="439" on="0"/>
      </contour>
    </TTGlyph>
    <TTGlyph name="colon" xMin="67" yMin="-6" xMax="210" yMax="435">
      <contour>
        <pt x="123" y="429" on="1"/>
        <pt x="145" y="435" on="0"/>
        <pt x="168" y="424" on="1"/>
        <pt x="187" y="414" on="0"/>
        <pt x="197" y="395" on="1"/>
        <pt x="210" y="366" on="0"/>
        <pt x="197" y="336" on="1"/>
        <pt x="187" y="317" on="0"/>
        <pt x="168" y="307" on="1"/>
        <pt x="138" y="294" on="0"/>
        <pt x="109" y="307" on="1"/>
        <pt x="90" y="317" on="0"/>
        <pt x="80" y="336" on="1"/>
        <pt x="67" y="366" on="0"/>
        <pt x="80" y="395" on="1"/>
        <pt x="92" y="421" on="0"/>
      </contour>
      <contour>
        <pt x="123" y="129" on="1"/>
        <pt x="145" y="135" on="0"/>
        <pt x="168" y="124" on="1"/>
        <pt x="187" y="114" on="0"/>
        <pt x="197" y="95" on="1"/>
        <pt x="210" y="66" on="0"/>
        <pt x="197" y="36" on="1"/>
        <pt x="187" y="17" on="0"/>
        <pt x="168" y="7" on="1"/>
        <pt x="138" y="-6" on="0"/>
        <pt x="109" y="7" on="1"/>
        <pt x="90" y="17" on="0"/>
        <pt x="80" y="36" on="1"/>
        <pt x="67" y="66" on="0"/>
        <pt x="80" y="95" on="1"/>
        <pt x="92" y="121" on="0"/>
      </contour>
    </TTGlyph>
    <TTGlyph name="comma" xMin="73" yMin="-194" xMax="217" yMax="137">
      <contour>
        <pt x="124" y="130" on="1"/>
        <pt x="158" y="137" on="0"/>
        <pt x="183" y="112" on="1"/>
        <pt x="204" y="91" on="0"/>
        <pt x="213" y="46" on="1"/>
        <pt x="217" y="12" on="0"/>
        <pt x="212" y="-27" on="1"/>
        <pt x="201" y="-98" on="0"/>
        <pt x="158" y="-157" on="1"/>
        <pt x="139" y="-184" on="0"/>
        <pt x="123" y="-194" on="1"/>
        <pt x="118" y="-194" on="1"/>
        <pt x="111" y="-192" on="0"/>
        <pt x="95" y="-172" on="1"/>
        <pt x="92" y="-169" on="0"/>
        <pt x="92" y="-167" on="1"/>
        <pt x="91" y="-161" on="0"/>
        <pt x="104" y="-147" on="1"/>
        <pt x="139" y="-111" on="0"/>
        <pt x="156" y="-61" on="1"/>
        <pt x="166" y="-29" on="0"/>
        <pt x="168" y="-2" on="1"/>
        <pt x="168" y="6" on="0"/>
        <pt x="166" y="6" on="1"/>
        <pt x="156" y="1" on="0"/>
        <pt x="139" y="1" on="1"/>
        <pt x="124" y="1" on="0"/>
        <pt x="116" y="4" on="1"/>
        <pt x="100" y="8" on="0"/>
        <pt x="88" y="22" on="1"/>
        <pt x="73" y="40" on="0"/>
        <pt x="73" y="66" on="1"/>
        <pt x="73" y="91" on="0"/>
        <pt x="88" y="109" on="1"/>
        <pt x="99" y="123" on="0"/>
      </contour>
    </TTGlyph>
    <TTGlyph name="d" xMin="30" yMin="-14" xMax="540" yMax="694">
      <contour>
        <pt x="376" y="688" on="1"/>
        <pt x="462" y="694" on="0"/>
        <pt x="458" y="694" on="1"/>
        <pt x="462" y="694" on="1"/>
        <pt x="462" y="395" on="1"/>
        <pt x="462" y="94" on="0"/>
        <pt x="463" y="91" on="1"/>
        <pt x="467" y="66" on="0"/>
        <pt x="488" y="60" on="1"/>
        <pt x="499" y="57" on="0"/>
        <pt x="522" y="56" on="1"/>
        <pt x="540" y="56" on="1"/>
        <pt x="540" y="28" on="1"/>
        <pt x="540" y="0" on="1"/>
        <pt x="376" y="-11" on="1"/>
        <pt x="368" y="-11" on="1"/>
        <pt x="368" y="14" on="1"/>
        <pt x="368" y="39" on="1"/>
        <pt x="361" y="33" on="1"/>
        <pt x="294" y="-14" on="0"/>
        <pt x="218" y="-11" on="1"/>
        <pt x="185" y="-10" on="0"/>
        <pt x="154" y="5" on="1"/>
        <pt x="122" y="21" on="0"/>
        <pt x="98" y="45" on="1"/>
        <pt x="30" y="116" on="0"/>
        <pt x="33" y="224" on="1"/>
        <pt x="36" y="279" on="0"/>
        <pt x="57" y="324" on="1"/>
        <pt x="75" y="359" on="0"/>
        <pt x="98" y="383" on="1"/>
        <pt x="123" y="408" on="0"/>
        <pt x="154" y="423" on="1"/>
        <pt x="176" y="434" on="0"/>
        <pt x="199" y="439" on="1"/>
        <pt x="210" y="441" on="0"/>
        <pt x="234" y="441" on="1"/>
        <pt x="267" y="441" on="0"/>
        <pt x="295" y="434" on="1"/>
        <pt x="331" y="425" on="0"/>
        <pt x="361" y="406" on="1"/>
        <pt x="370" y="401" on="0"/>
        <pt x="371" y="400" on="1"/>
        <pt x="370" y="593" on="1"/>
        <pt x="366" y="617" on="0"/>
        <pt x="345" y="623" on="1"/>
        <pt x="334" y="626" on="0"/>
        <pt x="311" y="627" on="1"/>
        <pt x="293" y="627" on="1"/>
        <pt x="293" y="655" on="1"/>
        <pt x="293" y="683" on="1"/>
        <pt x="295" y="683" on="1"/>
      </contour>
      <contour>
        <pt x="287" y="393" on="1"/>
        <pt x="255" y="398" on="0"/>
        <pt x="226" y="390" on="1"/>
        <pt x="173" y="375" on="0"/>
        <pt x="154" y="326" on="1"/>
        <pt x="141" y="292" on="0"/>
        <pt x="141" y="215" on="1"/>
        <pt x="141" y="134" on="0"/>
        <pt x="155" y="99" on="1"/>
        <pt x="172" y="54" on="0"/>
        <pt x="224" y="39" on="1"/>
        <pt x="232" y="37" on="0"/>
        <pt x="250" y="37" on="1"/>
        <pt x="269" y="37" on="0"/>
        <pt x="275" y="38" on="1"/>
        <pt x="330" y="50" on="0"/>
        <pt x="364" y="98" on="1"/>
        <pt x="368" y="104" on="1"/>
        <pt x="368" y="223" on="1"/>
        <pt x="368" y="342" on="1"/>
        <pt x="362" y="349" on="1"/>
        <pt x="332" y="384" on="0"/>
      </contour>
    </TTGlyph>
    <TTGlyph name="dollar" xMin="38" yMin="-56" xMax="446" yMax="750">
      <contour>
        <pt x="222" y="727" on="1"/>
        <pt x="222" y="750" on="1"/>
        <pt x="250" y="750" on="1"/>
        <pt x="278" y="750" on="1"/>
        <pt x="278" y="727" on="1"/>
        <pt x="279" y="704" on="1"/>
        <pt x="288" y="702" on="1"/>
        <pt x="346" y="694" on="0"/>
        <pt x="386" y="659" on="1"/>
        <pt x="444" y="609" on="0"/>
        <pt x="444" y="521" on="1"/>
        <pt x="444" y="477" on="0"/>
        <pt x="407" y="464" on="1"/>
        <pt x="397" y="461" on="0"/>
        <pt x="386" y="461" on="1"/>
        <pt x="370" y="461" on="0"/>
        <pt x="357" y="468" on="1"/>
        <pt x="326" y="483" on="0"/>
        <pt x="327" y="521" on="1"/>
        <pt x="328" y="556" on="0"/>
        <pt x="357" y="570" on="1"/>
        <pt x="369" y="577" on="0"/>
        <pt x="379" y="577" on="1"/>
        <pt x="382" y="577" on="0"/>
        <pt x="382" y="578" on="1"/>
        <pt x="378" y="586" on="1"/>
        <pt x="351" y="632" on="0"/>
        <pt x="290" y="645" on="1"/>
        <pt x="280" y="647" on="0"/>
        <pt x="278" y="647" on="0"/>
        <pt x="278" y="530" on="1"/>
        <pt x="278" y="412" on="1"/>
        <pt x="288" y="410" on="1"/>
        <pt x="325" y="401" on="0"/>
        <pt x="357" y="379" on="1"/>
        <pt x="388" y="358" on="0"/>
        <pt x="409" y="323" on="1"/>
        <pt x="432" y="285" on="0"/>
        <pt x="441" y="238" on="1"/>
        <pt x="446" y="207" on="0"/>
        <pt x="442" y="168" on="1"/>
        <pt x="436" y="132" on="0"/>
        <pt x="421" y="102" on="1"/>
        <pt x="384" y="24" on="0"/>
        <pt x="305" y="-2" on="1"/>
        <pt x="298" y="-4" on="0"/>
        <pt x="292" y="-6" on="1"/>
        <pt x="280" y="-8" on="0"/>
        <pt x="279" y="-9" on="1"/>
        <pt x="278" y="-9" on="0"/>
        <pt x="278" y="-32" on="1"/>
        <pt x="278" y="-56" on="1"/>
        <pt x="250" y="-56" on="1"/>
        <pt x="222" y="-56" on="1"/>
        <pt x="222" y="-33" on="1"/>
        <pt x="222" y="-10" on="1"/>
        <pt x="213" y="-8" on="1"/>
        <pt x="205" y="-8" on="0"/>
        <pt x="193" y="-4" on="1"/>
        <pt x="123" y="13" on="0"/>
        <pt x="88" y="68" on="1"/>
        <pt x="55" y="117" on="0"/>
        <pt x="55" y="186" on="1"/>
        <pt x="55" y="215" on="0"/>
        <pt x="71" y="230" on="1"/>
        <pt x="88" y="247" on="0"/>
        <pt x="113" y="247" on="1"/>
        <pt x="139" y="247" on="0"/>
        <pt x="156" y="230" on="1"/>
        <pt x="180" y="207" on="0"/>
        <pt x="169" y="170" on="1"/>
        <pt x="165" y="156" on="0"/>
        <pt x="155" y="147" on="1"/>
        <pt x="144" y="136" on="0"/>
        <pt x="126" y="132" on="1"/>
        <pt x="117" y="130" on="1"/>
        <pt x="115" y="130" on="0"/>
        <pt x="120" y="118" on="1"/>
        <pt x="139" y="75" on="0"/>
        <pt x="184" y="57" on="1"/>
        <pt x="208" y="49" on="0"/>
        <pt x="218" y="47" on="1"/>
        <pt x="222" y="47" on="1"/>
        <pt x="222" y="178" on="1"/>
        <pt x="222" y="309" on="1"/>
        <pt x="218" y="310" on="1"/>
        <pt x="179" y="320" on="0"/>
        <pt x="163" y="329" on="1"/>
        <pt x="122" y="350" on="0"/>
        <pt x="96" y="385" on="1"/>
        <pt x="38" y="461" on="0"/>
        <pt x="61" y="554" on="1"/>
        <pt x="66" y="576" on="0"/>
        <pt x="76" y="596" on="1"/>
        <pt x="90" y="625" on="0"/>
        <pt x="117" y="651" on="1"/>
        <pt x="137" y="671" on="0"/>
        <pt x="161" y="683" on="1"/>
        <pt x="187" y="697" on="0"/>
        <pt x="218" y="702" on="1"/>
        <pt x="222" y="703" on="1"/>
      </contour>
      <contour>
        <pt x="222" y="536" on="1"/>
        <pt x="222" y="646" on="0"/>
        <pt x="221" y="646" on="1"/>
        <pt x="195" y="636" on="1"/>
        <pt x="153" y="615" on="0"/>
        <pt x="138" y="574" on="1"/>
        <pt x="117" y="515" on="0"/>
        <pt x="156" y="467" on="1"/>
        <pt x="170" y="450" on="0"/>
        <pt x="190" y="439" on="1"/>
        <pt x="207" y="429" on="0"/>
        <pt x="218" y="427" on="1"/>
        <pt x="222" y="427" on="1"/>
      </contour>
      <contour>
        <pt x="286" y="293" on="1"/>
        <pt x="279" y="295" on="0"/>
        <pt x="278" y="295" on="1"/>
        <pt x="278" y="172" on="1"/>
        <pt x="278" y="49" on="0"/>
        <pt x="279" y="49" on="1"/>
        <pt x="287" y="49" on="0"/>
        <pt x="302" y="58" on="1"/>
        <pt x="353" y="87" on="0"/>
        <pt x="365" y="144" on="1"/>
        <pt x="370" y="169" on="0"/>
        <pt x="366" y="197" on="1"/>
        <pt x="362" y="217" on="0"/>
        <pt x="354" y="231" on="1"/>
        <pt x="332" y="277" on="0"/>
      </contour>
    </TTGlyph>
    <TTGlyph name="e" xMin="27" yMin="-14" xMax="417" yMax="450">
      <contour>
        <pt x="215" y="447" on="1"/>
        <pt x="234" y="450" on="0"/>
        <pt x="271" y="445" on="1"/>
        <pt x="325" y="436" on="0"/>
        <pt x="361" y="400" on="1"/>
        <pt x="399" y="362" on="0"/>
        <pt x="411" y="296" on="1"/>
        <pt x="415" y="268" on="0"/>
        <pt x="415" y="245" on="1"/>
        <pt x="415" y="238" on="0"/>
        <pt x="411" y="234" on="1"/>
        <pt x="408" y="231" on="1"/>
        <pt x="272" y="231" on="1"/>
        <pt x="136" y="231" on="1"/>
        <pt x="136" y="214" on="1"/>
        <pt x="136" y="138" on="0"/>
        <pt x="157" y="102" on="1"/>
        <pt x="180" y="62" on="0"/>
        <pt x="227" y="47" on="1"/>
        <pt x="251" y="40" on="0"/>
        <pt x="274" y="40" on="1"/>
        <pt x="290" y="40" on="0"/>
        <pt x="297" y="42" on="1"/>
        <pt x="345" y="56" on="0"/>
        <pt x="363" y="116" on="1"/>
        <pt x="365" y="124" on="0"/>
        <pt x="369" y="128" on="1"/>
        <pt x="372" y="131" on="1"/>
        <pt x="390" y="131" on="1"/>
        <pt x="408" y="131" on="1"/>
        <pt x="411" y="128" on="1"/>
        <pt x="417" y="123" on="0"/>
        <pt x="412" y="107" on="1"/>
        <pt x="403" y="81" on="0"/>
        <pt x="388" y="61" on="1"/>
        <pt x="373" y="38" on="0"/>
        <pt x="348" y="21" on="1"/>
        <pt x="309" y="-8" on="0"/>
        <pt x="256" y="-11" on="1"/>
        <pt x="166" y="-14" on="0"/>
        <pt x="99" y="51" on="1"/>
        <pt x="72" y="77" on="0"/>
        <pt x="52" y="115" on="1"/>
        <pt x="27" y="167" on="0"/>
        <pt x="28" y="227" on="1"/>
        <pt x="29" y="279" on="0"/>
        <pt x="53" y="329" on="1"/>
        <pt x="98" y="420" on="0"/>
        <pt x="192" y="443" on="1"/>
        <pt x="203" y="446" on="0"/>
      </contour>
      <contour>
        <pt x="255" y="398" on="1"/>
        <pt x="242" y="402" on="0"/>
        <pt x="221" y="400" on="1"/>
        <pt x="170" y="389" on="0"/>
        <pt x="149" y="337" on="1"/>
        <pt x="138" y="306" on="0"/>
        <pt x="138" y="281" on="1"/>
        <pt x="138" y="277" on="1"/>
        <pt x="230" y="277" on="1"/>
        <pt x="322" y="277" on="1"/>
        <pt x="322" y="285" on="1"/>
        <pt x="319" y="321" on="0"/>
        <pt x="305" y="352" on="1"/>
        <pt x="287" y="387" on="0"/>
      </contour>
    </TTGlyph>
    <TTGlyph name="eight" xMin="39" yMin="-36" xMax="464" yMax="665">
      <contour>
        <pt x="233" y="665" on="1"/>
        <pt x="282" y="664" on="1"/>
        <pt x="371" y="648" on="0"/>
        <pt x="410" y="582" on="1"/>
        <pt x="413" y="576" on="0"/>
        <pt x="416" y="571" on="1"/>
        <pt x="425" y="550" on="0"/>
        <pt x="428" y="536" on="1"/>
        <pt x="432" y="513" on="0"/>
        <pt x="428" y="484" on="1"/>
        <pt x="418" y="438" on="0"/>
        <pt x="378" y="399" on="1"/>
        <pt x="361" y="382" on="0"/>
        <pt x="339" y="368" on="1"/>
        <pt x="333" y="364" on="0"/>
        <pt x="332" y="363" on="1"/>
        <pt x="351" y="350" on="1"/>
        <pt x="371" y="337" on="0"/>
        <pt x="378" y="332" on="1"/>
        <pt x="399" y="316" on="0"/>
        <pt x="413" y="298" on="1"/>
        <pt x="464" y="236" on="0"/>
        <pt x="456" y="156" on="1"/>
        <pt x="446" y="66" on="0"/>
        <pt x="368" y="14" on="1"/>
        <pt x="338" y="-6" on="0"/>
        <pt x="301" y="-16" on="1"/>
        <pt x="217" y="-36" on="0"/>
        <pt x="140" y="5" on="1"/>
        <pt x="131" y="10" on="0"/>
        <pt x="123" y="15" on="1"/>
        <pt x="59" y="57" on="0"/>
        <pt x="45" y="128" on="1"/>
        <pt x="39" y="160" on="0"/>
        <pt x="45" y="190" on="1"/>
        <pt x="54" y="232" on="0"/>
        <pt x="83" y="269" on="1"/>
        <pt x="101" y="292" on="0"/>
        <pt x="123" y="308" on="1"/>
        <pt x="145" y="325" on="0"/>
        <pt x="159" y="332" on="1"/>
        <pt x="162" y="334" on="0"/>
        <pt x="163" y="335" on="1"/>
        <pt x="154" y="342" on="1"/>
        <pt x="92" y="380" on="0"/>
        <pt x="75" y="449" on="1"/>
        <pt x="55" y="521" on="0"/>
        <pt x="99" y="588" on="1"/>
        <pt x="120" y="617" on="0"/>
        <pt x="145" y="634" on="1"/>
        <pt x="175" y="653" on="0"/>
        <pt x="205" y="660" on="1"/>
        <pt x="215" y="664" on="0"/>
      </contour>
      <contour>
        <pt x="267" y="615" on="1"/>
        <pt x="209" y="623" on="0"/>
        <pt x="167" y="587" on="1"/>
        <pt x="154" y="576" on="0"/>
        <pt x="147" y="563" on="1"/>
        <pt x="122" y="516" on="0"/>
        <pt x="163" y="475" on="1"/>
        <pt x="171" y="466" on="0"/>
        <pt x="224" y="432" on="1"/>
        <pt x="235" y="425" on="1"/>
        <pt x="286" y="391" on="0"/>
        <pt x="288" y="393" on="1"/>
        <pt x="297" y="396" on="0"/>
        <pt x="320" y="419" on="1"/>
        <pt x="350" y="449" on="0"/>
        <pt x="359" y="486" on="1"/>
        <pt x="364" y="508" on="0"/>
        <pt x="358" y="535" on="1"/>
        <pt x="350" y="563" on="0"/>
        <pt x="330" y="583" on="1"/>
        <pt x="304" y="609" on="0"/>
      </contour>
      <contour>
        <pt x="280" y="261" on="1"/>
        <pt x="214" y="303" on="0"/>
        <pt x="217" y="301" on="1"/>
        <pt x="209" y="306" on="1"/>
        <pt x="199" y="299" on="1"/>
        <pt x="122" y="248" on="0"/>
        <pt x="117" y="168" on="1"/>
        <pt x="117" y="160" on="0"/>
        <pt x="117" y="152" on="1"/>
        <pt x="120" y="102" on="0"/>
        <pt x="157" y="68" on="1"/>
        <pt x="183" y="42" on="0"/>
        <pt x="224" y="33" on="1"/>
        <pt x="248" y="29" on="0"/>
        <pt x="277" y="33" on="1"/>
        <pt x="345" y="47" on="0"/>
        <pt x="371" y="97" on="1"/>
        <pt x="375" y="104" on="0"/>
        <pt x="377" y="112" on="1"/>
        <pt x="394" y="168" on="0"/>
        <pt x="351" y="211" on="1"/>
        <pt x="342" y="220" on="0"/>
      </contour>
    </TTGlyph>
    <TTGlyph name="equal" xMin="56" yMin="133" xMax="722" yMax="367">
      <contour>
        <pt x="66" y="365" on="1"/>
        <pt x="70" y="367" on="1"/>
        <pt x="388" y="367" on="1"/>
        <pt x="707" y="367" on="1"/>
        <pt x="711" y="365" on="1"/>
        <pt x="714" y="363" on="0"/>
        <pt x="719" y="358" on="1"/>
        <pt x="722" y="352" on="0"/>
        <pt x="722" y="342" on="0"/>
        <pt x="719" y="336" on="1"/>
        <pt x="714" y="331" on="0"/>
        <pt x="712" y="330" on="1"/>
        <pt x="708" y="328" on="1"/>
        <pt x="390" y="327" on="1"/>
        <pt x="72" y="327" on="1"/>
        <pt x="66" y="329" on="1"/>
        <pt x="56" y="335" on="0"/>
        <pt x="56" y="347" on="1"/>
        <pt x="56" y="354" on="0"/>
        <pt x="59" y="358" on="1"/>
        <pt x="61" y="362" on="0"/>
      </contour>
      <contour>
        <pt x="66" y="171" on="1"/>
        <pt x="72" y="173" on="1"/>
        <pt x="390" y="173" on="1"/>
        <pt x="708" y="173" on="1"/>
        <pt x="712" y="170" on="1"/>
        <pt x="714" y="169" on="0"/>
        <pt x="719" y="164" on="1"/>
        <pt x="722" y="158" on="0"/>
        <pt x="722" y="148" on="0"/>
        <pt x="719" y="142" on="1"/>
        <pt x="714" y="137" on="0"/>
        <pt x="711" y="135" on="1"/>
        <pt x="707" y="133" on="1"/>
        <pt x="388" y="133" on="1"/>
        <pt x="70" y="133" on="1"/>
        <pt x="66" y="135" on="1"/>
        <pt x="61" y="138" on="0"/>
        <pt x="59" y="142" on="1"/>
        <pt x="56" y="146" on="0"/>
        <pt x="56" y="153" on="1"/>
        <pt x="56" y="165" on="0"/>
      </contour>
    </TTGlyph>
    <TTGlyph name="exclam" xMin="73" yMin="0" xMax="204" yMax="719">
      <contour>
        <pt x="125" y="715" on="1"/>
        <pt x="141" y="719" on="0"/>
        <pt x="160" y="713" on="1"/>
        <pt x="195" y="701" on="0"/>
        <pt x="203" y="668" on="1"/>
        <pt x="204" y="663" on="0"/>
        <pt x="204" y="657" on="1"/>
        <pt x="163" y="213" on="1"/>
        <pt x="154" y="206" on="0"/>
        <pt x="139" y="206" on="1"/>
        <pt x="117" y="206" on="0"/>
        <pt x="114" y="213" on="1"/>
        <pt x="73" y="657" on="1"/>
        <pt x="73" y="669" on="0"/>
        <pt x="79" y="681" on="1"/>
        <pt x="91" y="707" on="0"/>
      </contour>
      <contour>
        <pt x="124" y="129" on="1"/>
        <pt x="159" y="137" on="0"/>
        <pt x="185" y="112" on="1"/>
        <pt x="204" y="91" on="0"/>
        <pt x="204" y="66" on="1"/>
        <pt x="204" y="50" on="0"/>
        <pt x="197" y="36" on="1"/>
        <pt x="179" y="2" on="0"/>
        <pt x="138" y="0" on="1"/>
        <pt x="100" y="0" on="0"/>
        <pt x="81" y="34" on="1"/>
        <pt x="73" y="49" on="0"/>
        <pt x="73" y="66" on="1"/>
        <pt x="73" y="81" on="0"/>
        <pt x="80" y="95" on="1"/>
        <pt x="93" y="123" on="0"/>
      </contour>
    </TTGlyph>
    <TTGlyph name="f" xMin="21" yMin="0" xMax="384" yMax="706">
      <contour>
        <pt x="278" y="704" on="1"/>
        <pt x="305" y="706" on="0"/>
        <pt x="318" y="703" on="1"/>
        <pt x="362" y="694" on="0"/>
        <pt x="377" y="649" on="1"/>
        <pt x="381" y="638" on="0"/>
        <pt x="382" y="626" on="1"/>
        <pt x="384" y="599" on="0"/>
        <pt x="366" y="581" on="1"/>
        <pt x="350" y="566" on="0"/>
        <pt x="326" y="566" on="1"/>
        <pt x="312" y="567" on="1"/>
        <pt x="311" y="567" on="1"/>
        <pt x="272" y="579" on="0"/>
        <pt x="270" y="619" on="1"/>
        <pt x="270" y="622" on="0"/>
        <pt x="270" y="625" on="1"/>
        <pt x="271" y="639" on="0"/>
        <pt x="279" y="653" on="1"/>
        <pt x="282" y="658" on="1"/>
        <pt x="275" y="658" on="1"/>
        <pt x="245" y="655" on="0"/>
        <pt x="222" y="632" on="1"/>
        <pt x="196" y="605" on="0"/>
        <pt x="189" y="567" on="1"/>
        <pt x="188" y="561" on="0"/>
        <pt x="187" y="494" on="1"/>
        <pt x="187" y="431" on="1"/>
        <pt x="240" y="431" on="1"/>
        <pt x="293" y="431" on="1"/>
        <pt x="293" y="403" on="1"/>
        <pt x="293" y="375" on="1"/>
        <pt x="242" y="375" on="1"/>
        <pt x="190" y="375" on="1"/>
        <pt x="190" y="220" on="1"/>
        <pt x="190" y="64" on="0"/>
        <pt x="191" y="63" on="1"/>
        <pt x="194" y="57" on="0"/>
        <pt x="249" y="56" on="1"/>
        <pt x="287" y="56" on="1"/>
        <pt x="287" y="28" on="1"/>
        <pt x="287" y="0" on="1"/>
        <pt x="278" y="0" on="1"/>
        <pt x="279" y="0" on="0"/>
        <pt x="207" y="2" on="1"/>
        <pt x="145" y="3" on="0"/>
        <pt x="92" y="2" on="1"/>
        <pt x="31" y="0" on="0"/>
        <pt x="30" y="0" on="1"/>
        <pt x="21" y="0" on="1"/>
        <pt x="21" y="28" on="1"/>
        <pt x="21" y="56" on="1"/>
        <pt x="42" y="56" on="1"/>
        <pt x="94" y="56" on="0"/>
        <pt x="98" y="63" on="1"/>
        <pt x="99" y="64" on="0"/>
        <pt x="99" y="220" on="1"/>
        <pt x="99" y="375" on="1"/>
        <pt x="66" y="375" on="1"/>
        <pt x="33" y="375" on="1"/>
        <pt x="33" y="403" on="1"/>
        <pt x="33" y="431" on="1"/>
        <pt x="66" y="431" on="1"/>
        <pt x="99" y="431" on="1"/>
        <pt x="99" y="494" on="1"/>
        <pt x="100" y="563" on="0"/>
        <pt x="104" y="575" on="1"/>
        <pt x="105" y="577" on="0"/>
        <pt x="107" y="583" on="1"/>
        <pt x="129" y="653" on="0"/>
        <pt x="209" y="686" on="1"/>
        <pt x="242" y="700" on="0"/>
      </contour>
    </TTGlyph>
    <TTGlyph name="five" xMin="48" yMin="-38" xMax="451" yMax="668">
      <contour>
        <pt x="93" y="664" on="1"/>
        <pt x="97" y="667" on="0"/>
        <pt x="108" y="662" on="1"/>
        <pt x="142" y="648" on="0"/>
        <pt x="179" y="641" on="1"/>
        <pt x="273" y="623" on="0"/>
        <pt x="364" y="653" on="1"/>
        <pt x="371" y="655" on="0"/>
        <pt x="389" y="662" on="1"/>
        <pt x="402" y="668" on="0"/>
        <pt x="407" y="663" on="1"/>
        <pt x="410" y="660" on="1"/>
        <pt x="410" y="643" on="1"/>
        <pt x="410" y="625" on="1"/>
        <pt x="404" y="618" on="1"/>
        <pt x="382" y="594" on="0"/>
        <pt x="350" y="573" on="1"/>
        <pt x="289" y="535" on="0"/>
        <pt x="217" y="530" on="1"/>
        <pt x="172" y="528" on="0"/>
        <pt x="148" y="534" on="1"/>
        <pt x="144" y="535" on="1"/>
        <pt x="144" y="456" on="1"/>
        <pt x="144" y="378" on="1"/>
        <pt x="150" y="383" on="1"/>
        <pt x="173" y="402" on="0"/>
        <pt x="199" y="411" on="1"/>
        <pt x="267" y="434" on="0"/>
        <pt x="336" y="400" on="1"/>
        <pt x="421" y="356" on="0"/>
        <pt x="444" y="251" on="1"/>
        <pt x="446" y="243" on="0"/>
        <pt x="447" y="235" on="1"/>
        <pt x="451" y="205" on="0"/>
        <pt x="447" y="168" on="1"/>
        <pt x="433" y="95" on="0"/>
        <pt x="386" y="46" on="1"/>
        <pt x="360" y="20" on="0"/>
        <pt x="325" y="2" on="1"/>
        <pt x="243" y="-38" on="0"/>
        <pt x="170" y="-13" on="1"/>
        <pt x="92" y="12" on="0"/>
        <pt x="62" y="89" on="1"/>
        <pt x="55" y="105" on="0"/>
        <pt x="52" y="123" on="1"/>
        <pt x="48" y="152" on="0"/>
        <pt x="51" y="167" on="1"/>
        <pt x="56" y="185" on="0"/>
        <pt x="67" y="196" on="1"/>
        <pt x="94" y="223" on="0"/>
        <pt x="133" y="211" on="1"/>
        <pt x="157" y="203" on="0"/>
        <pt x="167" y="182" on="1"/>
        <pt x="173" y="169" on="0"/>
        <pt x="173" y="153" on="1"/>
        <pt x="173" y="136" on="0"/>
        <pt x="167" y="123" on="1"/>
        <pt x="157" y="101" on="0"/>
        <pt x="129" y="93" on="1"/>
        <pt x="121" y="91" on="0"/>
        <pt x="117" y="91" on="0"/>
        <pt x="122" y="83" on="1"/>
        <pt x="139" y="59" on="0"/>
        <pt x="168" y="44" on="1"/>
        <pt x="192" y="31" on="0"/>
        <pt x="224" y="31" on="1"/>
        <pt x="279" y="31" on="0"/>
        <pt x="309" y="71" on="1"/>
        <pt x="329" y="97" on="0"/>
        <pt x="333" y="143" on="1"/>
        <pt x="336" y="170" on="0"/>
        <pt x="334" y="254" on="1"/>
        <pt x="334" y="266" on="0"/>
        <pt x="333" y="271" on="1"/>
        <pt x="329" y="315" on="0"/>
        <pt x="318" y="333" on="1"/>
        <pt x="291" y="378" on="0"/>
        <pt x="238" y="372" on="1"/>
        <pt x="173" y="364" on="0"/>
        <pt x="141" y="304" on="1"/>
        <pt x="135" y="295" on="0"/>
        <pt x="127" y="294" on="1"/>
        <pt x="123" y="294" on="0"/>
        <pt x="114" y="294" on="1"/>
        <pt x="92" y="294" on="0"/>
        <pt x="90" y="300" on="1"/>
        <pt x="88" y="304" on="0"/>
        <pt x="88" y="480" on="1"/>
        <pt x="88" y="658" on="0"/>
        <pt x="89" y="660" on="1"/>
        <pt x="91" y="664" on="0"/>
      </contour>
    </TTGlyph>
    <TTGlyph name="four" xMin="28" yMin="0" xMax="471" yMax="677">
      <contour>
        <pt x="327" y="675" on="1"/>
        <pt x="330" y="677" on="0"/>
        <pt x="354" y="677" on="1"/>
        <pt x="378" y="677" on="1"/>
        <pt x="381" y="674" on="1"/>
        <pt x="384" y="671" on="1"/>
        <pt x="384" y="445" on="1"/>
        <pt x="384" y="220" on="1"/>
        <pt x="428" y="220" on="1"/>
        <pt x="471" y="220" on="1"/>
        <pt x="471" y="192" on="1"/>
        <pt x="471" y="164" on="1"/>
        <pt x="428" y="164" on="1"/>
        <pt x="384" y="164" on="1"/>
        <pt x="384" y="114" on="1"/>
        <pt x="384" y="64" on="0"/>
        <pt x="386" y="62" on="1"/>
        <pt x="392" y="59" on="1"/>
        <pt x="401" y="56" on="0"/>
        <pt x="448" y="56" on="1"/>
        <pt x="471" y="56" on="1"/>
        <pt x="471" y="28" on="1"/>
        <pt x="471" y="0" on="1"/>
        <pt x="462" y="0" on="1"/>
        <pt x="463" y="0" on="0"/>
        <pt x="393" y="2" on="1"/>
        <pt x="333" y="3" on="0"/>
        <pt x="269" y="2" on="1"/>
        <pt x="195" y="0" on="1"/>
        <pt x="185" y="0" on="1"/>
        <pt x="185" y="28" on="1"/>
        <pt x="185" y="56" on="1"/>
        <pt x="223" y="56" on="1"/>
        <pt x="278" y="57" on="0"/>
        <pt x="281" y="63" on="1"/>
        <pt x="282" y="64" on="0"/>
        <pt x="282" y="114" on="1"/>
        <pt x="282" y="164" on="1"/>
        <pt x="155" y="164" on="1"/>
        <pt x="28" y="164" on="1"/>
        <pt x="28" y="192" on="1"/>
        <pt x="28" y="220" on="1"/>
        <pt x="176" y="447" on="1"/>
        <pt x="323" y="673" on="0"/>
      </contour>
      <contour>
        <pt x="288" y="220" on="1"/>
        <pt x="288" y="375" on="1"/>
        <pt x="288" y="529" on="1"/>
        <pt x="187" y="375" on="1"/>
        <pt x="86" y="221" on="1"/>
        <pt x="187" y="220" on="1"/>
      </contour>
    </TTGlyph>
    <TTGlyph name="g" xMin="21" yMin="-219" xMax="497" yMax="452">
      <contour>
        <pt x="415" y="452" on="1"/>
        <pt x="440" y="452" on="1"/>
        <pt x="465" y="447" on="0"/>
        <pt x="477" y="422" on="1"/>
        <pt x="497" y="382" on="0"/>
        <pt x="471" y="359" on="1"/>
        <pt x="461" y="350" on="0"/>
        <pt x="446" y="349" on="1"/>
        <pt x="417" y="348" on="0"/>
        <pt x="405" y="374" on="1"/>
        <pt x="403" y="379" on="0"/>
        <pt x="402" y="385" on="1"/>
        <pt x="400" y="396" on="0"/>
        <pt x="405" y="399" on="1"/>
        <pt x="419" y="400" on="1"/>
        <pt x="420" y="400" on="1"/>
        <pt x="434" y="401" on="1"/>
        <pt x="433" y="403" on="1"/>
        <pt x="431" y="405" on="0"/>
        <pt x="423" y="405" on="1"/>
        <pt x="394" y="405" on="0"/>
        <pt x="366" y="385" on="1"/>
        <pt x="362" y="382" on="1"/>
        <pt x="369" y="373" on="1"/>
        <pt x="384" y="353" on="0"/>
        <pt x="392" y="328" on="1"/>
        <pt x="402" y="290" on="0"/>
        <pt x="392" y="254" on="1"/>
        <pt x="384" y="229" on="0"/>
        <pt x="370" y="210" on="1"/>
        <pt x="355" y="189" on="0"/>
        <pt x="338" y="177" on="1"/>
        <pt x="272" y="126" on="0"/>
        <pt x="185" y="143" on="1"/>
        <pt x="159" y="148" on="0"/>
        <pt x="135" y="159" on="1"/>
        <pt x="124" y="165" on="1"/>
        <pt x="121" y="158" on="1"/>
        <pt x="110" y="137" on="0"/>
        <pt x="118" y="112" on="1"/>
        <pt x="126" y="89" on="0"/>
        <pt x="148" y="81" on="1"/>
        <pt x="153" y="79" on="0"/>
        <pt x="226" y="78" on="1"/>
        <pt x="310" y="77" on="0"/>
        <pt x="335" y="72" on="1"/>
        <pt x="396" y="63" on="0"/>
        <pt x="430" y="30" on="1"/>
        <pt x="468" y="-5" on="0"/>
        <pt x="471" y="-65" on="1"/>
        <pt x="472" y="-102" on="0"/>
        <pt x="448" y="-132" on="1"/>
        <pt x="420" y="-167" on="0"/>
        <pt x="363" y="-188" on="1"/>
        <pt x="276" y="-219" on="0"/>
        <pt x="178" y="-199" on="1"/>
        <pt x="171" y="-198" on="0"/>
        <pt x="164" y="-196" on="1"/>
        <pt x="136" y="-189" on="0"/>
        <pt x="110" y="-177" on="1"/>
        <pt x="21" y="-132" on="0"/>
        <pt x="28" y="-63" on="1"/>
        <pt x="29" y="-60" on="0"/>
        <pt x="29" y="-57" on="1"/>
        <pt x="31" y="-46" on="0"/>
        <pt x="39" y="-29" on="1"/>
        <pt x="54" y="2" on="0"/>
        <pt x="86" y="20" on="1"/>
        <pt x="93" y="24" on="1"/>
        <pt x="86" y="32" on="1"/>
        <pt x="47" y="82" on="0"/>
        <pt x="65" y="147" on="1"/>
        <pt x="75" y="172" on="0"/>
        <pt x="83" y="184" on="1"/>
        <pt x="87" y="190" on="0"/>
        <pt x="88" y="191" on="1"/>
        <pt x="88" y="192" on="0"/>
        <pt x="84" y="198" on="1"/>
        <pt x="64" y="218" on="0"/>
        <pt x="52" y="254" on="1"/>
        <pt x="39" y="303" on="0"/>
        <pt x="61" y="350" on="1"/>
        <pt x="74" y="374" on="0"/>
        <pt x="89" y="389" on="1"/>
        <pt x="140" y="442" on="0"/>
        <pt x="222" y="442" on="1"/>
        <pt x="277" y="442" on="0"/>
        <pt x="321" y="416" on="1"/>
        <pt x="327" y="412" on="0"/>
        <pt x="328" y="412" on="1"/>
        <pt x="335" y="418" on="1"/>
        <pt x="369" y="446" on="0"/>
      </contour>
      <contour>
        <pt x="237" y="393" on="1"/>
        <pt x="186" y="400" on="0"/>
        <pt x="161" y="369" on="1"/>
        <pt x="158" y="365" on="0"/>
        <pt x="156" y="361" on="1"/>
        <pt x="148" y="344" on="0"/>
        <pt x="148" y="291" on="1"/>
        <pt x="148" y="237" on="0"/>
        <pt x="156" y="221" on="1"/>
        <pt x="168" y="193" on="0"/>
        <pt x="207" y="188" on="1"/>
        <pt x="258" y="181" on="0"/>
        <pt x="283" y="212" on="1"/>
        <pt x="286" y="216" on="0"/>
        <pt x="288" y="221" on="1"/>
        <pt x="297" y="239" on="0"/>
        <pt x="297" y="291" on="1"/>
        <pt x="297" y="342" on="0"/>
        <pt x="288" y="361" on="1"/>
        <pt x="275" y="388" on="0"/>
      </contour>
      <contour>
        <pt x="290" y="-6" on="1"/>
        <pt x="282" y="-5" on="0"/>
        <pt x="152" y="-5" on="0"/>
        <pt x="140" y="-11" on="1"/>
        <pt x="123" y="-20" on="0"/>
        <pt x="113" y="-39" on="1"/>
        <pt x="106" y="-53" on="0"/>
        <pt x="106" y="-71" on="1"/>
        <pt x="106" y="-84" on="0"/>
        <pt x="108" y="-89" on="1"/>
        <pt x="121" y="-125" on="0"/>
        <pt x="176" y="-146" on="1"/>
        <pt x="209" y="-157" on="0"/>
        <pt x="250" y="-157" on="1"/>
        <pt x="290" y="-157" on="0"/>
        <pt x="324" y="-146" on="1"/>
        <pt x="376" y="-127" on="0"/>
        <pt x="391" y="-89" on="1"/>
        <pt x="396" y="-74" on="0"/>
        <pt x="392" y="-57" on="1"/>
        <pt x="376" y="-12" on="0"/>
      </contour>
    </TTGlyph>
    <TTGlyph name="grave" xMin="57" yMin="368" xMax="204" yMax="697">
      <contour>
        <pt x="146" y="688" on="1"/>
        <pt x="156" y="697" on="0"/>
        <pt x="164" y="690" on="1"/>
        <pt x="167" y="688" on="0"/>
        <pt x="173" y="681" on="1"/>
        <pt x="188" y="667" on="0"/>
        <pt x="185" y="662" on="1"/>
        <pt x="184" y="661" on="0"/>
        <pt x="172" y="647" on="1"/>
        <pt x="113" y="587" on="0"/>
        <pt x="106" y="501" on="1"/>
        <pt x="106" y="493" on="0"/>
        <pt x="108" y="493" on="1"/>
        <pt x="122" y="499" on="0"/>
        <pt x="139" y="499" on="1"/>
        <pt x="153" y="499" on="0"/>
        <pt x="161" y="496" on="1"/>
        <pt x="177" y="492" on="0"/>
        <pt x="189" y="478" on="1"/>
        <pt x="204" y="460" on="0"/>
        <pt x="204" y="435" on="1"/>
        <pt x="204" y="409" on="0"/>
        <pt x="189" y="391" on="1"/>
        <pt x="172" y="371" on="0"/>
        <pt x="143" y="369" on="1"/>
        <pt x="112" y="368" on="0"/>
        <pt x="92" y="389" on="1"/>
        <pt x="68" y="413" on="0"/>
        <pt x="61" y="459" on="1"/>
        <pt x="57" y="477" on="0"/>
        <pt x="60" y="514" on="1"/>
        <pt x="61" y="518" on="0"/>
        <pt x="61" y="520" on="1"/>
        <pt x="72" y="596" on="0"/>
        <pt x="114" y="652" on="1"/>
        <pt x="131" y="675" on="0"/>
      </contour>
    </TTGlyph>
    <TTGlyph name="greater" xMin="53" yMin="-207" xMax="419" yMax="506">
      <contour>
        <pt x="207" y="498" on="1"/>
        <pt x="242" y="506" on="0"/>
        <pt x="268" y="481" on="1"/>
        <pt x="287" y="460" on="0"/>
        <pt x="287" y="435" on="1"/>
        <pt x="287" y="419" on="0"/>
        <pt x="280" y="405" on="1"/>
        <pt x="262" y="371" on="0"/>
        <pt x="221" y="369" on="1"/>
        <pt x="183" y="369" on="0"/>
        <pt x="164" y="403" on="1"/>
        <pt x="156" y="418" on="0"/>
        <pt x="156" y="435" on="1"/>
        <pt x="156" y="450" on="0"/>
        <pt x="163" y="464" on="1"/>
        <pt x="176" y="492" on="0"/>
      </contour>
      <contour>
        <pt x="201" y="292" on="1"/>
        <pt x="203" y="294" on="0"/>
        <pt x="221" y="294" on="1"/>
        <pt x="244" y="294" on="0"/>
        <pt x="246" y="288" on="1"/>
        <pt x="250" y="273" on="0"/>
        <pt x="244" y="191" on="1"/>
        <pt x="243" y="186" on="0"/>
        <pt x="243" y="182" on="1"/>
        <pt x="231" y="86" on="0"/>
        <pt x="184" y="12" on="1"/>
        <pt x="173" y="-6" on="1"/>
        <pt x="165" y="-23" on="0"/>
        <pt x="164" y="-42" on="1"/>
        <pt x="160" y="-89" on="0"/>
        <pt x="166" y="-131" on="1"/>
        <pt x="169" y="-141" on="0"/>
        <pt x="177" y="-147" on="1"/>
        <pt x="191" y="-158" on="0"/>
        <pt x="222" y="-158" on="1"/>
        <pt x="288" y="-158" on="0"/>
        <pt x="328" y="-130" on="1"/>
        <pt x="340" y="-123" on="0"/>
        <pt x="337" y="-121" on="1"/>
        <pt x="336" y="-120" on="0"/>
        <pt x="330" y="-117" on="1"/>
        <pt x="298" y="-102" on="0"/>
        <pt x="299" y="-64" on="1"/>
        <pt x="299" y="-49" on="0"/>
        <pt x="307" y="-35" on="1"/>
        <pt x="321" y="-7" on="0"/>
        <pt x="357" y="-6" on="1"/>
        <pt x="365" y="-6" on="0"/>
        <pt x="373" y="-8" on="1"/>
        <pt x="419" y="-20" on="0"/>
        <pt x="416" y="-72" on="1"/>
        <pt x="415" y="-85" on="0"/>
        <pt x="411" y="-99" on="1"/>
        <pt x="405" y="-116" on="0"/>
        <pt x="394" y="-134" on="1"/>
        <pt x="354" y="-188" on="0"/>
        <pt x="263" y="-202" on="1"/>
        <pt x="227" y="-207" on="0"/>
        <pt x="183" y="-203" on="1"/>
        <pt x="127" y="-194" on="0"/>
        <pt x="94" y="-164" on="1"/>
        <pt x="66" y="-137" on="0"/>
        <pt x="57" y="-92" on="1"/>
        <pt x="53" y="-64" on="0"/>
        <pt x="58" y="-35" on="1"/>
        <pt x="68" y="10" on="0"/>
        <pt x="98" y="36" on="1"/>
        <pt x="130" y="68" on="0"/>
        <pt x="139" y="79" on="1"/>
        <pt x="182" y="133" on="0"/>
        <pt x="192" y="192" on="1"/>
        <pt x="196" y="215" on="0"/>
        <pt x="197" y="254" on="1"/>
        <pt x="197" y="288" on="0"/>
        <pt x="198" y="289" on="1"/>
        <pt x="198" y="292" on="0"/>
      </contour>
    </TTGlyph>
    <TTGlyph name="h" xMin="20" yMin="0" xMax="547" yMax="694">
      <contour>
        <pt x="103" y="688" on="1"/>
        <pt x="189" y="694" on="0"/>
        <pt x="185" y="694" on="1"/>
        <pt x="189" y="694" on="1"/>
        <pt x="189" y="536" on="1"/>
        <pt x="189" y="378" on="1"/>
        <pt x="200" y="389" on="1"/>
        <pt x="227" y="414" on="0"/>
        <pt x="258" y="427" on="1"/>
        <pt x="298" y="443" on="0"/>
        <pt x="340" y="442" on="1"/>
        <pt x="381" y="441" on="0"/>
        <pt x="409" y="426" on="1"/>
        <pt x="422" y="419" on="0"/>
        <pt x="429" y="414" on="1"/>
        <pt x="462" y="387" on="0"/>
        <pt x="468" y="329" on="1"/>
        <pt x="469" y="322" on="0"/>
        <pt x="469" y="191" on="1"/>
        <pt x="469" y="64" on="0"/>
        <pt x="470" y="63" on="1"/>
        <pt x="474" y="56" on="0"/>
        <pt x="526" y="56" on="1"/>
        <pt x="547" y="56" on="1"/>
        <pt x="547" y="28" on="1"/>
        <pt x="547" y="0" on="1"/>
        <pt x="539" y="0" on="1"/>
        <pt x="476" y="2" on="1"/>
        <pt x="421" y="3" on="0"/>
        <pt x="368" y="2" on="1"/>
        <pt x="307" y="0" on="1"/>
        <pt x="298" y="0" on="1"/>
        <pt x="298" y="28" on="1"/>
        <pt x="298" y="56" on="1"/>
        <pt x="319" y="56" on="1"/>
        <pt x="372" y="56" on="0"/>
        <pt x="375" y="64" on="1"/>
        <pt x="375" y="199" on="1"/>
        <pt x="374" y="337" on="0"/>
        <pt x="369" y="352" on="1"/>
        <pt x="360" y="385" on="0"/>
        <pt x="327" y="393" on="1"/>
        <pt x="306" y="397" on="0"/>
        <pt x="282" y="392" on="1"/>
        <pt x="241" y="383" on="0"/>
        <pt x="216" y="344" on="1"/>
        <pt x="201" y="323" on="0"/>
        <pt x="195" y="294" on="1"/>
        <pt x="193" y="285" on="0"/>
        <pt x="192" y="176" on="1"/>
        <pt x="192" y="64" on="1"/>
        <pt x="195" y="56" on="0"/>
        <pt x="249" y="56" on="1"/>
        <pt x="270" y="56" on="1"/>
        <pt x="270" y="28" on="1"/>
        <pt x="270" y="0" on="1"/>
        <pt x="262" y="0" on="1"/>
        <pt x="199" y="2" on="1"/>
        <pt x="145" y="3" on="0"/>
        <pt x="91" y="2" on="1"/>
        <pt x="28" y="0" on="1"/>
        <pt x="20" y="0" on="1"/>
        <pt x="20" y="28" on="1"/>
        <pt x="20" y="56" on="1"/>
        <pt x="41" y="56" on="1"/>
        <pt x="93" y="56" on="0"/>
        <pt x="97" y="63" on="1"/>
        <pt x="97" y="593" on="1"/>
        <pt x="93" y="617" on="0"/>
        <pt x="72" y="623" on="1"/>
        <pt x="61" y="626" on="0"/>
        <pt x="38" y="627" on="1"/>
        <pt x="20" y="627" on="1"/>
        <pt x="20" y="655" on="1"/>
        <pt x="20" y="683" on="1"/>
        <pt x="22" y="683" on="1"/>
      </contour>
    </TTGlyph>
    <TTGlyph name="hyphen" xMin="11" yMin="174" xMax="277" yMax="257">
      <contour>
        <pt x="11" y="216" on="1"/>
        <pt x="11" y="257" on="1"/>
        <pt x="144" y="257" on="1"/>
        <pt x="277" y="257" on="1"/>
        <pt x="277" y="216" on="1"/>
        <pt x="277" y="174" on="1"/>
        <pt x="144" y="174" on="1"/>
        <pt x="11" y="174" on="1"/>
      </contour>
    </TTGlyph>
    <TTGlyph name="i" xMin="21" yMin="0" xMax="260" yMax="675">
      <contour>
        <pt x="114" y="667" on="1"/>
        <pt x="149" y="675" on="0"/>
        <pt x="175" y="650" on="1"/>
        <pt x="194" y="629" on="0"/>
        <pt x="194" y="604" on="1"/>
        <pt x="194" y="588" on="0"/>
        <pt x="187" y="574" on="1"/>
        <pt x="169" y="540" on="0"/>
        <pt x="128" y="538" on="1"/>
        <pt x="90" y="538" on="0"/>
        <pt x="71" y="572" on="1"/>
        <pt x="63" y="587" on="0"/>
        <pt x="63" y="604" on="1"/>
        <pt x="63" y="619" on="0"/>
        <pt x="70" y="633" on="1"/>
        <pt x="83" y="661" on="0"/>
      </contour>
      <contour>
        <pt x="107" y="436" on="1"/>
        <pt x="191" y="442" on="0"/>
        <pt x="187" y="442" on="1"/>
        <pt x="190" y="442" on="1"/>
        <pt x="190" y="253" on="1"/>
        <pt x="190" y="64" on="0"/>
        <pt x="192" y="62" on="1"/>
        <pt x="195" y="59" on="0"/>
        <pt x="197" y="59" on="1"/>
        <pt x="203" y="56" on="0"/>
        <pt x="241" y="56" on="1"/>
        <pt x="260" y="56" on="1"/>
        <pt x="260" y="28" on="1"/>
        <pt x="260" y="0" on="1"/>
        <pt x="252" y="0" on="1"/>
        <pt x="195" y="2" on="1"/>
        <pt x="145" y="3" on="0"/>
        <pt x="92" y="2" on="1"/>
        <pt x="31" y="0" on="0"/>
        <pt x="30" y="0" on="1"/>
        <pt x="21" y="0" on="1"/>
        <pt x="21" y="28" on="1"/>
        <pt x="21" y="56" on="1"/>
        <pt x="42" y="56" on="1"/>
        <pt x="94" y="56" on="0"/>
        <pt x="98" y="63" on="1"/>
        <pt x="99" y="64" on="0"/>
        <pt x="99" y="201" on="1"/>
        <pt x="99" y="345" on="0"/>
        <pt x="95" y="355" on="1"/>
        <pt x="92" y="364" on="0"/>
        <pt x="83" y="368" on="1"/>
        <pt x="69" y="375" on="0"/>
        <pt x="36" y="375" on="1"/>
        <pt x="25" y="375" on="1"/>
        <pt x="25" y="403" on="1"/>
        <pt x="25" y="431" on="1"/>
        <pt x="27" y="431" on="1"/>
      </contour>
    </TTGlyph>
    <TTGlyph name="idieresis" xMin="12" yMin="280" xMax="275" yMax="393">
      <contour>
        <pt x="137" y="363" on="1"/>
        <pt x="263" y="393" on="0"/>
        <pt x="263" y="392" on="1"/>
        <pt x="269" y="365" on="1"/>
        <pt x="275" y="340" on="0"/>
        <pt x="275" y="339" on="1"/>
        <pt x="26" y="280" on="1"/>
        <pt x="14" y="335" on="1"/>
        <pt x="12" y="335" on="0"/>
      </contour>
    </TTGlyph>
    <TTGlyph name="j" xMin="-65" yMin="-206" xMax="223" yMax="675">
      <contour>
        <pt x="143" y="667" on="1"/>
        <pt x="178" y="675" on="0"/>
        <pt x="204" y="650" on="1"/>
        <pt x="223" y="629" on="0"/>
        <pt x="223" y="604" on="1"/>
        <pt x="223" y="588" on="0"/>
        <pt x="216" y="574" on="1"/>
        <pt x="198" y="540" on="0"/>
        <pt x="157" y="538" on="1"/>
        <pt x="119" y="538" on="0"/>
        <pt x="100" y="572" on="1"/>
        <pt x="92" y="587" on="0"/>
        <pt x="92" y="604" on="1"/>
        <pt x="92" y="619" on="0"/>
        <pt x="99" y="633" on="1"/>
        <pt x="112" y="661" on="0"/>
      </contour>
      <contour>
        <pt x="133" y="436" on="1"/>
        <pt x="223" y="442" on="0"/>
        <pt x="219" y="442" on="1"/>
        <pt x="223" y="442" on="1"/>
        <pt x="223" y="189" on="1"/>
        <pt x="223" y="-73" on="0"/>
        <pt x="219" y="-88" on="1"/>
        <pt x="220" y="-85" on="0"/>
        <pt x="217" y="-95" on="1"/>
        <pt x="206" y="-128" on="0"/>
        <pt x="178" y="-154" on="1"/>
        <pt x="134" y="-198" on="0"/>
        <pt x="65" y="-204" on="1"/>
        <pt x="43" y="-206" on="0"/>
        <pt x="28" y="-204" on="1"/>
        <pt x="-33" y="-195" on="0"/>
        <pt x="-57" y="-148" on="1"/>
        <pt x="-65" y="-131" on="0"/>
        <pt x="-65" y="-112" on="1"/>
        <pt x="-65" y="-73" on="0"/>
        <pt x="-30" y="-59" on="1"/>
        <pt x="-19" y="-54" on="0"/>
        <pt x="-6" y="-54" on="1"/>
        <pt x="8" y="-54" on="0"/>
        <pt x="22" y="-61" on="1"/>
        <pt x="52" y="-75" on="0"/>
        <pt x="52" y="-112" on="1"/>
        <pt x="52" y="-134" on="0"/>
        <pt x="39" y="-150" on="1"/>
        <pt x="36" y="-154" on="0"/>
        <pt x="35" y="-155" on="1"/>
        <pt x="46" y="-157" on="1"/>
        <pt x="81" y="-161" on="0"/>
        <pt x="100" y="-142" on="1"/>
        <pt x="120" y="-123" on="0"/>
        <pt x="129" y="-86" on="1"/>
        <pt x="131" y="-73" on="1"/>
        <pt x="132" y="130" on="1"/>
        <pt x="132" y="335" on="0"/>
        <pt x="131" y="341" on="1"/>
        <pt x="129" y="356" on="0"/>
        <pt x="120" y="364" on="1"/>
        <pt x="109" y="374" on="0"/>
        <pt x="67" y="375" on="1"/>
        <pt x="47" y="375" on="1"/>
        <pt x="47" y="403" on="1"/>
        <pt x="47" y="431" on="0"/>
        <pt x="49" y="431" on="1"/>
      </contour>
    </TTGlyph>
    <TTGlyph name="k" xMin="15" yMin="0" xMax="511" yMax="694">
      <contour>
        <pt x="98" y="688" on="1"/>
        <pt x="184" y="694" on="0"/>
        <pt x="180" y="694" on="1"/>
        <pt x="184" y="694" on="1"/>
        <pt x="184" y="470" on="1"/>
        <pt x="185" y="246" on="1"/>
        <pt x="236" y="293" on="1"/>
        <pt x="287" y="341" on="0"/>
        <pt x="290" y="346" on="1"/>
        <pt x="301" y="365" on="0"/>
        <pt x="281" y="373" on="1"/>
        <pt x="278" y="374" on="0"/>
        <pt x="275" y="375" on="1"/>
        <pt x="270" y="375" on="1"/>
        <pt x="270" y="403" on="1"/>
        <pt x="270" y="431" on="1"/>
        <pt x="279" y="431" on="1"/>
        <pt x="349" y="429" on="1"/>
        <pt x="411" y="428" on="0"/>
        <pt x="444" y="429" on="1"/>
        <pt x="483" y="431" on="1"/>
        <pt x="489" y="431" on="1"/>
        <pt x="489" y="403" on="1"/>
        <pt x="489" y="375" on="1"/>
        <pt x="473" y="375" on="1"/>
        <pt x="435" y="374" on="0"/>
        <pt x="405" y="364" on="1"/>
        <pt x="383" y="357" on="0"/>
        <pt x="366" y="344" on="1"/>
        <pt x="350" y="333" on="0"/>
        <pt x="292" y="276" on="1"/>
        <pt x="290" y="274" on="0"/>
        <pt x="289" y="273" on="1"/>
        <pt x="417" y="84" on="1"/>
        <pt x="435" y="62" on="0"/>
        <pt x="467" y="58" on="1"/>
        <pt x="476" y="57" on="0"/>
        <pt x="490" y="56" on="1"/>
        <pt x="511" y="56" on="1"/>
        <pt x="511" y="28" on="1"/>
        <pt x="511" y="0" on="1"/>
        <pt x="505" y="0" on="1"/>
        <pt x="456" y="2" on="1"/>
        <pt x="414" y="3" on="0"/>
        <pt x="359" y="2" on="1"/>
        <pt x="296" y="0" on="1"/>
        <pt x="287" y="0" on="1"/>
        <pt x="287" y="28" on="1"/>
        <pt x="287" y="56" on="1"/>
        <pt x="292" y="56" on="1"/>
        <pt x="316" y="56" on="0"/>
        <pt x="316" y="73" on="1"/>
        <pt x="316" y="78" on="0"/>
        <pt x="313" y="84" on="1"/>
        <pt x="228" y="211" on="1"/>
        <pt x="225" y="215" on="1"/>
        <pt x="203" y="195" on="1"/>
        <pt x="181" y="175" on="1"/>
        <pt x="181" y="120" on="1"/>
        <pt x="181" y="64" on="0"/>
        <pt x="182" y="63" on="1"/>
        <pt x="186" y="56" on="0"/>
        <pt x="238" y="56" on="1"/>
        <pt x="259" y="56" on="1"/>
        <pt x="259" y="28" on="1"/>
        <pt x="259" y="0" on="1"/>
        <pt x="250" y="0" on="1"/>
        <pt x="189" y="2" on="1"/>
        <pt x="138" y="3" on="0"/>
        <pt x="84" y="2" on="1"/>
        <pt x="23" y="0" on="1"/>
        <pt x="15" y="0" on="1"/>
        <pt x="15" y="28" on="1"/>
        <pt x="15" y="56" on="1"/>
        <pt x="36" y="56" on="1"/>
        <pt x="88" y="56" on="0"/>
        <pt x="92" y="63" on="1"/>
        <pt x="92" y="593" on="1"/>
        <pt x="88" y="617" on="0"/>
        <pt x="67" y="623" on="1"/>
        <pt x="56" y="626" on="0"/>
        <pt x="33" y="627" on="1"/>
        <pt x="15" y="627" on="1"/>
        <pt x="15" y="655" on="1"/>
        <pt x="15" y="683" on="1"/>
        <pt x="17" y="683" on="1"/>
      </contour>
    </TTGlyph>
    <TTGlyph name="l" xMin="21" yMin="0" xMax="268" yMax="694">
      <contour>
        <pt x="104" y="688" on="1"/>
        <pt x="190" y="694" on="0"/>
        <pt x="186" y="694" on="1"/>
        <pt x="190" y="694" on="1"/>
        <pt x="190" y="379" on="1"/>
        <pt x="190" y="64" on="0"/>
        <pt x="191" y="63" on="1"/>
        <pt x="195" y="56" on="0"/>
        <pt x="247" y="56" on="1"/>
        <pt x="268" y="56" on="1"/>
        <pt x="268" y="28" on="1"/>
        <pt x="268" y="0" on="1"/>
        <pt x="259" y="0" on="1"/>
        <pt x="197" y="2" on="1"/>
        <pt x="144" y="3" on="0"/>
        <pt x="91" y="2" on="1"/>
        <pt x="30" y="0" on="1"/>
        <pt x="21" y="0" on="1"/>
        <pt x="21" y="28" on="1"/>
        <pt x="21" y="56" on="1"/>
        <pt x="42" y="56" on="1"/>
        <pt x="94" y="56" on="0"/>
        <pt x="98" y="63" on="1"/>
        <pt x="98" y="593" on="1"/>
        <pt x="94" y="617" on="0"/>
        <pt x="73" y="623" on="1"/>
        <pt x="62" y="626" on="0"/>
        <pt x="39" y="627" on="1"/>
        <pt x="21" y="627" on="1"/>
        <pt x="21" y="655" on="1"/>
        <pt x="21" y="683" on="1"/>
        <pt x="23" y="683" on="1"/>
      </contour>
    </TTGlyph>
    <TTGlyph name="less" xMin="73" yMin="-215" xMax="204" yMax="506">
      <contour>
        <pt x="124" y="498" on="1"/>
        <pt x="159" y="506" on="0"/>
        <pt x="185" y="481" on="1"/>
        <pt x="204" y="460" on="0"/>
        <pt x="204" y="435" on="1"/>
        <pt x="204" y="419" on="0"/>
        <pt x="197" y="405" on="1"/>
        <pt x="179" y="371" on="0"/>
        <pt x="138" y="369" on="1"/>
        <pt x="100" y="369" on="0"/>
        <pt x="81" y="403" on="1"/>
        <pt x="73" y="418" on="0"/>
        <pt x="73" y="435" on="1"/>
        <pt x="73" y="450" on="0"/>
        <pt x="80" y="464" on="1"/>
        <pt x="93" y="492" on="0"/>
      </contour>
      <contour>
        <pt x="118" y="292" on="1"/>
        <pt x="120" y="294" on="0"/>
        <pt x="138" y="294" on="1"/>
        <pt x="160" y="294" on="0"/>
        <pt x="163" y="287" on="1"/>
        <pt x="204" y="-157" on="1"/>
        <pt x="204" y="-191" on="0"/>
        <pt x="169" y="-209" on="1"/>
        <pt x="165" y="-211" on="0"/>
        <pt x="160" y="-213" on="1"/>
        <pt x="152" y="-215" on="0"/>
        <pt x="139" y="-215" on="1"/>
        <pt x="125" y="-215" on="0"/>
        <pt x="118" y="-213" on="1"/>
        <pt x="82" y="-201" on="0"/>
        <pt x="74" y="-168" on="1"/>
        <pt x="73" y="-163" on="0"/>
        <pt x="73" y="-157" on="1"/>
        <pt x="114" y="287" on="1"/>
        <pt x="115" y="291" on="0"/>
      </contour>
    </TTGlyph>
    <TTGlyph name="m" xMin="20" yMin="0" xMax="824" yMax="448">
      <contour>
        <pt x="102" y="436" on="1"/>
        <pt x="186" y="442" on="0"/>
        <pt x="182" y="442" on="1"/>
        <pt x="186" y="442" on="1"/>
        <pt x="186" y="408" on="1"/>
        <pt x="186" y="374" on="1"/>
        <pt x="197" y="386" on="1"/>
        <pt x="228" y="415" on="0"/>
        <pt x="258" y="427" on="1"/>
        <pt x="298" y="443" on="0"/>
        <pt x="340" y="442" on="1"/>
        <pt x="381" y="441" on="0"/>
        <pt x="408" y="427" on="1"/>
        <pt x="441" y="411" on="0"/>
        <pt x="456" y="376" on="1"/>
        <pt x="460" y="369" on="1"/>
        <pt x="462" y="372" on="1"/>
        <pt x="468" y="383" on="0"/>
        <pt x="495" y="404" on="1"/>
        <pt x="529" y="430" on="0"/>
        <pt x="571" y="438" on="1"/>
        <pt x="618" y="448" on="0"/>
        <pt x="663" y="435" on="1"/>
        <pt x="687" y="430" on="0"/>
        <pt x="706" y="414" on="1"/>
        <pt x="739" y="387" on="0"/>
        <pt x="745" y="329" on="1"/>
        <pt x="746" y="322" on="0"/>
        <pt x="746" y="191" on="1"/>
        <pt x="746" y="64" on="0"/>
        <pt x="747" y="63" on="1"/>
        <pt x="751" y="56" on="0"/>
        <pt x="803" y="56" on="1"/>
        <pt x="824" y="56" on="1"/>
        <pt x="824" y="28" on="1"/>
        <pt x="824" y="0" on="1"/>
        <pt x="816" y="0" on="1"/>
        <pt x="753" y="2" on="1"/>
        <pt x="698" y="3" on="0"/>
        <pt x="645" y="2" on="1"/>
        <pt x="584" y="0" on="1"/>
        <pt x="575" y="0" on="1"/>
        <pt x="575" y="28" on="1"/>
        <pt x="575" y="56" on="1"/>
        <pt x="596" y="56" on="1"/>
        <pt x="649" y="56" on="0"/>
        <pt x="652" y="64" on="1"/>
        <pt x="652" y="199" on="1"/>
        <pt x="651" y="337" on="0"/>
        <pt x="646" y="352" on="1"/>
        <pt x="637" y="385" on="0"/>
        <pt x="604" y="393" on="1"/>
        <pt x="583" y="397" on="0"/>
        <pt x="559" y="392" on="1"/>
        <pt x="518" y="383" on="0"/>
        <pt x="493" y="344" on="1"/>
        <pt x="478" y="323" on="0"/>
        <pt x="472" y="294" on="1"/>
        <pt x="470" y="285" on="0"/>
        <pt x="469" y="176" on="1"/>
        <pt x="469" y="64" on="1"/>
        <pt x="472" y="56" on="0"/>
        <pt x="526" y="56" on="1"/>
        <pt x="547" y="56" on="1"/>
        <pt x="547" y="28" on="1"/>
        <pt x="547" y="0" on="1"/>
        <pt x="539" y="0" on="1"/>
        <pt x="476" y="2" on="1"/>
        <pt x="421" y="3" on="0"/>
        <pt x="368" y="2" on="1"/>
        <pt x="307" y="0" on="1"/>
        <pt x="298" y="0" on="1"/>
        <pt x="298" y="28" on="1"/>
        <pt x="298" y="56" on="1"/>
        <pt x="319" y="56" on="1"/>
        <pt x="372" y="56" on="0"/>
        <pt x="375" y="64" on="1"/>
        <pt x="375" y="199" on="1"/>
        <pt x="374" y="337" on="0"/>
        <pt x="369" y="352" on="1"/>
        <pt x="360" y="385" on="0"/>
        <pt x="327" y="393" on="1"/>
        <pt x="306" y="397" on="0"/>
        <pt x="282" y="392" on="1"/>
        <pt x="241" y="383" on="0"/>
        <pt x="216" y="344" on="1"/>
        <pt x="201" y="323" on="0"/>
        <pt x="195" y="294" on="1"/>
        <pt x="193" y="285" on="0"/>
        <pt x="192" y="176" on="1"/>
        <pt x="192" y="64" on="1"/>
        <pt x="195" y="56" on="0"/>
        <pt x="249" y="56" on="1"/>
        <pt x="270" y="56" on="1"/>
        <pt x="270" y="28" on="1"/>
        <pt x="270" y="0" on="1"/>
        <pt x="262" y="0" on="1"/>
        <pt x="199" y="2" on="1"/>
        <pt x="145" y="3" on="0"/>
        <pt x="91" y="2" on="1"/>
        <pt x="28" y="0" on="1"/>
        <pt x="20" y="0" on="1"/>
        <pt x="20" y="28" on="1"/>
        <pt x="20" y="56" on="1"/>
        <pt x="41" y="56" on="1"/>
        <pt x="93" y="56" on="0"/>
        <pt x="97" y="63" on="1"/>
        <pt x="97" y="341" on="1"/>
        <pt x="93" y="365" on="0"/>
        <pt x="72" y="371" on="1"/>
        <pt x="61" y="374" on="0"/>
        <pt x="38" y="375" on="1"/>
        <pt x="20" y="375" on="1"/>
        <pt x="20" y="403" on="1"/>
        <pt x="20" y="431" on="1"/>
        <pt x="22" y="431" on="1"/>
      </contour>
    </TTGlyph>
    <TTGlyph name="n" xMin="20" yMin="0" xMax="547" yMax="448">
      <contour>
        <pt x="102" y="436" on="1"/>
        <pt x="186" y="442" on="0"/>
        <pt x="182" y="442" on="1"/>
        <pt x="186" y="442" on="1"/>
        <pt x="186" y="408" on="1"/>
        <pt x="186" y="374" on="1"/>
        <pt x="197" y="386" on="1"/>
        <pt x="238" y="428" on="0"/>
        <pt x="294" y="438" on="1"/>
        <pt x="341" y="448" on="0"/>
        <pt x="386" y="435" on="1"/>
        <pt x="410" y="430" on="0"/>
        <pt x="429" y="414" on="1"/>
        <pt x="462" y="387" on="0"/>
        <pt x="468" y="329" on="1"/>
        <pt x="469" y="322" on="0"/>
        <pt x="469" y="191" on="1"/>
        <pt x="469" y="64" on="0"/>
        <pt x="470" y="63" on="1"/>
        <pt x="474" y="56" on="0"/>
        <pt x="526" y="56" on="1"/>
        <pt x="547" y="56" on="1"/>
        <pt x="547" y="28" on="1"/>
        <pt x="547" y="0" on="1"/>
        <pt x="539" y="0" on="1"/>
        <pt x="476" y="2" on="1"/>
        <pt x="421" y="3" on="0"/>
        <pt x="368" y="2" on="1"/>
        <pt x="307" y="0" on="1"/>
        <pt x="298" y="0" on="1"/>
        <pt x="298" y="28" on="1"/>
        <pt x="298" y="56" on="1"/>
        <pt x="319" y="56" on="1"/>
        <pt x="372" y="56" on="0"/>
        <pt x="375" y="64" on="1"/>
        <pt x="375" y="199" on="1"/>
        <pt x="374" y="337" on="0"/>
        <pt x="369" y="352" on="1"/>
        <pt x="360" y="385" on="0"/>
        <pt x="327" y="393" on="1"/>
        <pt x="306" y="397" on="0"/>
        <pt x="282" y="392" on="1"/>
        <pt x="241" y="383" on="0"/>
        <pt x="216" y="344" on="1"/>
        <pt x="201" y="323" on="0"/>
        <pt x="195" y="294" on="1"/>
        <pt x="193" y="285" on="0"/>
        <pt x="192" y="176" on="1"/>
        <pt x="192" y="64" on="1"/>
        <pt x="195" y="56" on="0"/>
        <pt x="249" y="56" on="1"/>
        <pt x="270" y="56" on="1"/>
        <pt x="270" y="28" on="1"/>
        <pt x="270" y="0" on="1"/>
        <pt x="262" y="0" on="1"/>
        <pt x="199" y="2" on="1"/>
        <pt x="145" y="3" on="0"/>
        <pt x="91" y="2" on="1"/>
        <pt x="28" y="0" on="1"/>
        <pt x="20" y="0" on="1"/>
        <pt x="20" y="28" on="1"/>
        <pt x="20" y="56" on="1"/>
        <pt x="41" y="56" on="1"/>
        <pt x="93" y="56" on="0"/>
        <pt x="97" y="63" on="1"/>
        <pt x="97" y="341" on="1"/>
        <pt x="93" y="365" on="0"/>
        <pt x="72" y="371" on="1"/>
        <pt x="61" y="374" on="0"/>
        <pt x="38" y="375" on="1"/>
        <pt x="20" y="375" on="1"/>
        <pt x="20" y="403" on="1"/>
        <pt x="20" y="431" on="1"/>
        <pt x="22" y="431" on="1"/>
      </contour>
    </TTGlyph>
    <TTGlyph name="nine" xMin="40" yMin="-24" xMax="459" yMax="667">
      <contour>
        <pt x="230" y="665" on="1"/>
        <pt x="261" y="667" on="0"/>
        <pt x="286" y="663" on="1"/>
        <pt x="336" y="652" on="0"/>
        <pt x="370" y="618" on="1"/>
        <pt x="394" y="595" on="0"/>
        <pt x="413" y="560" on="1"/>
        <pt x="447" y="491" on="0"/>
        <pt x="455" y="395" on="1"/>
        <pt x="459" y="347" on="0"/>
        <pt x="456" y="287" on="1"/>
        <pt x="455" y="281" on="0"/>
        <pt x="455" y="278" on="1"/>
        <pt x="449" y="220" on="0"/>
        <pt x="430" y="165" on="1"/>
        <pt x="416" y="129" on="0"/>
        <pt x="396" y="97" on="1"/>
        <pt x="332" y="-5" on="0"/>
        <pt x="235" y="-20" on="1"/>
        <pt x="210" y="-24" on="0"/>
        <pt x="186" y="-21" on="1"/>
        <pt x="123" y="-13" on="0"/>
        <pt x="93" y="24" on="1"/>
        <pt x="67" y="56" on="0"/>
        <pt x="67" y="100" on="1"/>
        <pt x="67" y="141" on="0"/>
        <pt x="102" y="155" on="1"/>
        <pt x="106" y="156" on="0"/>
        <pt x="110" y="157" on="1"/>
        <pt x="126" y="161" on="0"/>
        <pt x="141" y="157" on="1"/>
        <pt x="168" y="150" on="0"/>
        <pt x="177" y="130" on="1"/>
        <pt x="195" y="95" on="0"/>
        <pt x="173" y="66" on="1"/>
        <pt x="165" y="55" on="0"/>
        <pt x="154" y="50" on="1"/>
        <pt x="148" y="46" on="0"/>
        <pt x="147" y="46" on="1"/>
        <pt x="147" y="43" on="0"/>
        <pt x="165" y="37" on="1"/>
        <pt x="205" y="24" on="0"/>
        <pt x="242" y="37" on="1"/>
        <pt x="293" y="54" on="0"/>
        <pt x="319" y="110" on="1"/>
        <pt x="322" y="118" on="0"/>
        <pt x="325" y="126" on="1"/>
        <pt x="338" y="165" on="0"/>
        <pt x="341" y="244" on="1"/>
        <pt x="341" y="258" on="0"/>
        <pt x="342" y="269" on="1"/>
        <pt x="341" y="269" on="0"/>
        <pt x="336" y="262" on="1"/>
        <pt x="324" y="245" on="0"/>
        <pt x="305" y="231" on="1"/>
        <pt x="281" y="214" on="0"/>
        <pt x="254" y="208" on="1"/>
        <pt x="234" y="204" on="0"/>
        <pt x="199" y="208" on="1"/>
        <pt x="151" y="218" on="0"/>
        <pt x="114" y="253" on="1"/>
        <pt x="83" y="286" on="0"/>
        <pt x="66" y="321" on="1"/>
        <pt x="50" y="350" on="0"/>
        <pt x="44" y="392" on="1"/>
        <pt x="40" y="425" on="0"/>
        <pt x="43" y="469" on="1"/>
        <pt x="44" y="473" on="0"/>
        <pt x="44" y="475" on="1"/>
        <pt x="54" y="544" on="0"/>
        <pt x="105" y="599" on="1"/>
        <pt x="159" y="658" on="0"/>
      </contour>
      <contour>
        <pt x="277" y="613" on="1"/>
        <pt x="272" y="614" on="0"/>
        <pt x="256" y="616" on="1"/>
        <pt x="219" y="616" on="0"/>
        <pt x="199" y="602" on="1"/>
        <pt x="179" y="589" on="0"/>
        <pt x="168" y="567" on="1"/>
        <pt x="156" y="540" on="0"/>
        <pt x="157" y="413" on="1"/>
        <pt x="158" y="327" on="0"/>
        <pt x="164" y="303" on="1"/>
        <pt x="171" y="286" on="0"/>
        <pt x="184" y="275" on="1"/>
        <pt x="205" y="254" on="0"/>
        <pt x="243" y="254" on="1"/>
        <pt x="261" y="254" on="0"/>
        <pt x="272" y="258" on="1"/>
        <pt x="322" y="278" on="0"/>
        <pt x="336" y="364" on="1"/>
        <pt x="336" y="368" on="0"/>
        <pt x="337" y="372" on="1"/>
        <pt x="341" y="395" on="0"/>
        <pt x="341" y="454" on="1"/>
        <pt x="340" y="536" on="0"/>
        <pt x="333" y="553" on="1"/>
        <pt x="318" y="597" on="0"/>
      </contour>
    </TTGlyph>
    <TTGlyph name="numbersign" xMin="56" yMin="-201" xMax="777" yMax="701">
      <contour>
        <pt x="407" y="692" on="1"/>
        <pt x="413" y="694" on="0"/>
        <pt x="416" y="694" on="1"/>
        <pt x="431" y="694" on="0"/>
        <pt x="436" y="676" on="1"/>
        <pt x="436" y="672" on="0"/>
        <pt x="396" y="522" on="1"/>
        <pt x="355" y="374" on="0"/>
        <pt x="355" y="369" on="1"/>
        <pt x="354" y="367" on="1"/>
        <pt x="448" y="367" on="1"/>
        <pt x="543" y="367" on="1"/>
        <pt x="585" y="524" on="1"/>
        <pt x="626" y="679" on="0"/>
        <pt x="630" y="685" on="1"/>
        <pt x="641" y="701" on="0"/>
        <pt x="656" y="691" on="1"/>
        <pt x="659" y="689" on="0"/>
        <pt x="662" y="685" on="1"/>
        <pt x="667" y="679" on="0"/>
        <pt x="662" y="659" on="1"/>
        <pt x="658" y="642" on="0"/>
        <pt x="626" y="522" on="1"/>
        <pt x="585" y="374" on="0"/>
        <pt x="585" y="369" on="1"/>
        <pt x="584" y="367" on="1"/>
        <pt x="673" y="367" on="1"/>
        <pt x="762" y="367" on="1"/>
        <pt x="766" y="365" on="1"/>
        <pt x="769" y="363" on="0"/>
        <pt x="774" y="358" on="1"/>
        <pt x="777" y="352" on="0"/>
        <pt x="777" y="342" on="0"/>
        <pt x="774" y="336" on="1"/>
        <pt x="769" y="331" on="0"/>
        <pt x="767" y="330" on="1"/>
        <pt x="761" y="327" on="0"/>
        <pt x="667" y="327" on="1"/>
        <pt x="572" y="327" on="1"/>
        <pt x="552" y="251" on="1"/>
        <pt x="531" y="175" on="0"/>
        <pt x="531" y="173" on="0"/>
        <pt x="647" y="173" on="1"/>
        <pt x="761" y="173" on="0"/>
        <pt x="767" y="170" on="1"/>
        <pt x="769" y="169" on="0"/>
        <pt x="774" y="164" on="1"/>
        <pt x="777" y="158" on="0"/>
        <pt x="777" y="148" on="0"/>
        <pt x="774" y="142" on="1"/>
        <pt x="769" y="137" on="0"/>
        <pt x="766" y="135" on="1"/>
        <pt x="762" y="133" on="1"/>
        <pt x="641" y="133" on="1"/>
        <pt x="519" y="133" on="1"/>
        <pt x="477" y="-24" on="1"/>
        <pt x="436" y="-179" on="0"/>
        <pt x="432" y="-185" on="1"/>
        <pt x="421" y="-201" on="0"/>
        <pt x="406" y="-191" on="1"/>
        <pt x="403" y="-189" on="0"/>
        <pt x="400" y="-185" on="1"/>
        <pt x="395" y="-179" on="0"/>
        <pt x="400" y="-160" on="1"/>
        <pt x="404" y="-142" on="0"/>
        <pt x="436" y="-21" on="1"/>
        <pt x="477" y="125" on="0"/>
        <pt x="477" y="131" on="1"/>
        <pt x="478" y="133" on="1"/>
        <pt x="384" y="133" on="1"/>
        <pt x="289" y="133" on="1"/>
        <pt x="247" y="-24" on="1"/>
        <pt x="206" y="-179" on="0"/>
        <pt x="202" y="-185" on="1"/>
        <pt x="191" y="-201" on="0"/>
        <pt x="176" y="-191" on="1"/>
        <pt x="173" y="-189" on="0"/>
        <pt x="170" y="-185" on="1"/>
        <pt x="165" y="-179" on="0"/>
        <pt x="170" y="-160" on="1"/>
        <pt x="174" y="-142" on="0"/>
        <pt x="206" y="-21" on="1"/>
        <pt x="247" y="125" on="0"/>
        <pt x="247" y="131" on="1"/>
        <pt x="248" y="133" on="1"/>
        <pt x="159" y="133" on="1"/>
        <pt x="70" y="133" on="1"/>
        <pt x="66" y="135" on="1"/>
        <pt x="61" y="138" on="0"/>
        <pt x="59" y="142" on="1"/>
        <pt x="56" y="146" on="0"/>
        <pt x="56" y="153" on="1"/>
        <pt x="56" y="165" on="0"/>
        <pt x="66" y="171" on="1"/>
        <pt x="72" y="173" on="1"/>
        <pt x="166" y="173" on="1"/>
        <pt x="260" y="173" on="1"/>
        <pt x="280" y="249" on="1"/>
        <pt x="301" y="325" on="0"/>
        <pt x="301" y="327" on="0"/>
        <pt x="186" y="327" on="1"/>
        <pt x="72" y="327" on="1"/>
        <pt x="66" y="329" on="1"/>
        <pt x="56" y="335" on="0"/>
        <pt x="56" y="347" on="1"/>
        <pt x="56" y="354" on="0"/>
        <pt x="59" y="358" on="1"/>
        <pt x="61" y="362" on="0"/>
        <pt x="66" y="365" on="1"/>
        <pt x="70" y="367" on="1"/>
        <pt x="191" y="367" on="1"/>
        <pt x="313" y="367" on="1"/>
        <pt x="355" y="524" on="1"/>
        <pt x="396" y="679" on="0"/>
        <pt x="400" y="685" on="1"/>
        <pt x="401" y="688" on="0"/>
      </contour>
      <contour>
        <pt x="531" y="326" on="1"/>
        <pt x="531" y="327" on="0"/>
        <pt x="437" y="327" on="1"/>
        <pt x="342" y="327" on="1"/>
        <pt x="322" y="251" on="1"/>
        <pt x="301" y="175" on="0"/>
        <pt x="301" y="173" on="0"/>
        <pt x="395" y="173" on="1"/>
        <pt x="490" y="173" on="1"/>
        <pt x="510" y="249" on="1"/>
        <pt x="531" y="325" on="0"/>
      </contour>
    </TTGlyph>
    <TTGlyph name="o" xMin="28" yMin="-10" xMax="484" yMax="457">
      <contour>
        <pt x="225" y="446" on="1"/>
        <pt x="315" y="457" on="0"/>
        <pt x="388" y="396" on="1"/>
        <pt x="395" y="390" on="0"/>
        <pt x="401" y="384" on="1"/>
        <pt x="416" y="369" on="0"/>
        <pt x="419" y="364" on="1"/>
        <pt x="484" y="281" on="0"/>
        <pt x="468" y="178" on="1"/>
        <pt x="467" y="173" on="0"/>
        <pt x="466" y="168" on="1"/>
        <pt x="448" y="75" on="0"/>
        <pt x="367" y="24" on="1"/>
        <pt x="337" y="5" on="0"/>
        <pt x="302" y="-4" on="1"/>
        <pt x="279" y="-10" on="0"/>
        <pt x="250" y="-10" on="1"/>
        <pt x="220" y="-10" on="0"/>
        <pt x="197" y="-4" on="1"/>
        <pt x="103" y="20" on="0"/>
        <pt x="56" y="104" on="1"/>
        <pt x="28" y="155" on="0"/>
        <pt x="28" y="214" on="1"/>
        <pt x="28" y="287" on="0"/>
        <pt x="67" y="345" on="1"/>
        <pt x="125" y="434" on="0"/>
      </contour>
      <contour>
        <pt x="266" y="400" on="1"/>
        <pt x="210" y="408" on="0"/>
        <pt x="172" y="372" on="1"/>
        <pt x="142" y="345" on="0"/>
        <pt x="138" y="281" on="1"/>
        <pt x="137" y="277" on="0"/>
        <pt x="137" y="272" on="1"/>
        <pt x="133" y="221" on="0"/>
        <pt x="138" y="152" on="1"/>
        <pt x="142" y="115" on="0"/>
        <pt x="152" y="96" on="1"/>
        <pt x="173" y="50" on="0"/>
        <pt x="229" y="41" on="1"/>
        <pt x="248" y="37" on="0"/>
        <pt x="268" y="40" on="1"/>
        <pt x="324" y="49" on="0"/>
        <pt x="347" y="96" on="1"/>
        <pt x="357" y="115" on="0"/>
        <pt x="361" y="152" on="1"/>
        <pt x="366" y="198" on="0"/>
        <pt x="362" y="267" on="1"/>
        <pt x="362" y="270" on="0"/>
        <pt x="362" y="272" on="1"/>
        <pt x="358" y="341" on="0"/>
        <pt x="330" y="369" on="1"/>
        <pt x="329" y="370" on="0"/>
        <pt x="327" y="372" on="1"/>
        <pt x="302" y="396" on="0"/>
      </contour>
    </TTGlyph>
    <TTGlyph name="one" xMin="78" yMin="0" xMax="430" yMax="666">
      <contour>
        <pt x="274" y="662" on="1"/>
        <pt x="277" y="666" on="1"/>
        <pt x="289" y="666" on="1"/>
        <pt x="300" y="666" on="0"/>
        <pt x="303" y="663" on="1"/>
        <pt x="307" y="660" on="1"/>
        <pt x="307" y="362" on="1"/>
        <pt x="307" y="64" on="1"/>
        <pt x="310" y="62" on="1"/>
        <pt x="311" y="61" on="0"/>
        <pt x="317" y="59" on="1"/>
        <pt x="329" y="56" on="0"/>
        <pt x="397" y="56" on="1"/>
        <pt x="430" y="56" on="1"/>
        <pt x="430" y="28" on="1"/>
        <pt x="430" y="0" on="1"/>
        <pt x="418" y="0" on="1"/>
        <pt x="332" y="2" on="1"/>
        <pt x="257" y="3" on="0"/>
        <pt x="182" y="2" on="1"/>
        <pt x="94" y="0" on="0"/>
        <pt x="95" y="0" on="1"/>
        <pt x="83" y="0" on="1"/>
        <pt x="83" y="28" on="1"/>
        <pt x="83" y="56" on="1"/>
        <pt x="116" y="56" on="1"/>
        <pt x="186" y="56" on="0"/>
        <pt x="198" y="59" on="1"/>
        <pt x="204" y="61" on="0"/>
        <pt x="205" y="62" on="1"/>
        <pt x="208" y="64" on="1"/>
        <pt x="208" y="315" on="1"/>
        <pt x="208" y="566" on="0"/>
        <pt x="207" y="566" on="1"/>
        <pt x="155" y="546" on="0"/>
        <pt x="91" y="546" on="1"/>
        <pt x="78" y="546" on="1"/>
        <pt x="78" y="574" on="1"/>
        <pt x="78" y="602" on="1"/>
        <pt x="91" y="602" on="1"/>
        <pt x="179" y="602" on="0"/>
        <pt x="241" y="638" on="1"/>
        <pt x="266" y="654" on="0"/>
      </contour>
    </TTGlyph>
    <TTGlyph name="p" xMin="15" yMin="-194" xMax="522" yMax="444">
      <contour>
        <pt x="98" y="436" on="1"/>
        <pt x="184" y="442" on="0"/>
        <pt x="180" y="442" on="1"/>
        <pt x="184" y="442" on="1"/>
        <pt x="184" y="419" on="1"/>
        <pt x="184" y="396" on="1"/>
        <pt x="193" y="402" on="1"/>
        <pt x="215" y="416" on="0"/>
        <pt x="243" y="426" on="1"/>
        <pt x="269" y="434" on="0"/>
        <pt x="298" y="439" on="1"/>
        <pt x="333" y="444" on="0"/>
        <pt x="366" y="440" on="1"/>
        <pt x="441" y="425" on="0"/>
        <pt x="486" y="351" on="1"/>
        <pt x="522" y="289" on="0"/>
        <pt x="522" y="216" on="1"/>
        <pt x="522" y="114" on="0"/>
        <pt x="453" y="45" on="1"/>
        <pt x="448" y="40" on="0"/>
        <pt x="442" y="35" on="1"/>
        <pt x="404" y="5" on="0"/>
        <pt x="364" y="-5" on="1"/>
        <pt x="293" y="-22" on="0"/>
        <pt x="227" y="10" on="1"/>
        <pt x="202" y="22" on="0"/>
        <pt x="190" y="33" on="1"/>
        <pt x="187" y="35" on="1"/>
        <pt x="187" y="-47" on="1"/>
        <pt x="187" y="-130" on="0"/>
        <pt x="188" y="-131" on="1"/>
        <pt x="192" y="-138" on="0"/>
        <pt x="244" y="-138" on="1"/>
        <pt x="265" y="-138" on="1"/>
        <pt x="265" y="-166" on="1"/>
        <pt x="265" y="-194" on="1"/>
        <pt x="257" y="-194" on="1"/>
        <pt x="194" y="-192" on="1"/>
        <pt x="140" y="-191" on="0"/>
        <pt x="86" y="-192" on="1"/>
        <pt x="23" y="-194" on="1"/>
        <pt x="15" y="-194" on="1"/>
        <pt x="15" y="-166" on="1"/>
        <pt x="15" y="-138" on="1"/>
        <pt x="36" y="-138" on="1"/>
        <pt x="88" y="-138" on="0"/>
        <pt x="92" y="-131" on="1"/>
        <pt x="92" y="341" on="1"/>
        <pt x="88" y="365" on="0"/>
        <pt x="67" y="371" on="1"/>
        <pt x="56" y="374" on="0"/>
        <pt x="33" y="375" on="1"/>
        <pt x="15" y="375" on="1"/>
        <pt x="15" y="403" on="1"/>
        <pt x="15" y="431" on="1"/>
        <pt x="17" y="431" on="1"/>
      </contour>
      <contour>
        <pt x="319" y="390" on="1"/>
        <pt x="307" y="393" on="0"/>
        <pt x="291" y="391" on="1"/>
        <pt x="265" y="388" on="0"/>
        <pt x="239" y="378" on="1"/>
        <pt x="211" y="365" on="0"/>
        <pt x="194" y="345" on="1"/>
        <pt x="187" y="338" on="1"/>
        <pt x="187" y="219" on="1"/>
        <pt x="187" y="101" on="1"/>
        <pt x="193" y="92" on="1"/>
        <pt x="214" y="61" on="0"/>
        <pt x="248" y="46" on="1"/>
        <pt x="300" y="22" on="0"/>
        <pt x="342" y="51" on="1"/>
        <pt x="397" y="89" on="0"/>
        <pt x="411" y="176" on="1"/>
        <pt x="416" y="206" on="0"/>
        <pt x="412" y="249" on="1"/>
        <pt x="402" y="335" on="0"/>
        <pt x="352" y="374" on="1"/>
        <pt x="349" y="377" on="0"/>
        <pt x="345" y="379" on="1"/>
        <pt x="333" y="387" on="0"/>
      </contour>
    </TTGlyph>
    <TTGlyph name="parenleft" xMin="86" yMin="-250" xMax="333" yMax="750">
      <contour>
        <pt x="287" y="746" on="1"/>
        <pt x="292" y="750" on="1"/>
        <pt x="310" y="750" on="1"/>
        <pt x="327" y="750" on="1"/>
        <pt x="330" y="747" on="1"/>
        <pt x="333" y="744" on="0"/>
        <pt x="333" y="741" on="1"/>
        <pt x="333" y="737" on="0"/>
        <pt x="325" y="728" on="1"/>
        <pt x="296" y="698" on="0"/>
        <pt x="271" y="660" on="1"/>
        <pt x="218" y="578" on="0"/>
        <pt x="194" y="471" on="1"/>
        <pt x="155" y="307" on="0"/>
        <pt x="179" y="118" on="1"/>
        <pt x="184" y="71" on="0"/>
        <pt x="194" y="30" on="1"/>
        <pt x="229" y="-125" on="0"/>
        <pt x="325" y="-228" on="1"/>
        <pt x="333" y="-237" on="0"/>
        <pt x="333" y="-241" on="1"/>
        <pt x="333" y="-244" on="0"/>
        <pt x="330" y="-247" on="1"/>
        <pt x="327" y="-250" on="1"/>
        <pt x="310" y="-250" on="1"/>
        <pt x="292" y="-250" on="1"/>
        <pt x="287" y="-246" on="1"/>
        <pt x="262" y="-224" on="0"/>
        <pt x="248" y="-209" on="1"/>
        <pt x="108" y="-61" on="0"/>
        <pt x="90" y="190" on="1"/>
        <pt x="86" y="232" on="0"/>
        <pt x="89" y="299" on="1"/>
        <pt x="90" y="306" on="0"/>
        <pt x="90" y="310" on="1"/>
        <pt x="108" y="561" on="0"/>
        <pt x="248" y="709" on="1"/>
        <pt x="262" y="724" on="0"/>
      </contour>
    </TTGlyph>
    <TTGlyph name="parenright" xMin="55" yMin="-250" xMax="302" yMax="750">
      <contour>
        <pt x="60" y="749" on="1"/>
        <pt x="62" y="750" on="0"/>
        <pt x="79" y="750" on="1"/>
        <pt x="96" y="750" on="1"/>
        <pt x="101" y="746" on="1"/>
        <pt x="126" y="724" on="0"/>
        <pt x="140" y="709" on="1"/>
        <pt x="280" y="561" on="0"/>
        <pt x="298" y="310" on="1"/>
        <pt x="302" y="268" on="0"/>
        <pt x="299" y="201" on="1"/>
        <pt x="298" y="194" on="0"/>
        <pt x="298" y="190" on="1"/>
        <pt x="280" y="-61" on="0"/>
        <pt x="140" y="-209" on="1"/>
        <pt x="126" y="-224" on="0"/>
        <pt x="101" y="-246" on="1"/>
        <pt x="96" y="-250" on="1"/>
        <pt x="79" y="-250" on="1"/>
        <pt x="58" y="-250" on="0"/>
        <pt x="56" y="-244" on="1"/>
        <pt x="55" y="-242" on="0"/>
        <pt x="55" y="-239" on="1"/>
        <pt x="56" y="-237" on="0"/>
        <pt x="67" y="-224" on="1"/>
        <pt x="160" y="-122" on="0"/>
        <pt x="194" y="30" on="1"/>
        <pt x="233" y="193" on="0"/>
        <pt x="209" y="382" on="1"/>
        <pt x="204" y="430" on="0"/>
        <pt x="194" y="471" on="1"/>
        <pt x="160" y="622" on="0"/>
        <pt x="67" y="724" on="1"/>
        <pt x="56" y="737" on="0"/>
        <pt x="55" y="739" on="1"/>
        <pt x="55" y="746" on="0"/>
      </contour>
    </TTGlyph>
    <TTGlyph name="percent" xMin="54" yMin="-65" xMax="779" yMax="755">
      <contour>
        <pt x="185" y="748" on="1"/>
        <pt x="211" y="754" on="0"/>
        <pt x="239" y="742" on="1"/>
        <pt x="256" y="735" on="0"/>
        <pt x="272" y="719" on="1"/>
        <pt x="343" y="656" on="0"/>
        <pt x="429" y="643" on="1"/>
        <pt x="453" y="639" on="0"/>
        <pt x="493" y="642" on="1"/>
        <pt x="497" y="643" on="0"/>
        <pt x="500" y="643" on="1"/>
        <pt x="593" y="658" on="0"/>
        <pt x="650" y="732" on="1"/>
        <pt x="661" y="746" on="0"/>
        <pt x="665" y="748" on="1"/>
        <pt x="681" y="755" on="0"/>
        <pt x="690" y="740" on="1"/>
        <pt x="692" y="737" on="0"/>
        <pt x="693" y="733" on="1"/>
        <pt x="693" y="728" on="0"/>
        <pt x="695" y="726" on="1"/>
        <pt x="697" y="722" on="0"/>
        <pt x="697" y="720" on="1"/>
        <pt x="697" y="710" on="0"/>
        <pt x="665" y="678" on="1"/>
        <pt x="656" y="669" on="0"/>
        <pt x="482" y="409" on="1"/>
        <pt x="414" y="308" on="1"/>
        <pt x="175" y="-50" on="0"/>
        <pt x="170" y="-53" on="1"/>
        <pt x="161" y="-59" on="0"/>
        <pt x="150" y="-53" on="1"/>
        <pt x="144" y="-51" on="0"/>
        <pt x="142" y="-45" on="1"/>
        <pt x="137" y="-36" on="0"/>
        <pt x="141" y="-28" on="1"/>
        <pt x="143" y="-25" on="0"/>
        <pt x="357" y="295" on="1"/>
        <pt x="571" y="614" on="1"/>
        <pt x="571" y="615" on="0"/>
        <pt x="559" y="611" on="1"/>
        <pt x="540" y="604" on="0"/>
        <pt x="510" y="599" on="1"/>
        <pt x="477" y="593" on="0"/>
        <pt x="437" y="597" on="1"/>
        <pt x="385" y="602" on="0"/>
        <pt x="337" y="623" on="1"/>
        <pt x="325" y="628" on="0"/>
        <pt x="324" y="629" on="1"/>
        <pt x="323" y="629" on="0"/>
        <pt x="323" y="627" on="1"/>
        <pt x="328" y="608" on="0"/>
        <pt x="331" y="585" on="1"/>
        <pt x="335" y="560" on="0"/>
        <pt x="332" y="518" on="1"/>
        <pt x="331" y="515" on="0"/>
        <pt x="331" y="512" on="1"/>
        <pt x="323" y="447" on="0"/>
        <pt x="293" y="403" on="1"/>
        <pt x="277" y="378" on="0"/>
        <pt x="255" y="364" on="1"/>
        <pt x="216" y="338" on="0"/>
        <pt x="168" y="353" on="1"/>
        <pt x="150" y="359" on="0"/>
        <pt x="136" y="369" on="1"/>
        <pt x="75" y="411" on="0"/>
        <pt x="59" y="502" on="1"/>
        <pt x="58" y="508" on="0"/>
        <pt x="57" y="515" on="1"/>
        <pt x="54" y="536" on="0"/>
        <pt x="56" y="575" on="1"/>
        <pt x="57" y="579" on="0"/>
        <pt x="57" y="582" on="1"/>
        <pt x="71" y="681" on="0"/>
        <pt x="134" y="727" on="1"/>
        <pt x="158" y="743" on="0"/>
      </contour>
      <contour>
        <pt x="212" y="702" on="1"/>
        <pt x="189" y="707" on="0"/>
        <pt x="170" y="688" on="1"/>
        <pt x="146" y="664" on="0"/>
        <pt x="143" y="597" on="1"/>
        <pt x="142" y="573" on="0"/>
        <pt x="142" y="535" on="1"/>
        <pt x="143" y="465" on="0"/>
        <pt x="151" y="441" on="1"/>
        <pt x="159" y="418" on="0"/>
        <pt x="175" y="405" on="1"/>
        <pt x="203" y="381" on="0"/>
        <pt x="234" y="407" on="1"/>
        <pt x="271" y="436" on="0"/>
        <pt x="281" y="514" on="1"/>
        <pt x="285" y="539" on="0"/>
        <pt x="282" y="577" on="1"/>
        <pt x="281" y="581" on="0"/>
        <pt x="281" y="583" on="1"/>
        <pt x="271" y="664" on="0"/>
        <pt x="230" y="693" on="1"/>
        <pt x="221" y="700" on="0"/>
      </contour>
      <contour>
        <pt x="629" y="345" on="1"/>
        <pt x="667" y="353" on="0"/>
        <pt x="699" y="330" on="1"/>
        <pt x="720" y="317" on="0"/>
        <pt x="737" y="292" on="1"/>
        <pt x="767" y="247" on="0"/>
        <pt x="775" y="182" on="1"/>
        <pt x="779" y="157" on="0"/>
        <pt x="776" y="115" on="1"/>
        <pt x="775" y="112" on="0"/>
        <pt x="775" y="109" on="1"/>
        <pt x="767" y="44" on="0"/>
        <pt x="737" y="0" on="1"/>
        <pt x="721" y="-25" on="0"/>
        <pt x="699" y="-39" on="1"/>
        <pt x="660" y="-65" on="0"/>
        <pt x="612" y="-50" on="1"/>
        <pt x="594" y="-44" on="0"/>
        <pt x="580" y="-34" on="1"/>
        <pt x="519" y="8" on="0"/>
        <pt x="503" y="99" on="1"/>
        <pt x="502" y="105" on="0"/>
        <pt x="501" y="112" on="1"/>
        <pt x="498" y="133" on="0"/>
        <pt x="500" y="172" on="1"/>
        <pt x="501" y="176" on="0"/>
        <pt x="501" y="179" on="1"/>
        <pt x="515" y="278" on="0"/>
        <pt x="578" y="324" on="1"/>
        <pt x="602" y="340" on="0"/>
      </contour>
      <contour>
        <pt x="656" y="299" on="1"/>
        <pt x="633" y="304" on="0"/>
        <pt x="614" y="285" on="1"/>
        <pt x="590" y="261" on="0"/>
        <pt x="587" y="194" on="1"/>
        <pt x="586" y="170" on="0"/>
        <pt x="586" y="132" on="1"/>
        <pt x="587" y="46" on="0"/>
        <pt x="603" y="20" on="1"/>
        <pt x="605" y="17" on="0"/>
        <pt x="608" y="13" on="1"/>
        <pt x="629" y="-12" on="0"/>
        <pt x="654" y="-8" on="1"/>
        <pt x="690" y="-2" on="0"/>
        <pt x="712" y="55" on="1"/>
        <pt x="713" y="60" on="0"/>
        <pt x="715" y="65" on="1"/>
        <pt x="726" y="101" on="0"/>
        <pt x="726" y="146" on="1"/>
        <pt x="726" y="174" on="0"/>
        <pt x="725" y="180" on="1"/>
        <pt x="715" y="261" on="0"/>
        <pt x="674" y="290" on="1"/>
        <pt x="665" y="297" on="0"/>
      </contour>
    </TTGlyph>
    <TTGlyph name="period" xMin="67" yMin="-6" xMax="210" yMax="135">
      <contour>
        <pt x="123" y="129" on="1"/>
        <pt x="145" y="135" on="0"/>
        <pt x="168" y="124" on="1"/>
        <pt x="187" y="114" on="0"/>
        <pt x="197" y="95" on="1"/>
        <pt x="210" y="66" on="0"/>
        <pt x="197" y="36" on="1"/>
        <pt x="187" y="17" on="0"/>
        <pt x="168" y="7" on="1"/>
        <pt x="138" y="-6" on="0"/>
        <pt x="109" y="7" on="1"/>
        <pt x="90" y="17" on="0"/>
        <pt x="80" y="36" on="1"/>
        <pt x="67" y="66" on="0"/>
        <pt x="80" y="95" on="1"/>
        <pt x="92" y="121" on="0"/>
      </contour>
    </TTGlyph>
    <TTGlyph name="plus" xMin="56" yMin="-82" xMax="722" yMax="589">
      <contour>
        <pt x="380" y="581" on="1"/>
        <pt x="394" y="589" on="0"/>
        <pt x="407" y="572" on="1"/>
        <pt x="409" y="568" on="1"/>
        <pt x="409" y="419" on="1"/>
        <pt x="409" y="270" on="1"/>
        <pt x="558" y="270" on="1"/>
        <pt x="707" y="270" on="1"/>
        <pt x="711" y="268" on="1"/>
        <pt x="714" y="266" on="0"/>
        <pt x="719" y="261" on="1"/>
        <pt x="722" y="255" on="0"/>
        <pt x="722" y="245" on="0"/>
        <pt x="719" y="239" on="1"/>
        <pt x="714" y="234" on="0"/>
        <pt x="711" y="232" on="1"/>
        <pt x="707" y="230" on="1"/>
        <pt x="558" y="230" on="1"/>
        <pt x="409" y="230" on="1"/>
        <pt x="409" y="81" on="1"/>
        <pt x="409" y="-68" on="1"/>
        <pt x="407" y="-72" on="1"/>
        <pt x="404" y="-77" on="0"/>
        <pt x="400" y="-79" on="1"/>
        <pt x="396" y="-82" on="0"/>
        <pt x="382" y="-82" on="0"/>
        <pt x="378" y="-79" on="1"/>
        <pt x="374" y="-77" on="0"/>
        <pt x="371" y="-72" on="1"/>
        <pt x="369" y="-68" on="1"/>
        <pt x="369" y="81" on="1"/>
        <pt x="369" y="230" on="1"/>
        <pt x="220" y="230" on="1"/>
        <pt x="70" y="230" on="1"/>
        <pt x="66" y="232" on="1"/>
        <pt x="61" y="236" on="0"/>
        <pt x="59" y="239" on="1"/>
        <pt x="56" y="243" on="0"/>
        <pt x="56" y="257" on="0"/>
        <pt x="59" y="261" on="1"/>
        <pt x="61" y="264" on="0"/>
        <pt x="66" y="268" on="1"/>
        <pt x="70" y="270" on="1"/>
        <pt x="220" y="270" on="1"/>
        <pt x="369" y="270" on="1"/>
        <pt x="369" y="420" on="1"/>
        <pt x="370" y="570" on="1"/>
        <pt x="373" y="574" on="1"/>
      </contour>
    </TTGlyph>
    <TTGlyph name="q" xMin="13" yMin="-194" xMax="540" yMax="442">
      <contour>
        <pt x="220" y="441" on="1"/>
        <pt x="256" y="441" on="1"/>
        <pt x="323" y="434" on="0"/>
        <pt x="374" y="383" on="1"/>
        <pt x="386" y="370" on="0"/>
        <pt x="387" y="372" on="1"/>
        <pt x="401" y="408" on="1"/>
        <pt x="415" y="442" on="1"/>
        <pt x="438" y="442" on="1"/>
        <pt x="462" y="442" on="1"/>
        <pt x="462" y="156" on="1"/>
        <pt x="462" y="-130" on="0"/>
        <pt x="463" y="-131" on="1"/>
        <pt x="467" y="-138" on="0"/>
        <pt x="519" y="-138" on="1"/>
        <pt x="540" y="-138" on="1"/>
        <pt x="540" y="-166" on="1"/>
        <pt x="540" y="-194" on="1"/>
        <pt x="532" y="-194" on="1"/>
        <pt x="469" y="-192" on="1"/>
        <pt x="415" y="-191" on="0"/>
        <pt x="361" y="-192" on="1"/>
        <pt x="298" y="-194" on="1"/>
        <pt x="290" y="-194" on="1"/>
        <pt x="290" y="-166" on="1"/>
        <pt x="290" y="-138" on="1"/>
        <pt x="311" y="-138" on="1"/>
        <pt x="366" y="-138" on="0"/>
        <pt x="367" y="-130" on="1"/>
        <pt x="368" y="-129" on="0"/>
        <pt x="368" y="-42" on="1"/>
        <pt x="368" y="43" on="1"/>
        <pt x="360" y="37" on="1"/>
        <pt x="298" y="-13" on="0"/>
        <pt x="221" y="-11" on="1"/>
        <pt x="213" y="-11" on="0"/>
        <pt x="206" y="-10" on="1"/>
        <pt x="122" y="2" on="0"/>
        <pt x="72" y="79" on="1"/>
        <pt x="64" y="92" on="0"/>
        <pt x="57" y="106" on="1"/>
        <pt x="13" y="201" on="0"/>
        <pt x="47" y="298" on="1"/>
        <pt x="51" y="311" on="0"/>
        <pt x="57" y="323" on="1"/>
        <pt x="77" y="360" on="0"/>
        <pt x="98" y="381" on="1"/>
        <pt x="121" y="406" on="0"/>
        <pt x="152" y="421" on="1"/>
        <pt x="184" y="437" on="0"/>
      </contour>
      <contour>
        <pt x="278" y="391" on="1"/>
        <pt x="241" y="397" on="0"/>
        <pt x="208" y="373" on="1"/>
        <pt x="174" y="349" on="0"/>
        <pt x="157" y="303" on="1"/>
        <pt x="126" y="226" on="0"/>
        <pt x="151" y="141" on="1"/>
        <pt x="158" y="114" on="0"/>
        <pt x="171" y="93" on="1"/>
        <pt x="198" y="46" on="0"/>
        <pt x="237" y="37" on="1"/>
        <pt x="269" y="32" on="0"/>
        <pt x="305" y="49" on="1"/>
        <pt x="339" y="66" on="0"/>
        <pt x="365" y="108" on="1"/>
        <pt x="371" y="118" on="1"/>
        <pt x="371" y="211" on="1"/>
        <pt x="371" y="304" on="1"/>
        <pt x="367" y="313" on="1"/>
        <pt x="340" y="376" on="0"/>
        <pt x="284" y="390" on="1"/>
        <pt x="281" y="390" on="0"/>
      </contour>
    </TTGlyph>
    <TTGlyph name="question" xMin="55" yMin="0" xMax="419" yMax="709">
      <contour>
        <pt x="200" y="704" on="1"/>
        <pt x="242" y="709" on="0"/>
        <pt x="296" y="698" on="1"/>
        <pt x="342" y="688" on="0"/>
        <pt x="373" y="662" on="1"/>
        <pt x="419" y="622" on="0"/>
        <pt x="415" y="557" on="1"/>
        <pt x="414" y="532" on="0"/>
        <pt x="403" y="509" on="1"/>
        <pt x="389" y="479" on="0"/>
        <pt x="359" y="457" on="1"/>
        <pt x="269" y="390" on="0"/>
        <pt x="250" y="301" on="1"/>
        <pt x="248" y="289" on="0"/>
        <pt x="247" y="253" on="1"/>
        <pt x="247" y="215" on="0"/>
        <pt x="246" y="213" on="1"/>
        <pt x="237" y="206" on="0"/>
        <pt x="222" y="206" on="1"/>
        <pt x="199" y="206" on="0"/>
        <pt x="198" y="211" on="1"/>
        <pt x="194" y="217" on="0"/>
        <pt x="198" y="300" on="1"/>
        <pt x="210" y="411" on="0"/>
        <pt x="281" y="491" on="1"/>
        <pt x="295" y="507" on="0"/>
        <pt x="301" y="522" on="1"/>
        <pt x="308" y="540" on="0"/>
        <pt x="307" y="575" on="1"/>
        <pt x="307" y="626" on="0"/>
        <pt x="295" y="638" on="1"/>
        <pt x="284" y="650" on="0"/>
        <pt x="259" y="656" on="1"/>
        <pt x="231" y="660" on="0"/>
        <pt x="200" y="657" on="1"/>
        <pt x="198" y="656" on="0"/>
        <pt x="196" y="656" on="1"/>
        <pt x="163" y="649" on="0"/>
        <pt x="137" y="629" on="1"/>
        <pt x="126" y="621" on="0"/>
        <pt x="131" y="621" on="1"/>
        <pt x="141" y="617" on="1"/>
        <pt x="173" y="602" on="0"/>
        <pt x="172" y="564" on="1"/>
        <pt x="172" y="549" on="0"/>
        <pt x="164" y="535" on="1"/>
        <pt x="149" y="507" on="0"/>
        <pt x="114" y="507" on="1"/>
        <pt x="76" y="507" on="0"/>
        <pt x="62" y="536" on="1"/>
        <pt x="55" y="550" on="0"/>
        <pt x="55" y="571" on="1"/>
        <pt x="57" y="608" on="0"/>
        <pt x="80" y="640" on="1"/>
        <pt x="98" y="663" on="0"/>
        <pt x="116" y="674" on="1"/>
        <pt x="154" y="699" on="0"/>
      </contour>
      <contour>
        <pt x="207" y="129" on="1"/>
        <pt x="242" y="137" on="0"/>
        <pt x="268" y="112" on="1"/>
        <pt x="287" y="91" on="0"/>
        <pt x="287" y="66" on="1"/>
        <pt x="287" y="50" on="0"/>
        <pt x="280" y="36" on="1"/>
        <pt x="262" y="2" on="0"/>
        <pt x="221" y="0" on="1"/>
        <pt x="183" y="0" on="0"/>
        <pt x="164" y="34" on="1"/>
        <pt x="156" y="49" on="0"/>
        <pt x="156" y="66" on="1"/>
        <pt x="156" y="81" on="0"/>
        <pt x="163" y="95" on="1"/>
        <pt x="176" y="123" on="0"/>
      </contour>
    </TTGlyph>
</ttFont>
